<?xml version="1.0" encoding="UTF-8"?>
<!DOCTYPE svg PUBLIC "-//W3C//DTD SVG 1.1//EN" "http://www.w3.org/Graphics/SVG/1.1/DTD/svg11.dtd">
<svg xmlns="http://www.w3.org/2000/svg" version="1.1" width="2500px" height="10000px" style="shape-rendering:geometricPrecision; text-rendering:geometricPrecision; image-rendering:optimizeQuality; fill-rule:evenodd; clip-rule:evenodd" xmlns:xlink="http://www.w3.org/1999/xlink">
<g><path style="opacity:1" fill="#fea3b0" d="M -0.5,499.5 C 166.167,499.5 332.833,499.5 499.5,499.5C 499.5,666.167 499.5,832.833 499.5,999.5C 332.833,999.5 166.167,999.5 -0.5,999.5C -0.5,832.833 -0.5,666.167 -0.5,499.5 Z"/></g>
<g><path style="opacity:1" fill="#b1727b" d="M 2499.5,499.5 C 2499.5,832.833 2499.5,1166.17 2499.5,1499.5C 2332.83,1499.5 2166.17,1499.5 1999.5,1499.5C 1999.5,1166.17 1999.5,832.833 1999.5,499.5C 2166.17,499.5 2332.83,499.5 2499.5,499.5 Z"/></g>
<g><path style="opacity:1" fill="#b1727b" d="M -0.5,999.5 C 166.167,999.5 332.833,999.5 499.5,999.5C 499.5,1332.83 499.5,1666.17 499.5,1999.5C 332.833,1999.5 166.167,1999.5 -0.5,1999.5C -0.5,1666.17 -0.5,1332.83 -0.5,999.5 Z"/></g>
<g><path style="opacity:1" fill="#7b5056" d="M 1999.5,1499.5 C 2166.17,1499.5 2332.83,1499.5 2499.5,1499.5C 2499.5,1832.83 2499.5,2166.17 2499.5,2499.5C 2332.83,2499.5 2166.17,2499.5 1999.5,2499.5C 1999.5,2166.17 1999.5,1832.83 1999.5,1499.5 Z"/></g>
<g><path style="opacity:1" fill="#7b5056" d="M -0.5,1999.5 C 166.167,1999.5 332.833,1999.5 499.5,1999.5C 499.5,2166.17 499.5,2332.83 499.5,2499.5C 332.833,2499.5 166.167,2499.5 -0.5,2499.5C -0.5,2332.83 -0.5,2166.17 -0.5,1999.5 Z"/></g>
<g><path style="opacity:1" fill="#7b5056" d="M 499.5,2499.5 C 666.167,2499.5 832.833,2499.5 999.5,2499.5C 999.5,2666.17 999.5,2832.83 999.5,2999.5C 832.833,2999.5 666.167,2999.5 499.5,2999.5C 499.5,2832.83 499.5,2666.17 499.5,2499.5 Z"/></g>
<g><path style="opacity:1" fill="#56383c" d="M 999.5,2499.5 C 1332.83,2499.5 1666.17,2499.5 1999.5,2499.5C 1999.5,2666.17 1999.5,2832.83 1999.5,2999.5C 1666.17,2999.5 1332.83,2999.5 999.5,2999.5C 999.5,2832.83 999.5,2666.17 999.5,2499.5 Z"/></g>
<g><path style="opacity:1" fill="#00b7ef" d="M -0.5,3499.5 C 166.167,3499.5 332.833,3499.5 499.5,3499.5C 499.5,3666.17 499.5,3832.83 499.5,3999.5C 332.833,3999.5 166.167,3999.5 -0.5,3999.5C -0.5,3832.83 -0.5,3666.17 -0.5,3499.5 Z"/></g>
<g><path style="opacity:1" fill="#0080a7" d="M 2499.5,3499.5 C 2499.5,3832.83 2499.5,4166.17 2499.5,4499.5C 2332.83,4499.5 2166.17,4499.5 1999.5,4499.5C 1999.5,4166.17 1999.5,3832.83 1999.5,3499.5C 2166.17,3499.5 2332.83,3499.5 2499.5,3499.5 Z"/></g>
<g><path style="opacity:1" fill="#0080a7" d="M -0.5,3999.5 C 166.167,3999.5 332.833,3999.5 499.5,3999.5C 499.5,4166.17 499.5,4332.83 499.5,4499.5C 332.833,4499.5 166.167,4499.5 -0.5,4499.5C -0.5,4332.83 -0.5,4166.17 -0.5,3999.5 Z"/></g>
<g><path style="opacity:1" fill="#005975" d="M -0.5,4499.5 C 166.167,4499.5 332.833,4499.5 499.5,4499.5C 499.5,4832.83 499.5,5166.17 499.5,5499.5C 332.833,5499.5 166.167,5499.5 -0.5,5499.5C -0.5,5166.17 -0.5,4832.83 -0.5,4499.5 Z"/></g>
<g><path style="opacity:1" fill="#005975" d="M 1499.5,5499.5 C 1332.83,5499.5 1166.17,5499.5 999.5,5499.5C 999.5,5166.17 999.5,4832.83 999.5,4499.5C 1166.17,4499.5 1332.83,4499.5 1499.5,4499.5C 1499.5,4832.83 1499.5,5166.17 1499.5,5499.5 Z"/></g>
<g><path style="opacity:1" fill="#005975" d="M 1999.5,4499.5 C 2166.17,4499.5 2332.83,4499.5 2499.5,4499.5C 2499.5,4832.83 2499.5,5166.17 2499.5,5499.5C 2332.83,5499.5 2166.17,5499.5 1999.5,5499.5C 1999.5,5166.17 1999.5,4832.83 1999.5,4499.5 Z"/></g>
<g><path style="opacity:1" fill="#005975" d="M 499.5,5499.5 C 666.167,5499.5 832.833,5499.5 999.5,5499.5C 999.5,5666.17 999.5,5832.83 999.5,5999.5C 832.833,5999.5 666.167,5999.5 499.5,5999.5C 499.5,5832.83 499.5,5666.17 499.5,5499.5 Z"/></g>
<g><path style="opacity:1" fill="#003e52" d="M 1499.5,5499.5 C 1666.17,5499.5 1832.83,5499.5 1999.5,5499.5C 1999.5,5666.17 1999.5,5832.83 1999.5,5999.5C 1832.83,5999.5 1666.17,5999.5 1499.5,5999.5C 1499.5,5832.83 1499.5,5666.17 1499.5,5499.5 Z"/></g>
<g><path style="opacity:1" fill="#6e3198" d="M -0.5,6499.5 C 166.167,6499.5 332.833,6499.5 499.5,6499.5C 499.5,6666.17 499.5,6832.83 499.5,6999.5C 332.833,6999.5 166.167,6999.5 -0.5,6999.5C -0.5,6832.83 -0.5,6666.17 -0.5,6499.5 Z"/></g>
<g><path style="opacity:1" fill="#4c226a" d="M 2499.5,6499.5 C 2499.5,6832.83 2499.5,7166.17 2499.5,7499.5C 2332.83,7499.5 2166.17,7499.5 1999.5,7499.5C 1999.5,7166.17 1999.5,6832.83 1999.5,6499.5C 2166.17,6499.5 2332.83,6499.5 2499.5,6499.5 Z"/></g>
<g><path style="opacity:1" fill="#4c226a" d="M -0.5,6999.5 C 166.167,6999.5 332.833,6999.5 499.5,6999.5C 499.5,7332.83 499.5,7666.17 499.5,7999.5C 332.833,7999.5 166.167,7999.5 -0.5,7999.5C -0.5,7666.17 -0.5,7332.83 -0.5,6999.5 Z"/></g>
<g><path style="opacity:1" fill="#35184a" d="M 1999.5,7499.5 C 2166.17,7499.5 2332.83,7499.5 2499.5,7499.5C 2499.5,7832.83 2499.5,8166.17 2499.5,8499.5C 2332.83,8499.5 2166.17,8499.5 1999.5,8499.5C 1999.5,8166.17 1999.5,7832.83 1999.5,7499.5 Z"/></g>
<g><path style="opacity:1" fill="#35184a" d="M -0.5,7999.5 C 166.167,7999.5 332.833,7999.5 499.5,7999.5C 499.5,8166.17 499.5,8332.83 499.5,8499.5C 332.833,8499.5 166.167,8499.5 -0.5,8499.5C -0.5,8332.83 -0.5,8166.17 -0.5,7999.5 Z"/></g>
<g><path style="opacity:1" fill="#35184a" d="M 499.5,8499.5 C 666.167,8499.5 832.833,8499.5 999.5,8499.5C 999.5,8666.17 999.5,8832.83 999.5,8999.5C 832.833,8999.5 666.167,8999.5 499.5,8999.5C 499.5,8832.83 499.5,8666.17 499.5,8499.5 Z"/></g>
<g><path style="opacity:1" fill="#251134" d="M 999.5,8499.5 C 1332.83,8499.5 1666.17,8499.5 1999.5,8499.5C 1999.5,8666.17 1999.5,8832.83 1999.5,8999.5C 1666.17,8999.5 1332.83,8999.5 999.5,8999.5C 999.5,8832.83 999.5,8666.17 999.5,8499.5 Z"/></g>
</svg>
