<?xml version="1.0" encoding="UTF-8"?>
<!DOCTYPE svg PUBLIC "-//W3C//DTD SVG 1.1//EN" "http://www.w3.org/Graphics/SVG/1.1/DTD/svg11.dtd">
<svg xmlns="http://www.w3.org/2000/svg" version="1.1" width="1000px" height="1000px" style="shape-rendering:geometricPrecision; text-rendering:geometricPrecision; image-rendering:optimizeQuality; fill-rule:evenodd; clip-rule:evenodd" xmlns:xlink="http://www.w3.org/1999/xlink">
<g><path style="opacity:0.004" fill="#000000" d="M 122.5,210.5 C 123.833,210.5 125.167,210.5 126.5,210.5C 126.5,211.833 126.5,213.167 126.5,214.5C 125.167,214.5 123.833,214.5 122.5,214.5C 122.5,213.167 122.5,211.833 122.5,210.5 Z"/></g>
<g><path style="opacity:0.004" fill="#000000" d="M 441.5,210.5 C 444.5,210.167 445.833,211.5 445.5,214.5C 444.167,214.5 442.833,214.5 441.5,214.5C 441.5,213.167 441.5,211.833 441.5,210.5 Z"/></g>
<g><path style="opacity:0.934" fill="#000000" d="M 871.5,437.5 C 871.83,421.325 871.496,405.325 870.5,389.5C 870.047,388.542 869.381,387.708 868.5,387C 666.834,386.5 465.167,386.333 263.5,386.5C 263.167,386.5 262.833,386.5 262.5,386.5C 262.172,374.655 262.505,362.988 263.5,351.5C 407.168,351.833 550.835,351.5 694.5,350.5C 695.824,334.706 695.824,319.039 694.5,303.5C 694.586,302.504 694.252,301.671 693.5,301C 595.332,300.168 497.332,300.334 399.5,301.5C 397.379,301.675 395.379,301.341 393.5,300.5C 393.5,298.833 393.5,297.167 393.5,295.5C 394.166,289.175 394.5,282.675 394.5,276C 394.497,269.131 393.83,262.631 392.5,256.5C 320.208,255.506 247.875,255.173 175.5,255.5C 174.25,255.577 173.417,256.244 173,257.5C 172.173,270.34 172.34,283.007 173.5,295.5C 173.784,297.415 173.451,299.081 172.5,300.5C 157.462,299.85 142.795,300.517 128.5,302.5C 128.5,303.5 128.5,304.5 128.5,305.5C 127.501,376.665 127.167,447.998 127.5,519.5C 127.167,519.5 126.833,519.5 126.5,519.5C 124.901,519.768 123.568,519.434 122.5,518.5C 122.047,517.542 121.381,516.708 120.5,516C 110.256,515.821 100.09,515.321 90,514.5C 85.0466,515.958 82.5466,519.291 82.5,524.5C 83.8237,535.988 83.8237,547.488 82.5,559C 83.0779,560.811 83.5779,562.645 84,564.5C 84.7504,565.126 85.5838,565.626 86.5,566C 100.878,566.816 115.212,566.649 129.5,565.5C 130.192,564.975 130.692,564.308 131,563.5C 131.826,551.326 131.66,539.326 130.5,527.5C 130.5,525.833 130.5,524.167 130.5,522.5C 131.167,522.5 131.5,522.167 131.5,521.5C 145.5,521.5 159.5,521.5 173.5,521.5C 173.833,521.5 174.167,521.5 174.5,521.5C 174.831,550.671 174.498,579.671 173.5,608.5C 159.163,608.333 144.829,608.5 130.5,609C 129.177,609.816 128.511,610.983 128.5,612.5C 127.168,640.902 127.168,669.402 128.5,698C 331.167,698.667 533.833,698.667 736.5,698C 738.333,697.5 739.5,696.333 740,694.5C 740.5,680.837 740.667,667.171 740.5,653.5C 741.635,651.787 743.302,651.12 745.5,651.5C 757.66,652.66 769.993,652.827 782.5,652C 783.931,651.535 785.097,650.701 786,649.5C 786.5,622.169 786.667,594.835 786.5,567.5C 797.654,566.505 808.988,566.172 820.5,566.5C 822.911,566.863 824.411,565.863 825,563.5C 825.5,534.835 825.667,506.169 825.5,477.5C 826.496,464.344 826.829,451.01 826.5,437.5C 841.578,437.184 856.578,437.517 871.5,438.5C 871.5,439.5 871.5,440.5 871.5,441.5C 859.096,441.606 846.43,441.606 833.5,441.5C 832.522,441.977 831.689,442.643 831,443.5C 830.333,454.833 830.333,466.167 831,477.5C 831.374,478.416 831.874,479.25 832.5,480C 845.579,480.373 858.579,480.54 871.5,480.5C 871.5,468.167 871.5,455.833 871.5,443.5C 872.665,483.665 872.831,523.998 872,564.5C 871.691,565.766 871.191,566.933 870.5,568C 857.9,568.378 845.4,568.544 833,568.5C 832.5,611.832 832.333,655.165 832.5,698.5C 817.496,698.333 802.496,698.5 787.5,699C 787.75,713.778 787.416,728.611 786.5,743.5C 538.501,744.5 290.501,744.833 42.5,744.5C 42.5,596.5 42.5,448.5 42.5,300.5C 55.5,300.5 68.5,300.5 81.5,300.5C 81.5,285.167 81.5,269.833 81.5,254.5C 96.8333,254.5 112.167,254.5 127.5,254.5C 126.232,241.486 126.232,228.486 127.5,215.5C 231.833,215.5 336.167,215.5 440.5,215.5C 440.453,228.346 440.453,241.013 440.5,253.5C 540.831,254.5 641.164,254.833 741.5,254.5C 741.635,284.876 741.469,315.209 741,345.5C 799.398,345.356 857.898,345.523 916.5,346C 917.496,376.426 917.829,406.926 917.5,437.5C 902.055,437.413 886.722,437.413 871.5,437.5 Z"/></g>
<g><path style="opacity:0.004" fill="#000000" d="M 77.5,249.5 C 78.5,249.5 79.5,249.5 80.5,249.5C 80.5,250.833 80.5,252.167 80.5,253.5C 79.1667,253.5 77.8333,253.5 76.5,253.5C 76.4326,252.041 76.7659,250.708 77.5,249.5 Z"/></g>
<g><path style="opacity:0.004" fill="#000000" d="M 742.5,249.5 C 747.992,251.717 747.658,253.051 741.5,253.5C 741.433,252.041 741.766,250.708 742.5,249.5 Z"/></g>
<g><path style="opacity:0.992" fill="#380038" d="M 175.5,255.5 C 247.875,255.173 320.208,255.506 392.5,256.5C 393.48,269.421 393.814,282.421 393.5,295.5C 393.5,297.167 393.5,298.833 393.5,300.5C 393.167,300.5 392.833,300.5 392.5,300.5C 392.667,286.496 392.5,272.496 392,258.5C 391.329,257.748 390.496,257.414 389.5,257.5C 318.668,256.335 247.668,256.168 176.5,257C 175.956,257.717 175.289,258.217 174.5,258.5C 174.557,257.391 174.89,256.391 175.5,255.5 Z"/></g>
<g><path style="opacity:0.996" fill="#940094" d="M 389.5,257.5 C 389.5,257.833 389.5,258.167 389.5,258.5C 321.167,258.5 252.833,258.5 184.5,258.5C 182.473,258.338 180.473,258.505 178.5,259C 177.944,259.383 177.611,259.883 177.5,260.5C 176.833,273.833 176.167,287.167 175.5,300.5C 175.333,286.829 175.5,273.163 176,259.5C 176.5,259 177,258.5 177.5,258C 248.166,257.5 318.833,257.333 389.5,257.5 Z"/></g>
<g><path style="opacity:1" fill="#c300c3" d="M 184.5,258.5 C 252.833,258.5 321.167,258.5 389.5,258.5C 389.5,259.167 389.5,259.833 389.5,260.5C 387.621,259.659 385.621,259.325 383.5,259.5C 316.998,259.832 250.665,259.499 184.5,258.5 Z"/></g>
<g><path style="opacity:1" fill="#fd00fd" d="M 383.5,259.5 C 385.621,259.325 387.621,259.659 389.5,260.5C 388.419,275.146 388.253,289.812 389,304.5C 390.011,305.337 391.178,305.67 392.5,305.5C 491.5,305.5 590.5,305.5 689.5,305.5C 690.167,305.5 690.5,305.833 690.5,306.5C 690.829,320.01 690.496,333.344 689.5,346.5C 546.833,346.333 404.166,346.5 261.5,347C 260.667,347.833 259.833,348.667 259,349.5C 258.5,361.495 258.333,373.495 258.5,385.5C 243.496,385.333 228.496,385.5 213.5,386C 212.509,401.089 212.176,416.255 212.5,431.5C 200.167,431.5 187.833,431.5 175.5,431.5C 174.504,431.414 173.671,431.748 173,432.5C 172.17,459.003 172.337,485.337 173.5,511.5C 173.5,513.167 173.5,514.833 173.5,516.5C 159.833,516.5 146.167,516.5 132.5,516.5C 132.5,446.167 132.5,375.833 132.5,305.5C 147.84,306.797 163.174,306.797 178.5,305.5C 178.5,304.167 178.5,302.833 178.5,301.5C 178.333,287.829 178.5,274.163 179,260.5C 179.725,259.941 180.558,259.608 181.5,259.5C 248.98,260.828 316.313,260.828 383.5,259.5 Z"/></g>
<g><path style="opacity:0.992" fill="#180018" d="M 392.5,256.5 C 393.83,262.631 394.497,269.131 394.5,276C 394.5,282.675 394.166,289.175 393.5,295.5C 393.814,282.421 393.48,269.421 392.5,256.5 Z"/></g>
<g><path style="opacity:1" fill="#5b005c" d="M 389.5,257.5 C 318.833,257.333 248.166,257.5 177.5,258C 177,258.5 176.5,259 176,259.5C 175.5,273.163 175.333,286.829 175.5,300.5C 175.167,300.5 174.833,300.5 174.5,300.5C 174.5,286.5 174.5,272.5 174.5,258.5C 175.289,258.217 175.956,257.717 176.5,257C 247.668,256.168 318.668,256.335 389.5,257.5 Z"/></g>
<g><path style="opacity:1" fill="#b100b2" d="M 177.5,260.5 C 177.5,274.167 177.5,287.833 177.5,301.5C 176.738,303.262 175.404,304.262 173.5,304.5C 173.5,304.167 173.5,303.833 173.5,303.5C 174.906,303.027 175.573,302.027 175.5,300.5C 176.167,287.167 176.833,273.833 177.5,260.5 Z"/></g>
<g><path style="opacity:1" fill="#e200e2" d="M 389.5,260.5 C 390.496,273.99 390.829,287.656 390.5,301.5C 390.733,303.062 391.4,304.395 392.5,305.5C 391.178,305.67 390.011,305.337 389,304.5C 388.253,289.812 388.419,275.146 389.5,260.5 Z"/></g>
<g><path style="opacity:0.996" fill="#9f009f" d="M 389.5,258.5 C 390.117,258.611 390.617,258.944 391,259.5C 391.169,273.339 391.669,287.006 392.5,300.5C 392.5,301.167 392.5,301.833 392.5,302.5C 391.833,302.167 391.167,301.833 390.5,301.5C 390.829,287.656 390.496,273.99 389.5,260.5C 389.5,259.833 389.5,259.167 389.5,258.5 Z"/></g>
<g><path style="opacity:0.996" fill="#6d006d" d="M 389.5,258.5 C 389.5,258.167 389.5,257.833 389.5,257.5C 390.496,257.414 391.329,257.748 392,258.5C 392.5,272.496 392.667,286.496 392.5,300.5C 391.669,287.006 391.169,273.339 391,259.5C 390.617,258.944 390.117,258.611 389.5,258.5 Z"/></g>
<g><path style="opacity:1" fill="#0c000d" d="M 175.5,255.5 C 174.89,256.391 174.557,257.391 174.5,258.5C 173.505,270.655 173.171,282.989 173.5,295.5C 172.34,283.007 172.173,270.34 173,257.5C 173.417,256.244 174.25,255.577 175.5,255.5 Z"/></g>
<g><path style="opacity:1" fill="#e000e0" d="M 184.5,258.5 C 250.665,259.499 316.998,259.832 383.5,259.5C 316.313,260.828 248.98,260.828 181.5,259.5C 180.558,259.608 179.725,259.941 179,260.5C 178.5,274.163 178.333,287.829 178.5,301.5C 178.167,301.5 177.833,301.5 177.5,301.5C 177.5,287.833 177.5,274.167 177.5,260.5C 177.611,259.883 177.944,259.383 178.5,259C 180.473,258.505 182.473,258.338 184.5,258.5 Z"/></g>
<g><path style="opacity:0.004" fill="#000000" d="M 37.5,295.5 C 38.8333,295.5 40.1667,295.5 41.5,295.5C 41.5,296.833 41.5,298.167 41.5,299.5C 40.1667,299.5 38.8333,299.5 37.5,299.5C 37.5,298.167 37.5,296.833 37.5,295.5 Z"/></g>
<g><path style="opacity:0.992" fill="#180018" d="M 172.5,300.5 C 157.931,301.182 143.265,301.849 128.5,302.5C 142.795,300.517 157.462,299.85 172.5,300.5 Z"/></g>
<g><path style="opacity:0.992" fill="#190019" d="M 399.5,301.5 C 497.332,300.334 595.332,300.168 693.5,301C 694.252,301.671 694.586,302.504 694.5,303.5C 693.292,302.766 691.959,302.433 690.5,302.5C 593.668,301.501 496.668,301.167 399.5,301.5 Z"/></g>
<g><path style="opacity:0.996" fill="#410041" d="M 393.5,300.5 C 395.379,301.341 397.379,301.675 399.5,301.5C 496.668,301.167 593.668,301.501 690.5,302.5C 591.161,303.164 492.161,302.498 393.5,300.5 Z"/></g>
<g><path style="opacity:0.996" fill="#700070" d="M 174.5,300.5 C 174.833,300.5 175.167,300.5 175.5,300.5C 175.573,302.027 174.906,303.027 173.5,303.5C 159.833,303.5 146.167,303.5 132.5,303.5C 145.994,302.669 159.661,302.169 173.5,302C 174.056,301.617 174.389,301.117 174.5,300.5 Z"/></g>
<g><path style="opacity:0.996" fill="#700070" d="M 392.5,300.5 C 392.833,300.5 393.167,300.5 393.5,300.5C 492.161,302.498 591.161,303.164 690.5,302.5C 690.5,302.833 690.5,303.167 690.5,303.5C 591.5,303.5 492.5,303.5 393.5,303.5C 392.833,303.5 392.5,303.167 392.5,302.5C 392.5,301.833 392.5,301.167 392.5,300.5 Z"/></g>
<g><path style="opacity:0.996" fill="#a100a1" d="M 393.5,303.5 C 492.5,303.5 591.5,303.5 690.5,303.5C 690.833,304.167 691.167,304.833 691.5,305.5C 691.5,305.833 691.5,306.167 691.5,306.5C 691.167,306.5 690.833,306.5 690.5,306.5C 690.5,305.833 690.167,305.5 689.5,305.5C 590.833,304.833 492.167,304.167 393.5,303.5 Z"/></g>
<g><path style="opacity:1" fill="#cb00cb" d="M 390.5,301.5 C 391.167,301.833 391.833,302.167 392.5,302.5C 392.5,303.167 392.833,303.5 393.5,303.5C 492.167,304.167 590.833,304.833 689.5,305.5C 590.5,305.5 491.5,305.5 392.5,305.5C 391.4,304.395 390.733,303.062 390.5,301.5 Z"/></g>
<g><path style="opacity:0.992" fill="#1f001f" d="M 128.5,305.5 C 128.5,377.167 128.5,448.833 128.5,520.5C 143.5,520.5 158.5,520.5 173.5,520.5C 173.5,520.833 173.5,521.167 173.5,521.5C 159.5,521.5 145.5,521.5 131.5,521.5C 130.167,521.5 128.833,521.5 127.5,521.5C 127.5,520.833 127.5,520.167 127.5,519.5C 127.167,447.998 127.501,376.665 128.5,305.5 Z"/></g>
<g><path style="opacity:1" fill="#e300e3" d="M 177.5,301.5 C 177.833,301.5 178.167,301.5 178.5,301.5C 178.5,302.833 178.5,304.167 178.5,305.5C 163.174,306.797 147.84,306.797 132.5,305.5C 145.99,304.504 159.656,304.171 173.5,304.5C 175.404,304.262 176.738,303.262 177.5,301.5 Z"/></g>
<g><path style="opacity:0.992" fill="#1c001b" d="M 694.5,303.5 C 695.824,319.039 695.824,334.706 694.5,350.5C 550.835,351.5 407.168,351.833 263.5,351.5C 405.666,350.5 547.999,350.167 690.5,350.5C 692.411,350.426 693.578,349.426 694,347.5C 694.5,332.837 694.667,318.17 694.5,303.5 Z"/></g>
<g><path style="opacity:0.996" fill="#430043" d="M 174.5,258.5 C 174.5,272.5 174.5,286.5 174.5,300.5C 174.389,301.117 174.056,301.617 173.5,302C 159.661,302.169 145.994,302.669 132.5,303.5C 131.5,303.833 130.833,304.5 130.5,305.5C 129.335,376.332 129.168,447.332 130,518.5C 130.671,519.252 131.504,519.586 132.5,519.5C 146.167,519.5 159.833,519.5 173.5,519.5C 173.5,519.833 173.5,520.167 173.5,520.5C 158.5,520.5 143.5,520.5 128.5,520.5C 128.5,448.833 128.5,377.167 128.5,305.5C 128.5,304.5 128.5,303.5 128.5,302.5C 143.265,301.849 157.931,301.182 172.5,300.5C 173.451,299.081 173.784,297.415 173.5,295.5C 173.171,282.989 173.505,270.655 174.5,258.5 Z"/></g>
<g><path style="opacity:0.996" fill="#740074" d="M 130.5,305.5 C 130.167,376.002 130.501,446.335 131.5,516.5C 131.5,517.167 131.833,517.5 132.5,517.5C 132.5,517.833 132.5,518.167 132.5,518.5C 132.5,518.833 132.5,519.167 132.5,519.5C 131.504,519.586 130.671,519.252 130,518.5C 129.168,447.332 129.335,376.332 130.5,305.5 Z"/></g>
<g><path style="opacity:0.997" fill="#a400a4" d="M 132.5,303.5 C 146.167,303.5 159.833,303.5 173.5,303.5C 173.5,303.833 173.5,304.167 173.5,304.5C 159.656,304.171 145.99,304.504 132.5,305.5C 131.501,375.665 131.167,445.998 131.5,516.5C 130.501,446.335 130.167,376.002 130.5,305.5C 130.833,304.5 131.5,303.833 132.5,303.5 Z"/></g>
<g><path style="opacity:1" fill="#d100d1" d="M 132.5,305.5 C 132.5,375.833 132.5,446.167 132.5,516.5C 146.167,516.5 159.833,516.5 173.5,516.5C 160.01,517.496 146.344,517.829 132.5,517.5C 131.833,517.5 131.5,517.167 131.5,516.5C 131.167,445.998 131.501,375.665 132.5,305.5 Z"/></g>
<g><path style="opacity:0.996" fill="#5e005e" d="M 690.5,303.5 C 691.496,303.414 692.329,303.748 693,304.5C 693.827,318.673 693.661,332.673 692.5,346.5C 692.829,332.656 692.496,318.99 691.5,305.5C 691.167,304.833 690.833,304.167 690.5,303.5 Z"/></g>
<g><path style="opacity:0.992" fill="#320032" d="M 690.5,303.5 C 690.5,303.167 690.5,302.833 690.5,302.5C 691.959,302.433 693.292,302.766 694.5,303.5C 694.667,318.17 694.5,332.837 694,347.5C 693.578,349.426 692.411,350.426 690.5,350.5C 690.5,350.167 690.5,349.833 690.5,349.5C 691.906,349.027 692.573,348.027 692.5,346.5C 693.661,332.673 693.827,318.673 693,304.5C 692.329,303.748 691.496,303.414 690.5,303.5 Z"/></g>
<g><path style="opacity:0.004" fill="#000000" d="M 918.5,341.5 C 919.833,341.5 921.167,341.5 922.5,341.5C 922.833,344.5 921.5,345.833 918.5,345.5C 918.5,344.167 918.5,342.833 918.5,341.5 Z"/></g>
<g><path style="opacity:1" fill="#db00db" d="M 689.5,346.5 C 547.167,347.167 404.833,347.833 262.5,348.5C 261.5,348.833 260.833,349.5 260.5,350.5C 259.833,362.5 259.167,374.5 258.5,386.5C 244.496,386.333 230.496,386.5 216.5,387C 215.667,387.833 214.833,388.667 214,389.5C 213.831,403.673 213.331,417.673 212.5,431.5C 212.176,416.255 212.509,401.089 213.5,386C 228.496,385.5 243.496,385.333 258.5,385.5C 258.333,373.495 258.5,361.495 259,349.5C 259.833,348.667 260.667,347.833 261.5,347C 404.166,346.5 546.833,346.333 689.5,346.5 Z"/></g>
<g><path style="opacity:0.996" fill="#b300b3" d="M 690.5,306.5 C 690.833,306.5 691.167,306.5 691.5,306.5C 691.823,320.412 691.49,334.246 690.5,348C 547.834,348.5 405.167,348.667 262.5,348.5C 404.833,347.833 547.167,347.167 689.5,346.5C 690.496,333.344 690.829,320.01 690.5,306.5 Z"/></g>
<g><path style="opacity:0.996" fill="#830083" d="M 691.5,305.5 C 692.496,318.99 692.829,332.656 692.5,346.5C 692.573,348.027 691.906,349.027 690.5,349.5C 547.833,349.333 405.166,349.5 262.5,350C 261.512,362.086 261.178,374.253 261.5,386.5C 261.167,386.5 260.833,386.5 260.5,386.5C 260.5,374.5 260.5,362.5 260.5,350.5C 260.833,349.5 261.5,348.833 262.5,348.5C 405.167,348.667 547.834,348.5 690.5,348C 691.49,334.246 691.823,320.412 691.5,306.5C 691.5,306.167 691.5,305.833 691.5,305.5 Z"/></g>
<g><path style="opacity:0.996" fill="#520052" d="M 690.5,349.5 C 690.5,349.833 690.5,350.167 690.5,350.5C 547.999,350.167 405.666,350.5 263.5,351.5C 262.505,362.988 262.172,374.655 262.5,386.5C 262.167,386.5 261.833,386.5 261.5,386.5C 261.178,374.253 261.512,362.086 262.5,350C 405.166,349.5 547.833,349.333 690.5,349.5 Z"/></g>
<g><path style="opacity:0.996" fill="#ab00ab" d="M 260.5,350.5 C 260.5,362.5 260.5,374.5 260.5,386.5C 260.158,387.338 259.492,387.672 258.5,387.5C 258.5,387.167 258.5,386.833 258.5,386.5C 259.167,374.5 259.833,362.5 260.5,350.5 Z"/></g>
<g><path style="opacity:0.996" fill="#412733" d="M 263.5,386.5 C 465.167,386.333 666.834,386.5 868.5,387C 869.381,387.708 870.047,388.542 870.5,389.5C 870.5,404.5 870.5,419.5 870.5,434.5C 870.167,434.5 869.833,434.5 869.5,434.5C 869.667,419.496 869.5,404.496 869,389.5C 868.329,388.748 867.496,388.414 866.5,388.5C 665.5,387.833 464.5,387.167 263.5,386.5 Z"/></g>
<g><path style="opacity:1" fill="#520151" d="M 260.5,386.5 C 260.833,386.5 261.167,386.5 261.5,386.5C 261.567,387.959 261.234,389.292 260.5,390.5C 260.167,390.5 259.833,390.5 259.5,390.5C 245.5,390.5 231.5,390.5 217.5,390.5C 216.833,404.167 216.167,417.833 215.5,431.5C 215.5,417.833 215.5,404.167 215.5,390.5C 215.611,389.883 215.944,389.383 216.5,389C 230.673,388.831 244.673,388.331 258.5,387.5C 259.492,387.672 260.158,387.338 260.5,386.5 Z"/></g>
<g><path style="opacity:1" fill="#c8779f" d="M 866.5,389.5 C 866.5,390.167 866.5,390.833 866.5,391.5C 866.167,391.5 865.833,391.5 865.5,391.5C 664.833,390.167 464.167,390.167 263.5,391.5C 262.833,420.167 262.167,448.833 261.5,477.5C 261.171,448.26 261.505,419.093 262.5,390C 463.833,389.5 665.166,389.333 866.5,389.5 Z"/></g>
<g><path style="opacity:1" fill="#010001" d="M 217.5,390.5 C 231.5,390.5 245.5,390.5 259.5,390.5C 259.831,419.671 259.498,448.671 258.5,477.5C 244.163,477.333 229.829,477.5 215.5,478C 214.177,478.816 213.511,479.983 213.5,481.5C 213.667,493.171 213.5,504.838 213,516.5C 201.581,517.488 190.081,517.821 178.5,517.5C 178.5,490.5 178.5,463.5 178.5,436.5C 190.167,436.5 201.833,436.5 213.5,436.5C 214.833,436.5 216.167,436.5 217.5,436.5C 218.787,423.026 218.787,409.693 217.5,396.5C 217.5,394.5 217.5,392.5 217.5,390.5 Z"/></g>
<g><path style="opacity:1" fill="#fea0d6" d="M 865.5,391.5 C 865.833,391.5 866.167,391.5 866.5,391.5C 866.5,404.833 866.5,418.167 866.5,431.5C 864.833,431.5 863.167,431.5 861.5,431.5C 849.007,430.669 836.34,430.169 823.5,430C 822.167,429 822.167,428 823.5,427C 835.5,426.667 847.5,426.333 859.5,426C 860.486,416.25 860.819,406.416 860.5,396.5C 663.334,395.334 466,395.167 268.5,396C 267.837,423.434 267.171,450.934 266.5,478.5C 265.833,451.003 265.167,423.67 264.5,396.5C 264.5,394.833 264.5,393.167 264.5,391.5C 464.829,392.832 665.163,392.832 865.5,391.5 Z"/></g>
<g><path style="opacity:1" fill="#854f69" d="M 261.5,386.5 C 261.833,386.5 262.167,386.5 262.5,386.5C 262.833,386.5 263.167,386.5 263.5,386.5C 464.5,387.167 665.5,387.833 866.5,388.5C 866.5,388.833 866.5,389.167 866.5,389.5C 665.166,389.333 463.833,389.5 262.5,390C 261.505,419.093 261.171,448.26 261.5,477.5C 261.5,479.5 260.5,480.5 258.5,480.5C 244.833,480.5 231.167,480.5 217.5,480.5C 231.569,479.825 245.735,479.159 260,478.5C 260.5,449.169 260.667,419.835 260.5,390.5C 261.234,389.292 261.567,387.959 261.5,386.5 Z"/></g>
<g><path style="opacity:1" fill="#ff9cd0" d="M 860.5,396.5 C 663.5,396.333 466.5,396.5 269.5,397C 268.17,422.804 268.17,448.637 269.5,474.5C 269.088,476.887 268.088,478.887 266.5,480.5C 265.914,480.291 265.414,479.957 265,479.5C 264.5,451.835 264.333,424.169 264.5,396.5C 265.167,423.67 265.833,451.003 266.5,478.5C 267.171,450.934 267.837,423.434 268.5,396C 466,395.167 663.334,395.334 860.5,396.5 Z"/></g>
<g><path style="opacity:1" fill="#0c000c" d="M 217.5,396.5 C 218.787,409.693 218.787,423.026 217.5,436.5C 216.167,436.5 214.833,436.5 213.5,436.5C 213.5,436.167 213.5,435.833 213.5,435.5C 215.411,435.426 216.578,434.426 217,432.5C 217.5,420.505 217.667,408.505 217.5,396.5 Z"/></g>
<g><path style="opacity:1" fill="#fc96c8" d="M 865.5,391.5 C 665.163,392.832 464.829,392.832 264.5,391.5C 264.5,393.167 264.5,394.833 264.5,396.5C 264.333,424.169 264.5,451.835 265,479.5C 265.414,479.957 265.914,480.291 266.5,480.5C 268.088,478.887 269.088,476.887 269.5,474.5C 268.17,448.637 268.17,422.804 269.5,397C 466.5,396.5 663.5,396.333 860.5,396.5C 860.819,406.416 860.486,416.25 859.5,426C 847.5,426.333 835.5,426.667 823.5,427C 822.167,428 822.167,429 823.5,430C 836.34,430.169 849.007,430.669 861.5,431.5C 848.829,431.333 836.162,431.5 823.5,432C 822.667,432.833 821.833,433.667 821,434.5C 820.5,462.165 820.333,489.831 820.5,517.5C 820.167,517.5 819.833,517.5 819.5,517.5C 819.667,489.831 819.5,462.165 819,434.5C 818,433.167 817,433.167 816,434.5C 815.761,462.756 815.261,490.756 814.5,518.5C 807.352,517.508 800.019,517.175 792.5,517.5C 792.667,489.831 792.5,462.165 792,434.5C 790.89,432.963 789.39,432.297 787.5,432.5C 787.5,461.167 787.5,489.833 787.5,518.5C 788.833,518.5 790.167,518.5 791.5,518.5C 790.081,519.451 788.415,519.784 786.5,519.5C 786.5,490.5 786.5,461.5 786.5,432.5C 769.855,431.21 753.188,431.21 736.5,432.5C 735.509,460.456 735.175,488.456 735.5,516.5C 722.01,517.496 708.344,517.829 694.5,517.5C 694.5,515.5 694.5,513.5 694.5,511.5C 694.833,511.5 695.167,511.5 695.5,511.5C 695.5,512.833 695.5,514.167 695.5,515.5C 708.5,515.5 721.5,515.5 734.5,515.5C 734.667,488.165 734.5,460.831 734,433.5C 732.286,432.075 730.953,432.408 730,434.5C 729.5,459.831 729.333,485.164 729.5,510.5C 719.917,510.818 710.417,510.485 701,509.5C 700.667,484.167 700.333,458.833 700,433.5C 698.184,432.257 696.684,432.59 695.5,434.5C 694.365,432.787 692.698,432.12 690.5,432.5C 677.431,431.17 664.265,431.17 651,432.5C 650.5,460.498 650.333,488.498 650.5,516.5C 637.344,517.496 624.01,517.829 610.5,517.5C 609.833,517.5 609.5,517.167 609.5,516.5C 609.5,514.833 609.5,513.167 609.5,511.5C 609.833,511.5 610.167,511.5 610.5,511.5C 610.5,512.833 610.5,514.167 610.5,515.5C 623.5,515.5 636.5,515.5 649.5,515.5C 649.667,488.165 649.5,460.831 649,433.5C 647.286,432.075 645.953,432.408 645,434.5C 644.5,459.831 644.333,485.164 644.5,510.5C 634.917,510.818 625.417,510.485 616,509.5C 615.667,484.167 615.333,458.833 615,433.5C 613.184,432.257 611.684,432.59 610.5,434.5C 610.027,433.094 609.027,432.427 607.5,432.5C 592.339,431.339 577.006,431.172 561.5,432C 560.956,432.717 560.289,433.217 559.5,433.5C 558.833,433.5 558.5,433.833 558.5,434.5C 557.527,433.016 556.193,432.516 554.5,433C 553.606,435.068 552.94,437.235 552.5,439.5C 553.647,462.809 553.813,486.143 553,509.5C 542.91,510.321 532.744,510.821 522.5,511C 520.606,512.079 520.273,513.413 521.5,515C 533.829,515.5 546.162,515.667 558.5,515.5C 546.674,516.331 534.674,516.831 522.5,517C 521.667,517.833 520.833,518.667 520,519.5C 519.5,546.831 519.333,574.165 519.5,601.5C 518.502,573.672 518.169,545.672 518.5,517.5C 516.089,517.137 514.589,518.137 514,520.5C 513.5,547.831 513.333,575.165 513.5,602.5C 501.162,602.333 488.829,602.5 476.5,603C 474.069,604.432 474.069,605.932 476.5,607.5C 475.147,608.526 474.147,609.859 473.5,611.5C 472.316,609.59 470.816,609.257 469,610.5C 468.333,623.833 468.333,637.167 469,650.5C 470.816,651.743 472.316,651.41 473.5,649.5C 474.344,651.759 476.011,652.759 478.5,652.5C 493.17,652.667 507.837,652.5 522.5,652C 523,651.5 523.5,651 524,650.5C 524.5,639.839 524.667,629.172 524.5,618.5C 525.188,629.038 525.855,639.705 526.5,650.5C 527.651,651.731 528.817,651.731 530,650.5C 530.333,640.5 530.667,630.5 531,620.5C 538.333,619.167 545.667,619.167 553,620.5C 553.753,628.359 553.586,636.192 552.5,644C 552.921,646.185 553.421,648.351 554,650.5C 555.714,651.925 557.047,651.592 558,649.5C 558.5,637.505 558.667,625.505 558.5,613.5C 559.495,624.988 559.828,636.655 559.5,648.5C 559.511,650.017 560.177,651.184 561.5,652C 576.833,652.667 592.167,652.667 607.5,652C 608.044,651.283 608.711,650.783 609.5,650.5C 610.167,650.5 610.5,650.167 610.5,649.5C 611.684,651.41 613.184,651.743 615,650.5C 615.179,640.256 615.679,630.09 616.5,620C 625.827,619.5 635.161,619.334 644.5,619.5C 644.334,629.506 644.5,639.506 645,649.5C 646.049,651.107 647.549,651.773 649.5,651.5C 649.5,638.833 649.5,626.167 649.5,613.5C 649.833,613.5 650.167,613.5 650.5,613.5C 650.333,625.838 650.5,638.171 651,650.5C 651.5,651 652,651.5 652.5,652C 665.34,652.827 678.007,652.66 690.5,651.5C 690.833,651.5 691.167,651.5 691.5,651.5C 692.496,651.586 693.329,651.252 694,650.5C 694.5,639.839 694.667,629.172 694.5,618.5C 695.33,628.659 695.83,638.992 696,649.5C 696.953,651.592 698.286,651.925 700,650.5C 700.179,640.256 700.679,630.09 701.5,620C 714.199,619.776 726.865,619.276 739.5,618.5C 739.5,617.167 739.5,615.833 739.5,614.5C 726.656,614.829 713.989,614.495 701.5,613.5C 714.171,613.667 726.838,613.5 739.5,613C 740.337,611.989 740.67,610.822 740.5,609.5C 740.5,580.167 740.5,550.833 740.5,521.5C 754.677,521.171 768.677,521.504 782.5,522.5C 768.833,522.5 755.167,522.5 741.5,522.5C 741.333,552.169 741.5,581.835 742,611.5C 743.587,612.727 744.921,612.394 746,610.5C 746.333,583.167 746.667,555.833 747,528.5C 758.772,527.843 770.605,527.176 782.5,526.5C 783.246,525.264 783.579,523.93 783.5,522.5C 783.255,534.203 783.588,546.037 784.5,558C 783.624,559.586 782.624,561.086 781.5,562.5C 781.957,563.298 782.624,563.631 783.5,563.5C 783.5,563.833 783.5,564.167 783.5,564.5C 782.778,564.918 782.278,565.584 782,566.5C 781.5,593.498 781.333,620.498 781.5,647.5C 766.83,647.333 752.163,647.5 737.5,648C 737,648.5 736.5,649 736,649.5C 735.5,664.163 735.333,678.83 735.5,693.5C 534.833,693.5 334.167,693.5 133.5,693.5C 133.5,693.167 133.5,692.833 133.5,692.5C 333.833,692.5 534.167,692.5 734.5,692.5C 734.5,690.833 734.5,689.167 734.5,687.5C 734.667,675.162 734.5,662.829 734,650.5C 733.586,650.043 733.086,649.709 732.5,649.5C 730.912,651.113 729.912,653.113 729.5,655.5C 730.824,666.03 730.824,676.53 729.5,687C 532.834,687.5 336.167,687.667 139.5,687.5C 138.337,665.004 138.17,642.337 139,619.5C 151.091,618.677 163.258,618.177 175.5,618C 176.337,616.989 176.67,615.822 176.5,614.5C 163.323,614.829 150.323,614.495 137.5,613.5C 151.167,613.5 164.833,613.5 178.5,613.5C 178.5,582.833 178.5,552.167 178.5,521.5C 190.934,521.96 203.267,521.46 215.5,520C 216,519.5 216.5,519 217,518.5C 217.5,506.505 217.667,494.505 217.5,482.5C 218.167,482.5 218.833,482.5 219.5,482.5C 219.389,494.722 219.389,507.055 219.5,519.5C 221.124,519.64 222.29,518.973 223,517.5C 223.18,507.59 223.68,497.756 224.5,488C 236.5,487.667 248.5,487.333 260.5,487C 261.833,486 261.833,485 260.5,484C 247.66,483.831 234.993,483.331 222.5,482.5C 235.171,482.667 247.838,482.5 260.5,482C 261.701,481.097 262.535,479.931 263,478.5C 263.5,449.502 263.667,420.502 263.5,391.5C 464.167,390.167 664.833,390.167 865.5,391.5 Z"/></g>
<g><path style="opacity:0.996" fill="#7b4760" d="M 866.5,389.5 C 866.5,389.167 866.5,388.833 866.5,388.5C 867.496,388.414 868.329,388.748 869,389.5C 869.5,404.496 869.667,419.496 869.5,434.5C 854.833,434.5 840.167,434.5 825.5,434.5C 839.569,433.825 853.735,433.159 868,432.5C 868.667,418.5 868.667,404.5 868,390.5C 867.617,389.944 867.117,389.611 866.5,389.5 Z"/></g>
<g><path style="opacity:1" fill="#ae00ae" d="M 258.5,386.5 C 258.5,386.833 258.5,387.167 258.5,387.5C 244.673,388.331 230.673,388.831 216.5,389C 215.944,389.383 215.611,389.883 215.5,390.5C 214.669,404.327 214.169,418.327 214,432.5C 201.909,433.323 189.742,433.823 177.5,434C 176.619,434.708 175.953,435.542 175.5,436.5C 175.167,436.5 174.833,436.5 174.5,436.5C 174.511,434.983 175.177,433.816 176.5,433C 188.674,432.831 200.674,432.331 212.5,431.5C 213.331,417.673 213.831,403.673 214,389.5C 214.833,388.667 215.667,387.833 216.5,387C 230.496,386.5 244.496,386.333 258.5,386.5 Z"/></g>
<g><path style="opacity:1" fill="#2c002c" d="M 217.5,390.5 C 217.5,392.5 217.5,394.5 217.5,396.5C 217.667,408.505 217.5,420.505 217,432.5C 216.578,434.426 215.411,435.426 213.5,435.5C 213.5,435.167 213.5,434.833 213.5,434.5C 214.906,434.027 215.573,433.027 215.5,431.5C 216.167,417.833 216.833,404.167 217.5,390.5 Z"/></g>
<g><path style="opacity:1" fill="#523141" d="M 259.5,390.5 C 259.833,390.5 260.167,390.5 260.5,390.5C 260.667,419.835 260.5,449.169 260,478.5C 245.735,479.159 231.569,479.825 217.5,480.5C 216.5,480.833 215.833,481.5 215.5,482.5C 215.167,482.5 214.833,482.5 214.5,482.5C 214.5,482.167 214.5,481.833 214.5,481.5C 214.953,480.542 215.619,479.708 216.5,479C 230.673,478.831 244.673,478.331 258.5,477.5C 259.498,448.671 259.831,419.671 259.5,390.5 Z"/></g>
<g><path style="opacity:1" fill="#da82ad" d="M 263.5,391.5 C 263.667,420.502 263.5,449.502 263,478.5C 262.535,479.931 261.701,481.097 260.5,482C 247.838,482.5 235.171,482.667 222.5,482.5C 221.5,482.5 220.5,482.5 219.5,482.5C 218.833,482.5 218.167,482.5 217.5,482.5C 231.167,481.833 244.833,481.167 258.5,480.5C 260.5,480.5 261.5,479.5 261.5,477.5C 262.167,448.833 262.833,420.167 263.5,391.5 Z"/></g>
<g><path style="opacity:1" fill="#ff91c9" d="M 561.5,425.5 C 576.504,425.333 591.504,425.5 606.5,426C 607.833,426.667 608.833,427.667 609.5,429C 593.318,430.65 576.985,430.983 560.5,430C 559.419,428.289 559.752,426.789 561.5,425.5 Z"/></g>
<g><path style="opacity:1" fill="#ff91c9" d="M 653.5,425.5 C 666.171,425.333 678.838,425.5 691.5,426C 693.107,427.049 693.773,428.549 693.5,430.5C 679.829,430.667 666.163,430.5 652.5,430C 651.257,428.184 651.59,426.684 653.5,425.5 Z"/></g>
<g><path style="opacity:1" fill="#ff91c9" d="M 738.5,425.5 C 753.504,425.333 768.504,425.5 783.5,426C 785.394,427.079 785.727,428.413 784.5,430C 768.503,430.5 752.503,430.667 736.5,430.5C 736.365,428.446 737.032,426.779 738.5,425.5 Z"/></g>
<g><path style="opacity:1" fill="#e4a7c8" d="M 607.5,432.5 C 607.5,432.833 607.5,433.167 607.5,433.5C 606.833,433.5 606.167,433.5 605.5,433.5C 591.339,432.339 577.006,432.173 562.5,433C 561.177,433.816 560.511,434.983 560.5,436.5C 560.831,463.339 560.498,490.005 559.5,516.5C 559.5,488.833 559.5,461.167 559.5,433.5C 560.289,433.217 560.956,432.717 561.5,432C 577.006,431.172 592.339,431.339 607.5,432.5 Z"/></g>
<g><path style="opacity:1" fill="#ff91c9" d="M 558.5,434.5 C 558.5,461.5 558.5,488.5 558.5,515.5C 546.162,515.667 533.829,515.5 521.5,515C 520.273,513.413 520.606,512.079 522.5,511C 532.744,510.821 542.91,510.321 553,509.5C 553.813,486.143 553.647,462.809 552.5,439.5C 552.94,437.235 553.606,435.068 554.5,433C 556.193,432.516 557.527,433.016 558.5,434.5 Z"/></g>
<g><path style="opacity:1" fill="#cfb5c9" d="M 605.5,433.5 C 591.496,433.333 577.496,433.5 563.5,434C 562.619,434.708 561.953,435.542 561.5,436.5C 561.167,436.5 560.833,436.5 560.5,436.5C 560.511,434.983 561.177,433.816 562.5,433C 577.006,432.173 591.339,432.339 605.5,433.5 Z"/></g>
<g><path style="opacity:1" fill="#ff91c9" d="M 610.5,511.5 C 610.5,485.833 610.5,460.167 610.5,434.5C 611.684,432.59 613.184,432.257 615,433.5C 615.333,458.833 615.667,484.167 616,509.5C 625.417,510.485 634.917,510.818 644.5,510.5C 644.333,485.164 644.5,459.831 645,434.5C 645.953,432.408 647.286,432.075 649,433.5C 649.5,460.831 649.667,488.165 649.5,515.5C 636.5,515.5 623.5,515.5 610.5,515.5C 610.5,514.167 610.5,512.833 610.5,511.5 Z"/></g>
<g><path style="opacity:1" fill="#ff91c9" d="M 695.5,511.5 C 695.5,485.833 695.5,460.167 695.5,434.5C 696.684,432.59 698.184,432.257 700,433.5C 700.333,458.833 700.667,484.167 701,509.5C 710.417,510.485 719.917,510.818 729.5,510.5C 729.333,485.164 729.5,459.831 730,434.5C 730.953,432.408 732.286,432.075 734,433.5C 734.5,460.831 734.667,488.165 734.5,515.5C 721.5,515.5 708.5,515.5 695.5,515.5C 695.5,514.167 695.5,512.833 695.5,511.5 Z"/></g>
<g><path style="opacity:1" fill="#fe91c8" d="M 792.5,517.5 C 791.833,517.5 791.5,517.833 791.5,518.5C 790.167,518.5 788.833,518.5 787.5,518.5C 787.5,489.833 787.5,461.167 787.5,432.5C 789.39,432.297 790.89,432.963 792,434.5C 792.5,462.165 792.667,489.831 792.5,517.5 Z"/></g>
<g><path style="opacity:1" fill="#95dbca" d="M 564.5,435.5 C 577.99,434.504 591.656,434.171 605.5,434.5C 605.5,435.167 605.5,435.833 605.5,436.5C 605.167,436.5 604.833,436.5 604.5,436.5C 591.344,435.504 578.01,435.171 564.5,435.5 Z"/></g>
<g><path style="opacity:1" fill="#ef00f0" d="M 175.5,431.5 C 175.217,432.289 174.717,432.956 174,433.5C 173.5,459.498 173.333,485.498 173.5,511.5C 172.337,485.337 172.17,459.003 173,432.5C 173.671,431.748 174.504,431.414 175.5,431.5 Z"/></g>
<g><path style="opacity:1" fill="#fea0d5" d="M 819.5,517.5 C 819.5,517.833 819.5,518.167 819.5,518.5C 818.528,520.493 817.195,520.826 815.5,519.5C 814.833,519.5 814.5,519.167 814.5,518.5C 815.261,490.756 815.761,462.756 816,434.5C 817,433.167 818,433.167 819,434.5C 819.5,462.165 819.667,489.831 819.5,517.5 Z"/></g>
<g><path style="opacity:0.988" fill="#341723" d="M 869.5,434.5 C 869.833,434.5 870.167,434.5 870.5,434.5C 855.871,436.484 840.871,437.15 825.5,436.5C 840.167,435.833 854.833,435.167 869.5,434.5 Z"/></g>
<g><path style="opacity:1" fill="#deabc9" d="M 605.5,434.5 C 605.5,434.167 605.5,433.833 605.5,433.5C 606.167,433.5 606.833,433.5 607.5,433.5C 608.117,433.611 608.617,433.944 609,434.5C 609.5,460.165 609.667,485.831 609.5,511.5C 609.5,513.167 609.5,514.833 609.5,516.5C 608.833,489.5 608.167,462.5 607.5,435.5C 606.833,435.167 606.167,434.833 605.5,434.5 Z"/></g>
<g><path style="opacity:1" fill="#d3b2c8" d="M 781.5,434.5 C 781.5,434.167 781.5,433.833 781.5,433.5C 782.822,433.33 783.989,433.663 785,434.5C 785.5,462.831 785.667,491.165 785.5,519.5C 784.609,520.11 783.609,520.443 782.5,520.5C 782.5,520.167 782.5,519.833 782.5,519.5C 783.117,519.389 783.617,519.056 784,518.5C 784.667,490.833 784.667,463.167 784,435.5C 783.329,434.748 782.496,434.414 781.5,434.5 Z"/></g>
<g><path style="opacity:0.945" fill="#17080e" d="M 870.5,389.5 C 871.496,405.325 871.83,421.325 871.5,437.5C 871.5,437.833 871.5,438.167 871.5,438.5C 856.578,437.517 841.578,437.184 826.5,437.5C 826.829,451.01 826.496,464.344 825.5,477.5C 825.5,463.833 825.5,450.167 825.5,436.5C 840.871,437.15 855.871,436.484 870.5,434.5C 870.5,419.5 870.5,404.5 870.5,389.5 Z"/></g>
<g><path style="opacity:1" fill="#f49dc8" d="M 690.5,433.5 C 690.5,433.167 690.5,432.833 690.5,432.5C 692.698,432.12 694.365,432.787 695.5,434.5C 695.5,460.167 695.5,485.833 695.5,511.5C 695.167,511.5 694.833,511.5 694.5,511.5C 694.831,486.328 694.498,461.328 693.5,436.5C 693.5,435.5 693.5,434.5 693.5,433.5C 692.5,433.5 691.5,433.5 690.5,433.5 Z"/></g>
<g><path style="opacity:0.998" fill="#b66b90" d="M 866.5,389.5 C 867.117,389.611 867.617,389.944 868,390.5C 868.667,404.5 868.667,418.5 868,432.5C 853.735,433.159 839.569,433.825 825.5,434.5C 824.5,434.833 823.833,435.5 823.5,436.5C 822.502,462.995 822.169,489.661 822.5,516.5C 822.167,516.5 821.833,516.5 821.5,516.5C 821.333,489.498 821.5,462.498 822,435.5C 822.833,434.667 823.667,433.833 824.5,433C 838.673,432.831 852.673,432.331 866.5,431.5C 866.5,418.167 866.5,404.833 866.5,391.5C 866.5,390.833 866.5,390.167 866.5,389.5 Z"/></g>
<g><path style="opacity:0.004" fill="#000000" d="M 918.5,437.5 C 922.961,438.048 923.461,439.715 920,442.5C 918.731,441.095 918.231,439.429 918.5,437.5 Z"/></g>
<g><path style="opacity:1" fill="#5efdca" d="M 689.5,436.5 C 689.5,463.167 689.5,489.833 689.5,516.5C 678.5,516.5 667.5,516.5 656.5,516.5C 655.502,490.005 655.169,463.339 655.5,436.5C 666.833,435.167 678.167,435.167 689.5,436.5 Z"/></g>
<g><path style="opacity:1" fill="#aa00ab" d="M 174.5,436.5 C 174.833,436.5 175.167,436.5 175.5,436.5C 175.667,463.502 175.5,490.502 175,517.5C 160.912,518.49 146.745,518.824 132.5,518.5C 132.5,518.167 132.5,517.833 132.5,517.5C 146.344,517.829 160.01,517.496 173.5,516.5C 174.498,490.005 174.831,463.339 174.5,436.5 Z"/></g>
<g><path style="opacity:1" fill="#e9a3c8" d="M 690.5,432.5 C 678.495,432.333 666.495,432.5 654.5,433C 653.667,433.833 652.833,434.667 652,435.5C 651.832,462.67 651.332,489.67 650.5,516.5C 650.333,488.498 650.5,460.498 651,432.5C 664.265,431.17 677.431,431.17 690.5,432.5 Z"/></g>
<g><path style="opacity:1" fill="#b3c8c9" d="M 653.5,436.5 C 652.842,464.187 653.509,491.52 655.5,518.5C 655.5,518.833 655.5,519.167 655.5,519.5C 654.883,519.611 654.383,519.944 654,520.5C 653.17,550.003 653.336,579.336 654.5,608.5C 654.5,609.167 654.833,609.5 655.5,609.5C 655.5,609.833 655.5,610.167 655.5,610.5C 654.508,610.328 653.842,610.662 653.5,611.5C 653.5,623.5 653.5,635.5 653.5,647.5C 653.167,647.5 652.833,647.5 652.5,647.5C 652.828,635.322 652.495,623.322 651.5,611.5C 651.5,611.167 651.5,610.833 651.5,610.5C 651.833,609.833 652.167,609.167 652.5,608.5C 652.5,578.833 652.5,549.167 652.5,519.5C 638.167,519.5 623.833,519.5 609.5,519.5C 608.508,519.328 607.842,519.662 607.5,520.5C 607.167,520.5 606.833,520.5 606.5,520.5C 599.076,519.849 591.576,519.516 584,519.5C 576.467,519.503 569.301,520.169 562.5,521.5C 562.5,550.833 562.5,580.167 562.5,609.5C 561.833,609.5 561.5,609.167 561.5,608.5C 561.5,578.833 561.5,549.167 561.5,519.5C 549.167,519.5 536.833,519.5 524.5,519.5C 535.654,518.505 546.988,518.172 558.5,518.5C 559.609,518.443 560.609,518.11 561.5,517.5C 561.842,518.338 562.508,518.672 563.5,518.5C 577.167,518.5 590.833,518.5 604.5,518.5C 605.791,518.737 606.791,518.404 607.5,517.5C 608.391,518.11 609.391,518.443 610.5,518.5C 624.412,518.823 638.246,518.49 652,517.5C 652.168,490.33 652.668,463.33 653.5,436.5 Z"/></g>
<g><path style="opacity:1" fill="#a8cec9" d="M 690.5,434.5 C 691.117,434.611 691.617,434.944 692,435.5C 692.5,462.498 692.667,489.498 692.5,516.5C 692.218,517.778 691.551,518.778 690.5,519.5C 678.833,519.5 667.167,519.5 655.5,519.5C 655.5,519.167 655.5,518.833 655.5,518.5C 667.012,518.828 678.346,518.495 689.5,517.5C 690.117,517.389 690.617,517.056 691,516.5C 691.83,489.664 691.664,462.997 690.5,436.5C 690.5,435.833 690.5,435.167 690.5,434.5 Z"/></g>
<g><path style="opacity:1" fill="#c1bec9" d="M 655.5,434.5 C 666.988,433.505 678.655,433.172 690.5,433.5C 691.5,433.5 692.5,433.5 693.5,433.5C 693.5,434.5 693.5,435.5 693.5,436.5C 693.5,463.167 693.5,489.833 693.5,516.5C 693.167,516.5 692.833,516.5 692.5,516.5C 692.667,489.498 692.5,462.498 692,435.5C 691.617,434.944 691.117,434.611 690.5,434.5C 678.833,434.5 667.167,434.5 655.5,434.5 Z"/></g>
<g><path style="opacity:1" fill="#b1c8c9" d="M 781.5,435.5 C 781.5,435.167 781.5,434.833 781.5,434.5C 782.496,434.414 783.329,434.748 784,435.5C 784.667,463.167 784.667,490.833 784,518.5C 783.617,519.056 783.117,519.389 782.5,519.5C 767.921,519.176 753.421,519.51 739,520.5C 738.5,549.831 738.333,579.165 738.5,608.5C 738.167,608.5 737.833,608.5 737.5,608.5C 737.5,578.833 737.5,549.167 737.5,519.5C 722.324,519.171 707.324,519.504 692.5,520.5C 692.167,520.5 691.833,520.5 691.5,520.5C 691.167,520.5 690.833,520.5 690.5,520.5C 690.5,520.167 690.5,519.833 690.5,519.5C 691.551,518.778 692.218,517.778 692.5,516.5C 692.833,516.5 693.167,516.5 693.5,516.5C 700.301,517.831 707.467,518.497 715,518.5C 722.41,518.492 729.743,518.159 737,517.5C 737.168,490.33 737.668,463.33 738.5,436.5C 738.5,463.833 738.5,491.167 738.5,518.5C 753.01,518.829 767.343,518.496 781.5,517.5C 782.167,517.5 782.5,517.167 782.5,516.5C 783.664,490.003 783.83,463.336 783,436.5C 782.617,435.944 782.117,435.611 781.5,435.5 Z"/></g>
<g><path style="opacity:1" fill="#d300d4" d="M 175.5,431.5 C 187.833,431.5 200.167,431.5 212.5,431.5C 200.674,432.331 188.674,432.831 176.5,433C 175.177,433.816 174.511,434.983 174.5,436.5C 174.831,463.339 174.498,490.005 173.5,516.5C 173.5,514.833 173.5,513.167 173.5,511.5C 173.333,485.498 173.5,459.498 174,433.5C 174.717,432.956 175.217,432.289 175.5,431.5 Z"/></g>
<g><path style="opacity:1" fill="#8ae3ca" d="M 563.5,436.5 C 563.169,463.339 563.502,490.005 564.5,516.5C 577.656,517.496 590.99,517.829 604.5,517.5C 604.5,517.833 604.5,518.167 604.5,518.5C 590.833,518.5 577.167,518.5 563.5,518.5C 562.172,491.069 562.172,463.736 563.5,436.5 Z"/></g>
<g><path style="opacity:1" fill="#a6d0c9" d="M 605.5,434.5 C 606.167,434.833 606.833,435.167 607.5,435.5C 607.5,462.833 607.5,490.167 607.5,517.5C 606.791,518.404 605.791,518.737 604.5,518.5C 604.5,518.167 604.5,517.833 604.5,517.5C 605.117,517.389 605.617,517.056 606,516.5C 606.83,489.664 606.664,462.997 605.5,436.5C 605.5,435.833 605.5,435.167 605.5,434.5 Z"/></g>
<g><path style="opacity:1" fill="#c4bcc9" d="M 607.5,435.5 C 608.167,462.5 608.833,489.5 609.5,516.5C 609.5,517.167 609.833,517.5 610.5,517.5C 610.5,517.833 610.5,518.167 610.5,518.5C 609.391,518.443 608.391,518.11 607.5,517.5C 607.5,490.167 607.5,462.833 607.5,435.5 Z"/></g>
<g><path style="opacity:1" fill="#f49cc8" d="M 607.5,433.5 C 607.5,433.167 607.5,432.833 607.5,432.5C 609.027,432.427 610.027,433.094 610.5,434.5C 610.5,460.167 610.5,485.833 610.5,511.5C 610.167,511.5 609.833,511.5 609.5,511.5C 609.667,485.831 609.5,460.165 609,434.5C 608.617,433.944 608.117,433.611 607.5,433.5 Z"/></g>
<g><path style="opacity:1" fill="#db81ad" d="M 861.5,431.5 C 863.167,431.5 864.833,431.5 866.5,431.5C 852.673,432.331 838.673,432.831 824.5,433C 823.667,433.833 822.833,434.667 822,435.5C 821.5,462.498 821.333,489.498 821.5,516.5C 821.5,517.833 821.5,519.167 821.5,520.5C 820.596,519.791 820.263,518.791 820.5,517.5C 820.333,489.831 820.5,462.165 821,434.5C 821.833,433.667 822.667,432.833 823.5,432C 836.162,431.5 848.829,431.333 861.5,431.5 Z"/></g>
<g><path style="opacity:1" fill="#7e007e" d="M 215.5,390.5 C 215.5,404.167 215.5,417.833 215.5,431.5C 215.573,433.027 214.906,434.027 213.5,434.5C 201.829,434.333 190.162,434.5 178.5,435C 178,435.5 177.5,436 177,436.5C 176.5,463.165 176.333,489.831 176.5,516.5C 176.5,518.5 175.5,519.5 173.5,519.5C 159.833,519.5 146.167,519.5 132.5,519.5C 132.5,519.167 132.5,518.833 132.5,518.5C 146.745,518.824 160.912,518.49 175,517.5C 175.5,490.502 175.667,463.502 175.5,436.5C 175.953,435.542 176.619,434.708 177.5,434C 189.742,433.823 201.909,433.323 214,432.5C 214.169,418.327 214.669,404.327 215.5,390.5 Z"/></g>
<g><path style="opacity:1" fill="#a8cec9" d="M 605.5,433.5 C 605.5,433.833 605.5,434.167 605.5,434.5C 591.656,434.171 577.99,434.504 564.5,435.5C 563.833,435.5 563.5,435.833 563.5,436.5C 562.172,463.736 562.172,491.069 563.5,518.5C 562.508,518.672 561.842,518.338 561.5,517.5C 561.5,490.5 561.5,463.5 561.5,436.5C 561.953,435.542 562.619,434.708 563.5,434C 577.496,433.5 591.496,433.333 605.5,433.5 Z"/></g>
<g><path style="opacity:1" fill="#7bedca" d="M 604.5,436.5 C 604.833,436.5 605.167,436.5 605.5,436.5C 606.664,462.997 606.83,489.664 606,516.5C 605.617,517.056 605.117,517.389 604.5,517.5C 590.99,517.829 577.656,517.496 564.5,516.5C 577.833,516.5 591.167,516.5 604.5,516.5C 604.5,489.833 604.5,463.167 604.5,436.5 Z"/></g>
<g><path style="opacity:1" fill="#d0b5c9" d="M 690.5,432.5 C 690.5,432.833 690.5,433.167 690.5,433.5C 678.655,433.172 666.988,433.505 655.5,434.5C 654.5,434.833 653.833,435.5 653.5,436.5C 652.668,463.33 652.168,490.33 652,517.5C 638.246,518.49 624.412,518.823 610.5,518.5C 610.5,518.167 610.5,517.833 610.5,517.5C 624.01,517.829 637.344,517.496 650.5,516.5C 651.332,489.67 651.832,462.67 652,435.5C 652.833,434.667 653.667,433.833 654.5,433C 666.495,432.5 678.495,432.333 690.5,432.5 Z"/></g>
<g><path style="opacity:1" fill="#95dbc9" d="M 655.5,434.5 C 667.167,434.5 678.833,434.5 690.5,434.5C 690.5,435.167 690.5,435.833 690.5,436.5C 690.167,436.5 689.833,436.5 689.5,436.5C 678.167,435.167 666.833,435.167 655.5,436.5C 654.833,449.829 654.5,463.329 654.5,477C 654.501,490.85 655.167,504.35 656.5,517.5C 667.5,517.5 678.5,517.5 689.5,517.5C 678.346,518.495 667.012,518.828 655.5,518.5C 653.509,491.52 652.842,464.187 653.5,436.5C 653.833,435.5 654.5,434.833 655.5,434.5 Z"/></g>
<g><path style="opacity:1" fill="#64fcca" d="M 662.5,442.5 C 669.422,442.188 676.256,442.521 683,443.5C 683.5,465.831 683.667,488.164 683.5,510.5C 676.245,510.813 669.079,510.48 662,509.5C 661.178,487.094 661.345,464.761 662.5,442.5 Z"/></g>
<g><path style="opacity:1" fill="#7cedca" d="M 689.5,436.5 C 689.833,436.5 690.167,436.5 690.5,436.5C 691.664,462.997 691.83,489.664 691,516.5C 690.617,517.056 690.117,517.389 689.5,517.5C 678.5,517.5 667.5,517.5 656.5,517.5C 656.5,517.167 656.5,516.833 656.5,516.5C 667.5,516.5 678.5,516.5 689.5,516.5C 689.5,489.833 689.5,463.167 689.5,436.5 Z"/></g>
<g><path style="opacity:1" fill="#e9a4c8" d="M 786.5,519.5 C 786.167,519.5 785.833,519.5 785.5,519.5C 785.667,491.165 785.5,462.831 785,434.5C 783.989,433.663 782.822,433.33 781.5,433.5C 767.673,432.339 753.673,432.173 739.5,433C 738.667,433.833 737.833,434.667 737,435.5C 736.832,462.67 736.332,489.67 735.5,516.5C 735.175,488.456 735.509,460.456 736.5,432.5C 753.188,431.21 769.855,431.21 786.5,432.5C 786.5,461.5 786.5,490.5 786.5,519.5 Z"/></g>
<g><path style="opacity:1" fill="#5efeca" d="M 740.5,436.5 C 754.246,436.185 767.912,436.519 781.5,437.5C 781.5,463.833 781.5,490.167 781.5,516.5C 767.833,516.5 754.167,516.5 740.5,516.5C 740.5,489.833 740.5,463.167 740.5,436.5 Z"/></g>
<g><path style="opacity:1" fill="#7cedca" d="M 740.5,436.5 C 753.99,435.504 767.656,435.171 781.5,435.5C 781.5,436.167 781.5,436.833 781.5,437.5C 767.912,436.519 754.246,436.185 740.5,436.5 Z"/></g>
<g><path style="opacity:1" fill="#99d9ca" d="M 781.5,435.5 C 782.117,435.611 782.617,435.944 783,436.5C 783.83,463.336 783.664,490.003 782.5,516.5C 782.831,489.995 782.498,463.661 781.5,437.5C 781.5,436.833 781.5,436.167 781.5,435.5 Z"/></g>
<g><path style="opacity:0.922" fill="#0d0003" d="M 871.5,441.5 C 871.5,442.167 871.5,442.833 871.5,443.5C 871.5,455.833 871.5,468.167 871.5,480.5C 858.579,480.54 845.579,480.373 832.5,480C 831.874,479.25 831.374,478.416 831,477.5C 830.333,466.167 830.333,454.833 831,443.5C 831.689,442.643 832.522,441.977 833.5,441.5C 846.43,441.606 859.096,441.606 871.5,441.5 Z"/></g>
<g><path style="opacity:1" fill="#3b023b" d="M 213.5,434.5 C 213.5,434.833 213.5,435.167 213.5,435.5C 213.5,435.833 213.5,436.167 213.5,436.5C 201.833,436.5 190.167,436.5 178.5,436.5C 178.5,463.5 178.5,490.5 178.5,517.5C 178.167,517.5 177.833,517.5 177.5,517.5C 177.5,516.833 177.167,516.5 176.5,516.5C 176.333,489.831 176.5,463.165 177,436.5C 177.5,436 178,435.5 178.5,435C 190.162,434.5 201.829,434.333 213.5,434.5 Z"/></g>
<g><path style="opacity:1" fill="#c2bdc9" d="M 560.5,436.5 C 560.833,436.5 561.167,436.5 561.5,436.5C 561.5,463.5 561.5,490.5 561.5,517.5C 560.609,518.11 559.609,518.443 558.5,518.5C 558.5,518.167 558.5,517.833 558.5,517.5C 559.167,517.5 559.5,517.167 559.5,516.5C 560.498,490.005 560.831,463.339 560.5,436.5 Z"/></g>
<g><path style="opacity:1" fill="#74f1ca" d="M 564.5,435.5 C 578.01,435.171 591.344,435.504 604.5,436.5C 591.167,436.5 577.833,436.5 564.5,436.5C 564.5,463.167 564.5,489.833 564.5,516.5C 563.502,490.005 563.169,463.339 563.5,436.5C 563.5,435.833 563.833,435.5 564.5,435.5 Z"/></g>
<g><path style="opacity:1" fill="#63fcca" d="M 604.5,436.5 C 604.5,463.167 604.5,489.833 604.5,516.5C 591.167,516.5 577.833,516.5 564.5,516.5C 564.5,489.833 564.5,463.167 564.5,436.5C 577.833,436.5 591.167,436.5 604.5,436.5 Z"/></g>
<g><path style="opacity:1" fill="#5bfec9" d="M 565.5,437.5 C 578.167,437.5 590.833,437.5 603.5,437.5C 603.5,463.5 603.5,489.5 603.5,515.5C 590.833,515.5 578.167,515.5 565.5,515.5C 565.5,489.5 565.5,463.5 565.5,437.5 Z"/></g>
<g><path style="opacity:1" fill="#64fcca" d="M 571.5,442.5 C 580.418,442.183 589.251,442.516 598,443.5C 598.5,465.831 598.667,488.164 598.5,510.5C 589.167,510.5 579.833,510.5 570.5,510.5C 570.178,487.758 570.511,465.092 571.5,442.5 Z"/></g>
<g><path style="opacity:1" fill="#7cecca" d="M 655.5,436.5 C 655.169,463.339 655.502,490.005 656.5,516.5C 656.5,516.833 656.5,517.167 656.5,517.5C 655.167,504.35 654.501,490.85 654.5,477C 654.5,463.329 654.833,449.829 655.5,436.5 Z"/></g>
<g><path style="opacity:1" fill="#cfb5c9" d="M 781.5,433.5 C 781.5,433.833 781.5,434.167 781.5,434.5C 767.496,434.333 753.496,434.5 739.5,435C 738.944,435.383 738.611,435.883 738.5,436.5C 737.668,463.33 737.168,490.33 737,517.5C 729.743,518.159 722.41,518.492 715,518.5C 707.467,518.497 700.301,517.831 693.5,516.5C 693.5,489.833 693.5,463.167 693.5,436.5C 694.498,461.328 694.831,486.328 694.5,511.5C 694.5,513.5 694.5,515.5 694.5,517.5C 708.344,517.829 722.01,517.496 735.5,516.5C 736.332,489.67 736.832,462.67 737,435.5C 737.833,434.667 738.667,433.833 739.5,433C 753.673,432.173 767.673,432.339 781.5,433.5 Z"/></g>
<g><path style="opacity:1" fill="#94dcc9" d="M 781.5,434.5 C 781.5,434.833 781.5,435.167 781.5,435.5C 767.656,435.171 753.99,435.504 740.5,436.5C 739.502,463.328 739.169,490.328 739.5,517.5C 753.5,517.5 767.5,517.5 781.5,517.5C 767.343,518.496 753.01,518.829 738.5,518.5C 738.5,491.167 738.5,463.833 738.5,436.5C 738.611,435.883 738.944,435.383 739.5,435C 753.496,434.5 767.496,434.333 781.5,434.5 Z"/></g>
<g><path style="opacity:1" fill="#7cecc9" d="M 740.5,436.5 C 740.5,463.167 740.5,489.833 740.5,516.5C 754.167,516.5 767.833,516.5 781.5,516.5C 781.5,490.167 781.5,463.833 781.5,437.5C 782.498,463.661 782.831,489.995 782.5,516.5C 782.5,517.167 782.167,517.5 781.5,517.5C 767.5,517.5 753.5,517.5 739.5,517.5C 739.169,490.328 739.502,463.328 740.5,436.5 Z"/></g>
<g><path style="opacity:1" fill="#64fcca" d="M 747.5,442.5 C 756.5,442.5 765.5,442.5 774.5,442.5C 774.5,465.167 774.5,487.833 774.5,510.5C 765.249,510.818 756.083,510.485 747,509.5C 746.178,487.094 746.345,464.761 747.5,442.5 Z"/></g>
<g><path style="opacity:1" fill="#563042" d="M 825.5,434.5 C 840.167,434.5 854.833,434.5 869.5,434.5C 854.833,435.167 840.167,435.833 825.5,436.5C 824.833,478.5 824.167,520.5 823.5,562.5C 823.5,520.5 823.5,478.5 823.5,436.5C 823.833,435.5 824.5,434.833 825.5,434.5 Z"/></g>
<g><path style="opacity:1" fill="#291820" d="M 258.5,477.5 C 244.673,478.331 230.673,478.831 216.5,479C 215.619,479.708 214.953,480.542 214.5,481.5C 214.167,481.5 213.833,481.5 213.5,481.5C 213.511,479.983 214.177,478.816 215.5,478C 229.829,477.5 244.163,477.333 258.5,477.5 Z"/></g>
<g><path style="opacity:1" fill="#050007" d="M 89.5,481.5 C 99.7734,482.144 110.107,482.811 120.5,483.5C 120.59,492.713 120.59,502.046 120.5,511.5C 109.5,511.5 98.5,511.5 87.5,511.5C 87.4827,502.136 87.316,492.803 87,483.5C 87.9947,482.934 88.828,482.267 89.5,481.5 Z"/></g>
<g><path style="opacity:1" fill="#ffa0d6" d="M 219.5,482.5 C 220.5,482.5 221.5,482.5 222.5,482.5C 234.993,483.331 247.66,483.831 260.5,484C 261.833,485 261.833,486 260.5,487C 248.5,487.333 236.5,487.667 224.5,488C 223.68,497.756 223.18,507.59 223,517.5C 222.29,518.973 221.124,519.64 219.5,519.5C 219.389,507.055 219.389,494.722 219.5,482.5 Z"/></g>
<g><path style="opacity:1" fill="#aa6587" d="M 217.5,480.5 C 231.167,480.5 244.833,480.5 258.5,480.5C 244.833,481.167 231.167,481.833 217.5,482.5C 216.833,493.833 216.167,505.167 215.5,516.5C 215.5,505.167 215.5,493.833 215.5,482.5C 215.833,481.5 216.5,480.833 217.5,480.5 Z"/></g>
<g><path style="opacity:0.997" fill="#090009" d="M 122.5,518.5 C 111.801,518.788 101.134,518.454 90.5,517.5C 88.3033,517.848 86.47,518.848 85,520.5C 84.3333,534.833 84.3333,549.167 85,563.5C 86.7395,564.894 88.7395,565.561 91,565.5C 101.835,564.179 112.669,564.179 123.5,565.5C 125.709,565.431 127.709,564.764 129.5,563.5C 130.479,551.551 130.813,539.551 130.5,527.5C 131.66,539.326 131.826,551.326 131,563.5C 130.692,564.308 130.192,564.975 129.5,565.5C 115.212,566.649 100.878,566.816 86.5,566C 85.5838,565.626 84.7504,565.126 84,564.5C 83.5779,562.645 83.0779,560.811 82.5,559C 83.8237,547.488 83.8237,535.988 82.5,524.5C 82.5466,519.291 85.0466,515.958 90,514.5C 100.09,515.321 110.256,515.821 120.5,516C 121.381,516.708 122.047,517.542 122.5,518.5 Z"/></g>
<g><path style="opacity:1" fill="#472b38" d="M 213.5,481.5 C 213.833,481.5 214.167,481.5 214.5,481.5C 214.5,481.833 214.5,482.167 214.5,482.5C 214.821,494.414 214.488,506.247 213.5,518C 201.659,518.826 189.993,518.659 178.5,517.5C 190.081,517.821 201.581,517.488 213,516.5C 213.5,504.838 213.667,493.171 213.5,481.5 Z"/></g>
<g><path style="opacity:1" fill="#ff91c9" d="M 519.5,601.5 C 519.5,603.5 519.5,605.5 519.5,607.5C 505.167,607.5 490.833,607.5 476.5,607.5C 474.069,605.932 474.069,604.432 476.5,603C 488.829,602.5 501.162,602.333 513.5,602.5C 513.333,575.165 513.5,547.831 514,520.5C 514.589,518.137 516.089,517.137 518.5,517.5C 518.169,545.672 518.502,573.672 519.5,601.5 Z"/></g>
<g><path style="opacity:0.992" fill="#28171f" d="M 825.5,436.5 C 825.5,450.167 825.5,463.833 825.5,477.5C 825.667,506.169 825.5,534.835 825,563.5C 824.411,565.863 822.911,566.863 820.5,566.5C 820.5,566.167 820.5,565.833 820.5,565.5C 822.5,565.5 823.5,564.5 823.5,562.5C 824.167,520.5 824.833,478.5 825.5,436.5 Z"/></g>
<g><path style="opacity:1" fill="#78485f" d="M 214.5,482.5 C 214.833,482.5 215.167,482.5 215.5,482.5C 215.5,493.833 215.5,505.167 215.5,516.5C 215.5,518.5 214.5,519.5 212.5,519.5C 200.833,519.5 189.167,519.5 177.5,519.5C 177.5,518.833 177.5,518.167 177.5,517.5C 177.833,517.5 178.167,517.5 178.5,517.5C 189.993,518.659 201.659,518.826 213.5,518C 214.488,506.247 214.821,494.414 214.5,482.5 Z"/></g>
<g><path style="opacity:0.996" fill="#10000f" d="M 122.5,518.5 C 123.568,519.434 124.901,519.768 126.5,519.5C 113.697,519.446 100.697,519.612 87.5,520C 87,520.5 86.5,521 86,521.5C 85.1774,535.408 85.3441,549.242 86.5,563C 87.7659,563.309 88.9326,563.809 90,564.5C 101.47,563.175 112.97,563.175 124.5,564.5C 125.931,564.023 127.264,563.357 128.5,562.5C 129.794,550.193 129.794,537.859 128.5,525.5C 128.64,523.97 129.307,522.97 130.5,522.5C 130.5,524.167 130.5,525.833 130.5,527.5C 130.813,539.551 130.479,551.551 129.5,563.5C 127.709,564.764 125.709,565.431 123.5,565.5C 112.669,564.179 101.835,564.179 91,565.5C 88.7395,565.561 86.7395,564.894 85,563.5C 84.3333,549.167 84.3333,534.833 85,520.5C 86.47,518.848 88.3033,517.848 90.5,517.5C 101.134,518.454 111.801,518.788 122.5,518.5 Z"/></g>
<g><path style="opacity:1" fill="#160015" d="M 126.5,519.5 C 126.833,519.5 127.167,519.5 127.5,519.5C 127.5,520.167 127.5,520.833 127.5,521.5C 128.833,521.5 130.167,521.5 131.5,521.5C 131.5,522.167 131.167,522.5 130.5,522.5C 129.307,522.97 128.64,523.97 128.5,525.5C 129.794,537.859 129.794,550.193 128.5,562.5C 127.264,563.357 125.931,564.023 124.5,564.5C 112.97,563.175 101.47,563.175 90,564.5C 88.9326,563.809 87.7659,563.309 86.5,563C 85.3441,549.242 85.1774,535.408 86,521.5C 86.5,521 87,520.5 87.5,520C 100.697,519.612 113.697,519.446 126.5,519.5 Z"/></g>
<g><path style="opacity:1" fill="#712664" d="M 176.5,516.5 C 177.167,516.5 177.5,516.833 177.5,517.5C 177.5,518.167 177.5,518.833 177.5,519.5C 176.5,519.833 175.833,520.5 175.5,521.5C 175.167,521.5 174.833,521.5 174.5,521.5C 174.167,521.5 173.833,521.5 173.5,521.5C 173.5,521.167 173.5,520.833 173.5,520.5C 173.5,520.167 173.5,519.833 173.5,519.5C 175.5,519.5 176.5,518.5 176.5,516.5 Z"/></g>
<g><path style="opacity:1" fill="#eea0c8" d="M 559.5,433.5 C 559.5,461.167 559.5,488.833 559.5,516.5C 559.5,517.167 559.167,517.5 558.5,517.5C 546.829,517.333 535.162,517.5 523.5,518C 522.667,518.833 521.833,519.667 521,520.5C 520.5,549.831 520.333,579.165 520.5,608.5C 506.579,609.482 492.579,609.815 478.5,609.5C 476.983,609.511 475.816,610.177 475,611.5C 474.333,624.167 474.333,636.833 475,649.5C 475.816,650.823 476.983,651.489 478.5,651.5C 478.5,651.833 478.5,652.167 478.5,652.5C 476.011,652.759 474.344,651.759 473.5,649.5C 473.5,636.833 473.5,624.167 473.5,611.5C 474.147,609.859 475.147,608.526 476.5,607.5C 490.833,607.5 505.167,607.5 519.5,607.5C 519.5,605.5 519.5,603.5 519.5,601.5C 519.333,574.165 519.5,546.831 520,519.5C 520.833,518.667 521.667,517.833 522.5,517C 534.674,516.831 546.674,516.331 558.5,515.5C 558.5,488.5 558.5,461.5 558.5,434.5C 558.5,433.833 558.833,433.5 559.5,433.5 Z"/></g>
<g><path style="opacity:1" fill="#cfb5c9" d="M 606.5,520.5 C 606.5,549.833 606.5,579.167 606.5,608.5C 606.167,608.5 605.833,608.5 605.5,608.5C 605.831,579.329 605.498,550.329 604.5,521.5C 590.833,520.167 577.167,520.167 563.5,521.5C 563.167,521.5 562.833,521.5 562.5,521.5C 569.301,520.169 576.467,519.503 584,519.5C 591.576,519.516 599.076,519.849 606.5,520.5 Z"/></g>
<g><path style="opacity:1" fill="#eb99c3" d="M 792.5,517.5 C 800.019,517.175 807.352,517.508 814.5,518.5C 814.5,519.167 814.833,519.5 815.5,519.5C 815.672,520.492 815.338,521.158 814.5,521.5C 804.833,521.5 795.167,521.5 785.5,521.5C 785.189,533.247 785.522,544.914 786.5,556.5C 785.957,556.56 785.624,556.893 785.5,557.5C 786.5,558.167 787.5,558.833 788.5,559.5C 787.757,560.182 787.091,560.849 786.5,561.5C 784.973,561.427 783.973,562.094 783.5,563.5C 782.624,563.631 781.957,563.298 781.5,562.5C 782.624,561.086 783.624,559.586 784.5,558C 783.588,546.037 783.255,534.203 783.5,522.5C 783.167,522.5 782.833,522.5 782.5,522.5C 768.677,521.504 754.677,521.171 740.5,521.5C 754.323,520.504 768.323,520.171 782.5,520.5C 783.609,520.443 784.609,520.11 785.5,519.5C 785.833,519.5 786.167,519.5 786.5,519.5C 788.415,519.784 790.081,519.451 791.5,518.5C 791.5,517.833 791.833,517.5 792.5,517.5 Z"/></g>
<g><path style="opacity:1" fill="#1b001a" d="M 127.5,521.5 C 127.6,534.915 127.6,548.249 127.5,561.5C 114.179,562.666 100.846,562.833 87.5,562C 87.6495,548.9 87.4829,535.734 87,522.5C 88,521.833 89,521.167 90,520.5C 102.42,521.489 114.92,521.822 127.5,521.5 Z"/></g>
<g><path style="opacity:1" fill="#bcc2c9" d="M 691.5,520.5 C 691.833,520.5 692.167,520.5 692.5,520.5C 692.5,549.833 692.5,579.167 692.5,608.5C 692.389,609.117 692.056,609.617 691.5,610C 679.505,610.5 667.505,610.667 655.5,610.5C 655.5,610.167 655.5,609.833 655.5,609.5C 667.345,609.828 679.012,609.495 690.5,608.5C 691.498,579.338 691.831,550.005 691.5,520.5 Z"/></g>
<g><path style="opacity:1" fill="#d6b1c9" d="M 558.5,517.5 C 558.5,517.833 558.5,518.167 558.5,518.5C 546.988,518.172 535.654,518.505 524.5,519.5C 523.5,519.833 522.833,520.5 522.5,521.5C 521.502,550.329 521.169,579.329 521.5,608.5C 521.167,608.5 520.833,608.5 520.5,608.5C 520.333,579.165 520.5,549.831 521,520.5C 521.833,519.667 522.667,518.833 523.5,518C 535.162,517.5 546.829,517.333 558.5,517.5 Z"/></g>
<g><path style="opacity:1" fill="#e397bd" d="M 814.5,521.5 C 814.5,533.167 814.5,544.833 814.5,556.5C 805.167,556.5 795.833,556.5 786.5,556.5C 785.522,544.914 785.189,533.247 785.5,521.5C 795.167,521.5 804.833,521.5 814.5,521.5 Z"/></g>
<g><path style="opacity:1" fill="#fd93c9" d="M 604.5,521.5 C 605.498,550.329 605.831,579.329 605.5,608.5C 605.167,608.5 604.833,608.5 604.5,608.5C 590.99,608.829 577.656,608.496 564.5,607.5C 564.5,578.833 564.5,550.167 564.5,521.5C 577.833,521.5 591.167,521.5 604.5,521.5 Z"/></g>
<g><path style="opacity:1" fill="#82e9c9" d="M 609.5,520.5 C 609.833,520.5 610.167,520.5 610.5,520.5C 610.5,520.833 610.5,521.167 610.5,521.5C 609.167,550.167 609.167,578.833 610.5,607.5C 623.656,608.496 636.99,608.829 650.5,608.5C 636.765,609.83 622.931,609.83 609,608.5C 608.17,578.997 608.336,549.664 609.5,520.5 Z"/></g>
<g><path style="opacity:1" fill="#5dfec9" d="M 611.5,521.5 C 624.5,521.5 637.5,521.5 650.5,521.5C 650.5,550.5 650.5,579.5 650.5,608.5C 636.99,608.829 623.656,608.496 610.5,607.5C 610.175,578.76 610.509,550.093 611.5,521.5 Z"/></g>
<g><path style="opacity:1" fill="#fe91c8" d="M 782.5,522.5 C 782.833,522.5 783.167,522.5 783.5,522.5C 783.579,523.93 783.246,525.264 782.5,526.5C 770.605,527.176 758.772,527.843 747,528.5C 746.667,555.833 746.333,583.167 746,610.5C 744.921,612.394 743.587,612.727 742,611.5C 741.5,581.835 741.333,552.169 741.5,522.5C 755.167,522.5 768.833,522.5 782.5,522.5 Z"/></g>
<g><path style="opacity:1" fill="#cbb8c9" d="M 655.5,519.5 C 667.167,519.5 678.833,519.5 690.5,519.5C 690.5,519.833 690.5,520.167 690.5,520.5C 678.586,520.179 666.753,520.512 655,521.5C 654.5,550.498 654.333,579.498 654.5,608.5C 653.336,579.336 653.17,550.003 654,520.5C 654.383,519.944 654.883,519.611 655.5,519.5 Z"/></g>
<g><path style="opacity:1" fill="#81e9c9" d="M 695.5,520.5 C 695.5,520.833 695.5,521.167 695.5,521.5C 694.167,550.167 694.167,578.833 695.5,607.5C 708.656,608.496 721.99,608.829 735.5,608.5C 722.01,609.496 708.344,609.829 694.5,609.5C 693.833,609.5 693.5,609.167 693.5,608.5C 692.841,578.814 693.508,549.481 695.5,520.5 Z"/></g>
<g><path style="opacity:1" fill="#eda2c8" d="M 604.5,521.5 C 591.167,521.5 577.833,521.5 564.5,521.5C 564.5,550.167 564.5,578.833 564.5,607.5C 563.502,579.005 563.169,550.338 563.5,521.5C 577.167,520.167 590.833,520.167 604.5,521.5 Z"/></g>
<g><path style="opacity:1" fill="#9dd7c9" d="M 609.5,519.5 C 609.5,519.833 609.5,520.167 609.5,520.5C 608.336,549.664 608.17,578.997 609,608.5C 622.931,609.83 636.765,609.83 650.5,608.5C 650.833,608.5 651.167,608.5 651.5,608.5C 651.833,608.5 652.167,608.5 652.5,608.5C 652.167,609.167 651.833,609.833 651.5,610.5C 636.833,610.5 622.167,610.5 607.5,610.5C 607.5,580.5 607.5,550.5 607.5,520.5C 607.842,519.662 608.508,519.328 609.5,519.5 Z"/></g>
<g><path style="opacity:1" fill="#93dec9" d="M 609.5,520.5 C 609.5,520.167 609.5,519.833 609.5,519.5C 623.833,519.5 638.167,519.5 652.5,519.5C 652.5,549.167 652.5,578.833 652.5,608.5C 652.167,608.5 651.833,608.5 651.5,608.5C 651.5,579.167 651.5,549.833 651.5,520.5C 637.833,520.5 624.167,520.5 610.5,520.5C 610.167,520.5 609.833,520.5 609.5,520.5 Z"/></g>
<g><path style="opacity:1" fill="#cbb8c9" d="M 782.5,519.5 C 782.5,519.833 782.5,520.167 782.5,520.5C 768.323,520.171 754.323,520.504 740.5,521.5C 739.833,550.5 739.167,579.5 738.5,608.5C 738.333,579.165 738.5,549.831 739,520.5C 753.421,519.51 767.921,519.176 782.5,519.5 Z"/></g>
<g><path style="opacity:1" fill="#9ed6c9" d="M 524.5,519.5 C 536.833,519.5 549.167,519.5 561.5,519.5C 561.5,549.167 561.5,578.833 561.5,608.5C 561.167,608.5 560.833,608.5 560.5,608.5C 560.5,609.167 560.5,609.833 560.5,610.5C 547.833,610.5 535.167,610.5 522.5,610.5C 522.5,580.833 522.5,551.167 522.5,521.5C 522.833,520.5 523.5,519.833 524.5,519.5 Z"/></g>
<g><path style="opacity:1" fill="#daaec8" d="M 562.5,521.5 C 562.833,521.5 563.167,521.5 563.5,521.5C 563.169,550.338 563.502,579.005 564.5,607.5C 577.656,608.496 590.99,608.829 604.5,608.5C 590.677,609.496 576.677,609.829 562.5,609.5C 562.5,580.167 562.5,550.833 562.5,521.5 Z"/></g>
<g><path style="opacity:1" fill="#fd97c8" d="M 570.5,527.5 C 580.083,527.182 589.583,527.515 599,528.5C 599.827,553.072 599.661,577.572 598.5,602C 588.922,602.818 579.422,602.651 570,601.5C 569.177,576.761 569.344,552.094 570.5,527.5 Z"/></g>
<g><path style="opacity:1" fill="#bac3c9" d="M 606.5,520.5 C 606.833,520.5 607.167,520.5 607.5,520.5C 607.5,550.5 607.5,580.5 607.5,610.5C 622.167,610.5 636.833,610.5 651.5,610.5C 651.5,610.833 651.5,611.167 651.5,611.5C 637.5,611.5 623.5,611.5 609.5,611.5C 608.833,611.5 608.167,611.5 607.5,611.5C 606.833,611.167 606.167,610.833 605.5,610.5C 605.833,609.833 606.167,609.167 606.5,608.5C 606.5,579.167 606.5,549.833 606.5,520.5 Z"/></g>
<g><path style="opacity:1" fill="#6df7c9" d="M 610.5,521.5 C 610.833,521.5 611.167,521.5 611.5,521.5C 610.509,550.093 610.175,578.76 610.5,607.5C 609.167,578.833 609.167,550.167 610.5,521.5 Z"/></g>
<g><path style="opacity:1" fill="#64fdc9" d="M 616.5,527.5 C 625.751,527.182 634.917,527.515 644,528.5C 644.5,552.831 644.667,577.164 644.5,601.5C 635.167,601.5 625.833,601.5 616.5,601.5C 616.5,576.833 616.5,552.167 616.5,527.5 Z"/></g>
<g><path style="opacity:1" fill="#79efc9" d="M 610.5,521.5 C 610.5,521.167 610.5,520.833 610.5,520.5C 624.167,520.5 637.833,520.5 651.5,520.5C 651.5,549.833 651.5,579.167 651.5,608.5C 651.167,608.5 650.833,608.5 650.5,608.5C 650.5,579.5 650.5,550.5 650.5,521.5C 637.5,521.5 624.5,521.5 611.5,521.5C 611.167,521.5 610.833,521.5 610.5,521.5 Z"/></g>
<g><path style="opacity:1" fill="#e0aac8" d="M 690.5,520.5 C 690.833,520.5 691.167,520.5 691.5,520.5C 691.831,550.005 691.498,579.338 690.5,608.5C 679.012,609.495 667.345,609.828 655.5,609.5C 654.833,609.5 654.5,609.167 654.5,608.5C 654.333,579.498 654.5,550.498 655,521.5C 666.753,520.512 678.586,520.179 690.5,520.5 Z"/></g>
<g><path style="opacity:1" fill="#fe92c9" d="M 689.5,522.5 C 688.542,550.812 688.209,579.146 688.5,607.5C 677.833,607.5 667.167,607.5 656.5,607.5C 655.336,579.336 655.17,551.003 656,522.5C 667.265,521.171 678.431,521.171 689.5,522.5 Z"/></g>
<g><path style="opacity:1" fill="#fd97c8" d="M 661.5,527.5 C 669.087,527.186 676.587,527.519 684,528.5C 684.667,552.833 684.667,577.167 684,601.5C 676.587,602.481 669.087,602.814 661.5,602.5C 661.5,577.5 661.5,552.5 661.5,527.5 Z"/></g>
<g><path style="opacity:1" fill="#f79bc8" d="M 689.5,522.5 C 690.498,550.995 690.831,579.662 690.5,608.5C 678.988,608.828 667.654,608.495 656.5,607.5C 667.167,607.5 677.833,607.5 688.5,607.5C 688.209,579.146 688.542,550.812 689.5,522.5 Z"/></g>
<g><path style="opacity:1" fill="#99dac9" d="M 737.5,608.5 C 737.167,608.5 736.833,608.5 736.5,608.5C 736.5,579.167 736.5,549.833 736.5,520.5C 722.833,520.5 709.167,520.5 695.5,520.5C 693.508,549.481 692.841,578.814 693.5,608.5C 693.167,608.5 692.833,608.5 692.5,608.5C 692.5,579.167 692.5,549.833 692.5,520.5C 707.324,519.504 722.324,519.171 737.5,519.5C 737.5,549.167 737.5,578.833 737.5,608.5 Z"/></g>
<g><path style="opacity:1" fill="#5dfec9" d="M 696.5,521.5 C 709.5,521.5 722.5,521.5 735.5,521.5C 735.5,550.5 735.5,579.5 735.5,608.5C 721.99,608.829 708.656,608.496 695.5,607.5C 695.175,578.76 695.509,550.093 696.5,521.5 Z"/></g>
<g><path style="opacity:1" fill="#6cf7c9" d="M 695.5,521.5 C 695.833,521.5 696.167,521.5 696.5,521.5C 695.509,550.093 695.175,578.76 695.5,607.5C 694.167,578.833 694.167,550.167 695.5,521.5 Z"/></g>
<g><path style="opacity:1" fill="#64fdc9" d="M 701.5,527.5 C 710.751,527.182 719.917,527.515 729,528.5C 729.5,552.831 729.667,577.164 729.5,601.5C 720.167,601.5 710.833,601.5 701.5,601.5C 701.5,576.833 701.5,552.167 701.5,527.5 Z"/></g>
<g><path style="opacity:1" fill="#7aeec9" d="M 695.5,521.5 C 695.5,521.167 695.5,520.833 695.5,520.5C 709.167,520.5 722.833,520.5 736.5,520.5C 736.5,549.833 736.5,579.167 736.5,608.5C 736.167,608.5 735.833,608.5 735.5,608.5C 735.5,579.5 735.5,550.5 735.5,521.5C 722.5,521.5 709.5,521.5 696.5,521.5C 696.167,521.5 695.833,521.5 695.5,521.5 Z"/></g>
<g><path style="opacity:1" fill="#e5a6c8" d="M 740.5,521.5 C 740.5,550.833 740.5,580.167 740.5,609.5C 739.626,611.69 737.959,612.69 735.5,612.5C 735.5,612.167 735.5,611.833 735.5,611.5C 737.5,611.5 738.5,610.5 738.5,608.5C 739.167,579.5 739.833,550.5 740.5,521.5 Z"/></g>
<g><path style="opacity:0.998" fill="#b56b90" d="M 177.5,521.5 C 177.667,551.502 177.5,581.502 177,611.5C 162.579,612.49 148.079,612.824 133.5,612.5C 133.5,612.167 133.5,611.833 133.5,611.5C 147.745,611.824 161.912,611.49 176,610.5C 176.168,580.664 176.668,550.997 177.5,521.5 Z"/></g>
<g><path style="opacity:1" fill="#ffa1d7" d="M 213.5,523.5 C 212.986,525.439 211.653,526.439 209.5,526.5C 201.196,525.393 192.863,525.226 184.5,526C 184,526.5 183.5,527 183,527.5C 182.992,554.979 182.325,582.313 181,609.5C 180.832,581.997 180.332,554.664 179.5,527.5C 179.5,525.833 179.5,524.167 179.5,522.5C 190.802,523.41 202.136,523.743 213.5,523.5 Z"/></g>
<g><path style="opacity:1" fill="#ff9ed2" d="M 213.5,523.5 C 215.048,523.821 215.715,524.821 215.5,526.5C 204.956,527.108 194.456,527.774 184,528.5C 183.185,553.857 183.352,579.19 184.5,604.5C 184.242,607.26 183.242,609.594 181.5,611.5C 180.914,611.291 180.414,610.957 180,610.5C 179.5,582.835 179.333,555.169 179.5,527.5C 180.332,554.664 180.832,581.997 181,609.5C 182.325,582.313 182.992,554.979 183,527.5C 183.5,527 184,526.5 184.5,526C 192.863,525.226 201.196,525.393 209.5,526.5C 211.653,526.439 212.986,525.439 213.5,523.5 Z"/></g>
<g><path style="opacity:1" fill="#bcc2c9" d="M 522.5,521.5 C 522.5,551.167 522.5,580.833 522.5,610.5C 535.167,610.5 547.833,610.5 560.5,610.5C 561.479,622.753 561.813,635.087 561.5,647.5C 560.824,635.765 560.157,623.931 559.5,612C 547.838,611.5 536.171,611.333 524.5,611.5C 523.833,611.5 523.167,611.5 522.5,611.5C 522.167,611.5 521.833,611.5 521.5,611.5C 521.5,611.167 521.5,610.833 521.5,610.5C 521.5,609.833 521.5,609.167 521.5,608.5C 521.169,579.329 521.502,550.329 522.5,521.5 Z"/></g>
<g><path style="opacity:1" fill="#83e8c9" d="M 560.5,608.5 C 560.167,608.5 559.833,608.5 559.5,608.5C 547.678,609.495 535.678,609.828 523.5,609.5C 523.333,580.165 523.5,550.831 524,521.5C 536.086,520.512 548.253,520.178 560.5,520.5C 560.5,549.833 560.5,579.167 560.5,608.5 Z"/></g>
<g><path style="opacity:1" fill="#5dfec9" d="M 559.5,526.5 C 558.502,553.328 558.169,580.328 558.5,607.5C 548.985,607.173 539.652,607.506 530.5,608.5C 528.533,608.739 526.699,608.406 525,607.5C 524.333,579.167 524.333,550.833 525,522.5C 536.09,521.347 547.257,521.18 558.5,522C 559.38,523.356 559.714,524.856 559.5,526.5 Z"/></g>
<g><path style="opacity:1" fill="#64fdc9" d="M 531.5,527.5 C 538.5,527.5 545.5,527.5 552.5,527.5C 552.5,552.167 552.5,576.833 552.5,601.5C 545.5,601.5 538.5,601.5 531.5,601.5C 531.5,576.833 531.5,552.167 531.5,527.5 Z"/></g>
<g><path style="opacity:1" fill="#6ef6c9" d="M 559.5,526.5 C 559.5,553.833 559.5,581.167 559.5,608.5C 549.833,608.5 540.167,608.5 530.5,608.5C 539.652,607.506 548.985,607.173 558.5,607.5C 558.169,580.328 558.502,553.328 559.5,526.5 Z"/></g>
<g><path style="opacity:1" fill="#f2a0c9" d="M 819.5,518.5 C 819.5,532.833 819.5,547.167 819.5,561.5C 808.5,561.5 797.5,561.5 786.5,561.5C 787.091,560.849 787.757,560.182 788.5,559.5C 787.5,558.833 786.5,558.167 785.5,557.5C 785.624,556.893 785.957,556.56 786.5,556.5C 795.833,556.5 805.167,556.5 814.5,556.5C 814.5,544.833 814.5,533.167 814.5,521.5C 815.338,521.158 815.672,520.492 815.5,519.5C 817.195,520.826 818.528,520.493 819.5,518.5 Z"/></g>
<g><path style="opacity:1" fill="#d38bb0" d="M 819.5,517.5 C 819.833,517.5 820.167,517.5 820.5,517.5C 820.263,518.791 820.596,519.791 821.5,520.5C 821.667,534.504 821.5,548.504 821,562.5C 808.735,563.158 796.569,563.824 784.5,564.5C 784.167,564.5 783.833,564.5 783.5,564.5C 783.5,564.167 783.5,563.833 783.5,563.5C 783.973,562.094 784.973,561.427 786.5,561.5C 797.5,561.5 808.5,561.5 819.5,561.5C 819.5,547.167 819.5,532.833 819.5,518.5C 819.5,518.167 819.5,517.833 819.5,517.5 Z"/></g>
<g><path style="opacity:1" fill="#da82ad" d="M 217.5,482.5 C 217.667,494.505 217.5,506.505 217,518.5C 216.5,519 216,519.5 215.5,520C 203.267,521.46 190.934,521.96 178.5,521.5C 178.5,552.167 178.5,582.833 178.5,613.5C 164.833,613.5 151.167,613.5 137.5,613.5C 136.5,613.5 135.5,613.5 134.5,613.5C 133.833,613.5 133.167,613.5 132.5,613.5C 132.5,612.833 132.833,612.5 133.5,612.5C 148.079,612.824 162.579,612.49 177,611.5C 177.5,581.502 177.667,551.502 177.5,521.5C 189.167,520.833 200.833,520.167 212.5,519.5C 214.5,519.5 215.5,518.5 215.5,516.5C 216.167,505.167 216.833,493.833 217.5,482.5 Z"/></g>
<g><path style="opacity:0.996" fill="#9b6681" d="M 821.5,516.5 C 821.833,516.5 822.167,516.5 822.5,516.5C 822.667,532.17 822.5,547.837 822,563.5C 809.735,564.158 797.569,564.824 785.5,565.5C 785.167,566.167 784.833,566.833 784.5,567.5C 784.167,567.5 783.833,567.5 783.5,567.5C 783.557,566.391 783.89,565.391 784.5,564.5C 796.569,563.824 808.735,563.158 821,562.5C 821.5,548.504 821.667,534.504 821.5,520.5C 821.5,519.167 821.5,517.833 821.5,516.5 Z"/></g>
<g><path style="opacity:0.996" fill="#8b526e" d="M 177.5,519.5 C 189.167,519.5 200.833,519.5 212.5,519.5C 200.833,520.167 189.167,520.833 177.5,521.5C 176.668,550.997 176.168,580.664 176,610.5C 161.912,611.49 147.745,611.824 133.5,611.5C 133.167,611.5 132.833,611.5 132.5,611.5C 146.569,610.825 160.735,610.159 175,609.5C 175.5,580.169 175.667,550.835 175.5,521.5C 175.833,520.5 176.5,519.833 177.5,519.5 Z"/></g>
<g><path style="opacity:0.996" fill="#754a5f" d="M 823.5,436.5 C 823.5,478.5 823.5,520.5 823.5,562.5C 823.5,564.5 822.5,565.5 820.5,565.5C 808.833,565.5 797.167,565.5 785.5,565.5C 797.569,564.824 809.735,564.158 822,563.5C 822.5,547.837 822.667,532.17 822.5,516.5C 822.169,489.661 822.502,462.995 823.5,436.5 Z"/></g>
<g><path style="opacity:1" fill="#ffa0d5" d="M 776.5,564.5 C 777.5,564.5 778.5,564.5 779.5,564.5C 779.201,591.859 779.535,619.192 780.5,646.5C 766.179,645.902 751.845,645.235 737.5,644.5C 738.09,643.201 739.09,642.368 740.5,642C 752.162,641.5 763.829,641.333 775.5,641.5C 775.185,615.789 775.518,590.122 776.5,564.5 Z"/></g>
<g><path style="opacity:0.996" fill="#5d374a" d="M 174.5,521.5 C 174.833,521.5 175.167,521.5 175.5,521.5C 175.667,550.835 175.5,580.169 175,609.5C 160.735,610.159 146.569,610.825 132.5,611.5C 131.883,611.611 131.383,611.944 131,612.5C 130.5,639.498 130.333,666.498 130.5,693.5C 129.502,666.672 129.169,639.672 129.5,612.5C 129.953,611.542 130.619,610.708 131.5,610C 145.673,609.831 159.673,609.331 173.5,608.5C 174.498,579.671 174.831,550.671 174.5,521.5 Z"/></g>
<g><path style="opacity:0.004" fill="#000000" d="M 872.5,568.5 C 873.833,568.5 875.167,568.5 876.5,568.5C 876.5,569.833 876.5,571.167 876.5,572.5C 875.167,572.5 873.833,572.5 872.5,572.5C 872.5,571.167 872.5,569.833 872.5,568.5 Z"/></g>
<g><path style="opacity:0.996" fill="#482c3a" d="M 785.5,565.5 C 797.167,565.5 808.833,565.5 820.5,565.5C 820.5,565.833 820.5,566.167 820.5,566.5C 808.988,566.172 797.654,566.505 786.5,567.5C 785.833,594.167 785.167,620.833 784.5,647.5C 784.5,620.833 784.5,594.167 784.5,567.5C 784.833,566.833 785.167,566.167 785.5,565.5 Z"/></g>
<g><path style="opacity:0.992" fill="#301d26" d="M 173.5,608.5 C 159.673,609.331 145.673,609.831 131.5,610C 130.619,610.708 129.953,611.542 129.5,612.5C 129.167,612.5 128.833,612.5 128.5,612.5C 128.511,610.983 129.177,609.816 130.5,609C 144.829,608.5 159.163,608.333 173.5,608.5 Z"/></g>
<g><path style="opacity:1" fill="#ff91c9" d="M 473.5,611.5 C 473.5,624.167 473.5,636.833 473.5,649.5C 472.316,651.41 470.816,651.743 469,650.5C 468.333,637.167 468.333,623.833 469,610.5C 470.816,609.257 472.316,609.59 473.5,611.5 Z"/></g>
<g><path style="opacity:1" fill="#c5bcc9" d="M 520.5,608.5 C 520.833,608.5 521.167,608.5 521.5,608.5C 521.5,609.167 521.5,609.833 521.5,610.5C 507.167,610.5 492.833,610.5 478.5,610.5C 478.5,610.167 478.5,609.833 478.5,609.5C 492.579,609.815 506.579,609.482 520.5,608.5 Z"/></g>
<g><path style="opacity:1" fill="#c4bcc9" d="M 604.5,608.5 C 604.833,608.5 605.167,608.5 605.5,608.5C 605.833,608.5 606.167,608.5 606.5,608.5C 606.167,609.167 605.833,609.833 605.5,610.5C 590.99,610.829 576.657,610.496 562.5,609.5C 576.677,609.829 590.677,609.496 604.5,608.5 Z"/></g>
<g><path style="opacity:1" fill="#9cd7c9" d="M 735.5,608.5 C 735.833,608.5 736.167,608.5 736.5,608.5C 736.833,608.5 737.167,608.5 737.5,608.5C 737.389,609.117 737.056,609.617 736.5,610C 722.504,610.5 708.504,610.667 694.5,610.5C 694.5,610.167 694.5,609.833 694.5,609.5C 708.344,609.829 722.01,609.496 735.5,608.5 Z"/></g>
<g><path style="opacity:1" fill="#a9cfc9" d="M 560.5,608.5 C 560.833,608.5 561.167,608.5 561.5,608.5C 561.5,609.167 561.833,609.5 562.5,609.5C 576.657,610.496 590.99,610.829 605.5,610.5C 606.167,610.833 606.833,611.167 607.5,611.5C 607.5,623.833 607.5,636.167 607.5,648.5C 606.711,648.783 606.044,649.283 605.5,650C 591.327,650.827 577.327,650.661 563.5,649.5C 577.344,649.829 591.01,649.496 604.5,648.5C 605.167,648.5 605.5,648.167 605.5,647.5C 606.659,636.007 606.826,624.341 606,612.5C 598.91,611.842 591.743,611.508 584.5,611.5C 577.257,611.508 570.09,611.842 563,612.5C 562.5,624.162 562.333,635.829 562.5,647.5C 562.167,647.5 561.833,647.5 561.5,647.5C 561.813,635.087 561.479,622.753 560.5,610.5C 560.5,609.833 560.5,609.167 560.5,608.5 Z"/></g>
<g><path style="opacity:1" fill="#bac3c9" d="M 737.5,608.5 C 737.833,608.5 738.167,608.5 738.5,608.5C 738.5,610.5 737.5,611.5 735.5,611.5C 721.833,611.5 708.167,611.5 694.5,611.5C 694.167,611.5 693.833,611.5 693.5,611.5C 693.5,610.833 693.833,610.5 694.5,610.5C 708.504,610.667 722.504,610.5 736.5,610C 737.056,609.617 737.389,609.117 737.5,608.5 Z"/></g>
<g><path style="opacity:1" fill="#d6b0c8" d="M 694.5,611.5 C 708.167,611.5 721.833,611.5 735.5,611.5C 735.5,611.833 735.5,612.167 735.5,612.5C 721.99,612.171 708.656,612.504 695.5,613.5C 694.833,613.5 694.5,613.833 694.5,614.5C 694.167,614.5 693.833,614.5 693.5,614.5C 693.557,613.391 693.89,612.391 694.5,611.5 Z"/></g>
<g><path style="opacity:1" fill="#b46c8f" d="M 783.5,564.5 C 783.833,564.5 784.167,564.5 784.5,564.5C 783.89,565.391 783.557,566.391 783.5,567.5C 783.667,594.502 783.5,621.502 783,648.5C 768.575,649.325 754.075,649.825 739.5,650C 739,650.5 738.5,651 738,651.5C 737.5,665.496 737.333,679.496 737.5,693.5C 737.167,693.5 736.833,693.5 736.5,693.5C 736.333,679.163 736.5,664.829 737,650.5C 737.5,650 738,649.5 738.5,649C 753.006,648.831 767.339,648.331 781.5,647.5C 781.333,620.498 781.5,593.498 782,566.5C 782.278,565.584 782.778,564.918 783.5,564.5 Z"/></g>
<g><path style="opacity:1" fill="#ef9fc8" d="M 524.5,612.5 C 536.012,612.172 547.346,612.505 558.5,613.5C 547.086,613.189 535.752,613.523 524.5,614.5C 524.5,613.833 524.5,613.167 524.5,612.5 Z"/></g>
<g><path style="opacity:1" fill="#efa0c8" d="M 740.5,609.5 C 740.67,610.822 740.337,611.989 739.5,613C 726.838,613.5 714.171,613.667 701.5,613.5C 699.5,613.5 697.5,613.5 695.5,613.5C 708.656,612.504 721.99,612.171 735.5,612.5C 737.959,612.69 739.626,611.69 740.5,609.5 Z"/></g>
<g><path style="opacity:1" fill="#0c0d0c" d="M 792.5,610.5 C 802.416,610.181 812.25,610.514 822,611.5C 823.127,617.73 823.627,624.063 823.5,630.5C 823.333,636.167 823.167,641.833 823,647.5C 822.692,648.308 822.192,648.975 821.5,649.5C 811.637,650.824 801.803,650.824 792,649.5C 790.873,643.27 790.373,636.937 790.5,630.5C 790.667,624.833 790.833,619.167 791,613.5C 791.513,612.473 792.013,611.473 792.5,610.5 Z"/></g>
<g><path style="opacity:1" fill="#ddacc9" d="M 478.5,609.5 C 478.5,609.833 478.5,610.167 478.5,610.5C 477.5,610.833 476.833,611.5 476.5,612.5C 475.34,624.326 475.174,636.326 476,648.5C 476.708,649.381 477.542,650.047 478.5,650.5C 478.5,650.833 478.5,651.167 478.5,651.5C 476.983,651.489 475.816,650.823 475,649.5C 474.333,636.833 474.333,624.167 475,611.5C 475.816,610.177 476.983,609.511 478.5,609.5 Z"/></g>
<g><path style="opacity:1" fill="#accec9" d="M 521.5,611.5 C 521.833,611.5 522.167,611.5 522.5,611.5C 522.5,623.833 522.5,636.167 522.5,648.5C 521.711,648.783 521.044,649.283 520.5,650C 506.837,650.5 493.171,650.667 479.5,650.5C 479.5,650.167 479.5,649.833 479.5,649.5C 493.01,649.829 506.344,649.496 519.5,648.5C 520.167,648.5 520.5,648.167 520.5,647.5C 521.495,635.678 521.828,623.678 521.5,611.5 Z"/></g>
<g><path style="opacity:1" fill="#c3bdc9" d="M 522.5,611.5 C 523.167,611.5 523.833,611.5 524.5,611.5C 524.5,611.833 524.5,612.167 524.5,612.5C 523.505,624.322 523.172,636.322 523.5,648.5C 523.167,648.5 522.833,648.5 522.5,648.5C 522.5,636.167 522.5,623.833 522.5,611.5 Z"/></g>
<g><path style="opacity:1" fill="#a8d0c9" d="M 692.5,608.5 C 692.833,608.5 693.167,608.5 693.5,608.5C 693.5,609.167 693.833,609.5 694.5,609.5C 694.5,609.833 694.5,610.167 694.5,610.5C 693.833,610.5 693.5,610.833 693.5,611.5C 692.505,623.322 692.172,635.322 692.5,647.5C 692.167,648.5 691.5,649.167 690.5,649.5C 690.167,649.5 689.833,649.5 689.5,649.5C 689.5,649.167 689.5,648.833 689.5,648.5C 690.167,648.5 690.5,648.167 690.5,647.5C 691.495,635.678 691.828,623.678 691.5,611.5C 679.5,611.5 667.5,611.5 655.5,611.5C 654.833,611.5 654.167,611.5 653.5,611.5C 653.842,610.662 654.508,610.328 655.5,610.5C 667.505,610.667 679.505,610.5 691.5,610C 692.056,609.617 692.389,609.117 692.5,608.5 Z"/></g>
<g><path style="opacity:1" fill="#fe91c9" d="M 695.5,613.5 C 697.5,613.5 699.5,613.5 701.5,613.5C 713.989,614.495 726.656,614.829 739.5,614.5C 739.5,615.833 739.5,617.167 739.5,618.5C 726.865,619.276 714.199,619.776 701.5,620C 700.679,630.09 700.179,640.256 700,650.5C 698.286,651.925 696.953,651.592 696,649.5C 695.83,638.992 695.33,628.659 694.5,618.5C 694.5,617.167 694.5,615.833 694.5,614.5C 694.5,613.833 694.833,613.5 695.5,613.5 Z"/></g>
<g><path style="opacity:1" fill="#5cfec9" d="M 689.5,613.5 C 689.5,624.833 689.5,636.167 689.5,647.5C 678.5,647.5 667.5,647.5 656.5,647.5C 655.523,636.248 655.189,624.914 655.5,613.5C 666.833,613.5 678.167,613.5 689.5,613.5 Z"/></g>
<g><path style="opacity:1" fill="#fe91c9" d="M 558.5,613.5 C 558.667,625.505 558.5,637.505 558,649.5C 557.047,651.592 555.714,651.925 554,650.5C 553.421,648.351 552.921,646.185 552.5,644C 553.586,636.192 553.753,628.359 553,620.5C 545.667,619.167 538.333,619.167 531,620.5C 530.667,630.5 530.333,640.5 530,650.5C 528.817,651.731 527.651,651.731 526.5,650.5C 525.855,639.705 525.188,629.038 524.5,618.5C 524.5,617.167 524.5,615.833 524.5,614.5C 535.752,613.523 547.086,613.189 558.5,613.5 Z"/></g>
<g><path style="opacity:1" fill="#c3bdc9" d="M 607.5,611.5 C 608.167,611.5 608.833,611.5 609.5,611.5C 609.5,611.833 609.5,612.167 609.5,612.5C 608.505,624.322 608.172,636.322 608.5,648.5C 608.167,648.5 607.833,648.5 607.5,648.5C 607.5,636.167 607.5,623.833 607.5,611.5 Z"/></g>
<g><path style="opacity:1" fill="#fe91c9" d="M 649.5,613.5 C 649.5,626.167 649.5,638.833 649.5,651.5C 647.549,651.773 646.049,651.107 645,649.5C 644.5,639.506 644.334,629.506 644.5,619.5C 635.161,619.334 625.827,619.5 616.5,620C 615.679,630.09 615.179,640.256 615,650.5C 613.184,651.743 611.684,651.41 610.5,649.5C 610.5,637.5 610.5,625.5 610.5,613.5C 623.5,613.5 636.5,613.5 649.5,613.5 Z"/></g>
<g><path style="opacity:1" fill="#d2b3c9" d="M 609.5,612.5 C 609.5,612.167 609.5,611.833 609.5,611.5C 623.5,611.5 637.5,611.5 651.5,611.5C 652.495,623.322 652.828,635.322 652.5,647.5C 651.833,636.167 651.167,624.833 650.5,613.5C 637.01,612.504 623.344,612.171 609.5,612.5 Z"/></g>
<g><path style="opacity:1" fill="#a7d0c9" d="M 478.5,610.5 C 492.833,610.5 507.167,610.5 521.5,610.5C 521.5,610.833 521.5,611.167 521.5,611.5C 507.163,611.333 492.829,611.5 478.5,612C 477.512,623.753 477.179,635.586 477.5,647.5C 476.505,636.012 476.172,624.345 476.5,612.5C 476.833,611.5 477.5,610.833 478.5,610.5 Z"/></g>
<g><path style="opacity:1" fill="#c2bec9" d="M 476.5,612.5 C 476.172,624.345 476.505,636.012 477.5,647.5C 477.833,648.5 478.5,649.167 479.5,649.5C 479.5,649.833 479.5,650.167 479.5,650.5C 479.167,650.5 478.833,650.5 478.5,650.5C 477.542,650.047 476.708,649.381 476,648.5C 475.174,636.326 475.34,624.326 476.5,612.5 Z"/></g>
<g><path style="opacity:1" fill="#8ce3c9" d="M 521.5,611.5 C 521.828,623.678 521.495,635.678 520.5,647.5C 520.828,635.988 520.495,624.654 519.5,613.5C 506.167,612.167 492.833,612.167 479.5,613.5C 478.505,624.654 478.172,635.988 478.5,647.5C 478.167,647.5 477.833,647.5 477.5,647.5C 477.179,635.586 477.512,623.753 478.5,612C 492.829,611.5 507.163,611.333 521.5,611.5 Z"/></g>
<g><path style="opacity:1" fill="#5ffec9" d="M 519.5,613.5 C 519.5,624.833 519.5,636.167 519.5,647.5C 517.5,647.5 515.5,647.5 513.5,647.5C 502.62,646.391 491.62,646.224 480.5,647C 479.513,635.915 479.179,624.748 479.5,613.5C 492.833,612.167 506.167,612.167 519.5,613.5 Z"/></g>
<g><path style="opacity:1" fill="#67fcc9" d="M 485.5,618.5 C 494.839,618.334 504.173,618.5 513.5,619C 514.813,626.442 514.813,633.942 513.5,641.5C 504.167,642.833 494.833,642.833 485.5,641.5C 484.202,633.776 484.202,626.109 485.5,618.5 Z"/></g>
<g><path style="opacity:1" fill="#daadc9" d="M 524.5,612.5 C 524.5,612.167 524.5,611.833 524.5,611.5C 536.171,611.333 547.838,611.5 559.5,612C 560.157,623.931 560.824,635.765 561.5,647.5C 561.5,648.167 561.5,648.833 561.5,649.5C 560.833,649.167 560.167,648.833 559.5,648.5C 559.828,636.655 559.495,624.988 558.5,613.5C 547.346,612.505 536.012,612.172 524.5,612.5 Z"/></g>
<g><path style="opacity:1" fill="#89e4c9" d="M 605.5,647.5 C 605.828,635.988 605.495,624.654 604.5,613.5C 591.167,612.167 577.833,612.167 564.5,613.5C 563.505,624.654 563.172,635.988 563.5,647.5C 563.167,647.5 562.833,647.5 562.5,647.5C 562.333,635.829 562.5,624.162 563,612.5C 570.09,611.842 577.257,611.508 584.5,611.5C 591.743,611.508 598.91,611.842 606,612.5C 606.826,624.341 606.659,636.007 605.5,647.5 Z"/></g>
<g><path style="opacity:1" fill="#5efec9" d="M 604.5,613.5 C 604.5,624.833 604.5,636.167 604.5,647.5C 592.5,647.5 580.5,647.5 568.5,647.5C 567.178,647.67 566.011,647.337 565,646.5C 564.5,635.505 564.333,624.505 564.5,613.5C 577.833,612.167 591.167,612.167 604.5,613.5 Z"/></g>
<g><path style="opacity:1" fill="#96dbc9" d="M 653.5,611.5 C 654.167,611.5 654.833,611.5 655.5,611.5C 655.5,611.833 655.5,612.167 655.5,612.5C 654.505,623.988 654.172,635.655 654.5,647.5C 654.167,647.5 653.833,647.5 653.5,647.5C 653.5,635.5 653.5,623.5 653.5,611.5 Z"/></g>
<g><path style="opacity:1" fill="#8be3c9" d="M 655.5,612.5 C 655.5,612.167 655.5,611.833 655.5,611.5C 667.5,611.5 679.5,611.5 691.5,611.5C 691.828,623.678 691.495,635.678 690.5,647.5C 690.828,635.988 690.495,624.654 689.5,613.5C 678.346,612.505 667.012,612.172 655.5,612.5 Z"/></g>
<g><path style="opacity:1" fill="#c4bcc9" d="M 693.5,611.5 C 693.833,611.5 694.167,611.5 694.5,611.5C 693.89,612.391 693.557,613.391 693.5,614.5C 693.5,625.5 693.5,636.5 693.5,647.5C 693.167,647.5 692.833,647.5 692.5,647.5C 692.172,635.322 692.505,623.322 693.5,611.5 Z"/></g>
<g><path style="opacity:0.996" fill="#a66283" d="M 132.5,611.5 C 132.833,611.5 133.167,611.5 133.5,611.5C 133.5,611.833 133.5,612.167 133.5,612.5C 132.833,612.5 132.5,612.833 132.5,613.5C 131.502,639.995 131.169,666.661 131.5,693.5C 131.167,693.5 130.833,693.5 130.5,693.5C 130.333,666.498 130.5,639.498 131,612.5C 131.383,611.944 131.883,611.611 132.5,611.5 Z"/></g>
<g><path style="opacity:1" fill="#d07ca6" d="M 132.5,613.5 C 132.169,640.005 132.502,666.339 133.5,692.5C 133.5,692.833 133.5,693.167 133.5,693.5C 132.833,693.5 132.167,693.5 131.5,693.5C 131.169,666.661 131.502,639.995 132.5,613.5 Z"/></g>
<g><path style="opacity:1" fill="#f391c1" d="M 132.5,613.5 C 133.167,613.5 133.833,613.5 134.5,613.5C 133.51,639.759 133.176,666.092 133.5,692.5C 132.502,666.339 132.169,640.005 132.5,613.5 Z"/></g>
<g><path style="opacity:1" fill="#71f5c9" d="M 564.5,613.5 C 564.333,624.505 564.5,635.505 565,646.5C 566.011,647.337 567.178,647.67 568.5,647.5C 568.5,647.833 568.5,648.167 568.5,648.5C 566.708,648.634 565.042,648.301 563.5,647.5C 563.172,635.988 563.505,624.654 564.5,613.5 Z"/></g>
<g><path style="opacity:1" fill="#64fdc9" d="M 570.5,619.5 C 579.833,619.5 589.167,619.5 598.5,619.5C 598.666,626.508 598.5,633.508 598,640.5C 589,641.833 580,641.833 571,640.5C 570.5,633.508 570.334,626.508 570.5,619.5 Z"/></g>
<g><path style="opacity:1" fill="#f39dc8" d="M 609.5,612.5 C 623.344,612.171 637.01,612.504 650.5,613.5C 650.167,613.5 649.833,613.5 649.5,613.5C 636.5,613.5 623.5,613.5 610.5,613.5C 610.5,625.5 610.5,637.5 610.5,649.5C 610.5,650.167 610.167,650.5 609.5,650.5C 609.5,637.833 609.5,625.167 609.5,612.5 Z"/></g>
<g><path style="opacity:1" fill="#78f0c9" d="M 655.5,612.5 C 667.012,612.172 678.346,612.505 689.5,613.5C 678.167,613.5 666.833,613.5 655.5,613.5C 655.189,624.914 655.523,636.248 656.5,647.5C 655.833,647.5 655.167,647.5 654.5,647.5C 654.172,635.655 654.505,623.988 655.5,612.5 Z"/></g>
<g><path style="opacity:1" fill="#64fdc9" d="M 662.5,619.5 C 669.5,619.5 676.5,619.5 683.5,619.5C 683.666,626.508 683.5,633.508 683,640.5C 676,641.833 669,641.833 662,640.5C 661.205,633.42 661.372,626.42 662.5,619.5 Z"/></g>
<g><path style="opacity:1" fill="#e0a9c8" d="M 693.5,614.5 C 693.833,614.5 694.167,614.5 694.5,614.5C 694.5,615.833 694.5,617.167 694.5,618.5C 694.667,629.172 694.5,639.839 694,650.5C 693.329,651.252 692.496,651.586 691.5,651.5C 692.6,650.395 693.267,649.062 693.5,647.5C 693.5,636.5 693.5,625.5 693.5,614.5 Z"/></g>
<g><path style="opacity:1" fill="#7b4a62" d="M 783.5,567.5 C 783.833,567.5 784.167,567.5 784.5,567.5C 784.5,594.167 784.5,620.833 784.5,647.5C 784.5,649.5 783.5,650.5 781.5,650.5C 767.829,650.333 754.163,650.5 740.5,651C 740,651.5 739.5,652 739,652.5C 738.5,666.163 738.333,679.829 738.5,693.5C 738.167,693.5 737.833,693.5 737.5,693.5C 737.333,679.496 737.5,665.496 738,651.5C 738.5,651 739,650.5 739.5,650C 754.075,649.825 768.575,649.325 783,648.5C 783.5,621.502 783.667,594.502 783.5,567.5 Z"/></g>
<g><path style="opacity:1" fill="#6ff7c9" d="M 479.5,613.5 C 479.179,624.748 479.513,635.915 480.5,647C 491.62,646.224 502.62,646.391 513.5,647.5C 503.652,647.173 493.986,647.506 484.5,648.5C 482.379,648.675 480.379,648.341 478.5,647.5C 478.172,635.988 478.505,624.654 479.5,613.5 Z"/></g>
<g><path style="opacity:1" fill="#7beec9" d="M 519.5,613.5 C 520.495,624.654 520.828,635.988 520.5,647.5C 520.5,648.167 520.167,648.5 519.5,648.5C 507.833,648.5 496.167,648.5 484.5,648.5C 493.986,647.506 503.652,647.173 513.5,647.5C 515.5,647.5 517.5,647.5 519.5,647.5C 519.5,636.167 519.5,624.833 519.5,613.5 Z"/></g>
<g><path style="opacity:1" fill="#79efc9" d="M 604.5,613.5 C 605.495,624.654 605.828,635.988 605.5,647.5C 605.5,648.167 605.167,648.5 604.5,648.5C 592.5,648.5 580.5,648.5 568.5,648.5C 568.5,648.167 568.5,647.833 568.5,647.5C 580.5,647.5 592.5,647.5 604.5,647.5C 604.5,636.167 604.5,624.833 604.5,613.5 Z"/></g>
<g><path style="opacity:1" fill="#78efc9" d="M 689.5,613.5 C 690.495,624.654 690.828,635.988 690.5,647.5C 690.5,648.167 690.167,648.5 689.5,648.5C 678.321,648.828 667.321,648.495 656.5,647.5C 667.5,647.5 678.5,647.5 689.5,647.5C 689.5,636.167 689.5,624.833 689.5,613.5 Z"/></g>
<g><path style="opacity:1" fill="#97dbc9" d="M 477.5,647.5 C 477.833,647.5 478.167,647.5 478.5,647.5C 480.379,648.341 482.379,648.675 484.5,648.5C 496.167,648.5 507.833,648.5 519.5,648.5C 506.344,649.496 493.01,649.829 479.5,649.5C 478.5,649.167 477.833,648.5 477.5,647.5 Z"/></g>
<g><path style="opacity:1" fill="#95dcc9" d="M 562.5,647.5 C 562.833,647.5 563.167,647.5 563.5,647.5C 565.042,648.301 566.708,648.634 568.5,648.5C 580.5,648.5 592.5,648.5 604.5,648.5C 591.01,649.496 577.344,649.829 563.5,649.5C 563.167,648.833 562.833,648.167 562.5,647.5 Z"/></g>
<g><path style="opacity:1" fill="#d0b5c9" d="M 522.5,648.5 C 522.833,648.5 523.167,648.5 523.5,648.5C 523.047,649.458 522.381,650.292 521.5,651C 507.171,651.5 492.837,651.667 478.5,651.5C 478.5,651.167 478.5,650.833 478.5,650.5C 478.833,650.5 479.167,650.5 479.5,650.5C 493.171,650.667 506.837,650.5 520.5,650C 521.044,649.283 521.711,648.783 522.5,648.5 Z"/></g>
<g><path style="opacity:1" fill="#ceb5c9" d="M 561.5,647.5 C 561.833,647.5 562.167,647.5 562.5,647.5C 562.833,648.167 563.167,648.833 563.5,649.5C 577.327,650.661 591.327,650.827 605.5,650C 606.044,649.283 606.711,648.783 607.5,648.5C 607.833,648.5 608.167,648.5 608.5,648.5C 608.047,649.458 607.381,650.292 606.5,651C 591.833,651.667 577.167,651.667 562.5,651C 561.944,650.617 561.611,650.117 561.5,649.5C 561.5,648.833 561.5,648.167 561.5,647.5 Z"/></g>
<g><path style="opacity:1" fill="#cfb5c9" d="M 652.5,647.5 C 652.833,647.5 653.167,647.5 653.5,647.5C 653.414,648.496 653.748,649.329 654.5,650C 666.674,650.826 678.674,650.66 690.5,649.5C 691.5,649.167 692.167,648.5 692.5,647.5C 692.833,647.5 693.167,647.5 693.5,647.5C 693.267,649.062 692.6,650.395 691.5,651.5C 691.167,651.5 690.833,651.5 690.5,651.5C 678.162,651.667 665.829,651.5 653.5,651C 652.663,649.989 652.33,648.822 652.5,647.5 Z"/></g>
<g><path style="opacity:1" fill="#b2c8c9" d="M 653.5,647.5 C 653.833,647.5 654.167,647.5 654.5,647.5C 654.611,648.117 654.944,648.617 655.5,649C 666.828,649.5 678.162,649.667 689.5,649.5C 689.833,649.5 690.167,649.5 690.5,649.5C 678.674,650.66 666.674,650.826 654.5,650C 653.748,649.329 653.414,648.496 653.5,647.5 Z"/></g>
<g><path style="opacity:1" fill="#95ddc9" d="M 654.5,647.5 C 655.167,647.5 655.833,647.5 656.5,647.5C 667.321,648.495 678.321,648.828 689.5,648.5C 689.5,648.833 689.5,649.167 689.5,649.5C 678.162,649.667 666.828,649.5 655.5,649C 654.944,648.617 654.611,648.117 654.5,647.5 Z"/></g>
<g><path style="opacity:1" fill="#e5a6c8" d="M 524.5,612.5 C 524.5,613.167 524.5,613.833 524.5,614.5C 524.5,615.833 524.5,617.167 524.5,618.5C 524.667,629.172 524.5,639.839 524,650.5C 523.5,651 523,651.5 522.5,652C 507.837,652.5 493.17,652.667 478.5,652.5C 478.5,652.167 478.5,651.833 478.5,651.5C 492.837,651.667 507.171,651.5 521.5,651C 522.381,650.292 523.047,649.458 523.5,648.5C 523.172,636.322 523.505,624.322 524.5,612.5 Z"/></g>
<g><path style="opacity:1" fill="#e5a6c8" d="M 609.5,612.5 C 609.5,625.167 609.5,637.833 609.5,650.5C 608.711,650.783 608.044,651.283 607.5,652C 592.167,652.667 576.833,652.667 561.5,652C 560.177,651.184 559.511,650.017 559.5,648.5C 560.167,648.833 560.833,649.167 561.5,649.5C 561.611,650.117 561.944,650.617 562.5,651C 577.167,651.667 591.833,651.667 606.5,651C 607.381,650.292 608.047,649.458 608.5,648.5C 608.172,636.322 608.505,624.322 609.5,612.5 Z"/></g>
<g><path style="opacity:1" fill="#e8a4c8" d="M 650.5,613.5 C 651.167,624.833 651.833,636.167 652.5,647.5C 652.33,648.822 652.663,649.989 653.5,651C 665.829,651.5 678.162,651.667 690.5,651.5C 678.007,652.66 665.34,652.827 652.5,652C 652,651.5 651.5,651 651,650.5C 650.5,638.171 650.333,625.838 650.5,613.5 Z"/></g>
<g><path style="opacity:0.992" fill="#22161c" d="M 786.5,567.5 C 786.667,594.835 786.5,622.169 786,649.5C 785.097,650.701 783.931,651.535 782.5,652C 769.993,652.827 757.66,652.66 745.5,651.5C 757.678,651.828 769.678,651.495 781.5,650.5C 783.5,650.5 784.5,649.5 784.5,647.5C 785.167,620.833 785.833,594.167 786.5,567.5 Z"/></g>
<g><path style="opacity:1" fill="#d981ac" d="M 781.5,647.5 C 767.339,648.331 753.006,648.831 738.5,649C 738,649.5 737.5,650 737,650.5C 736.5,664.829 736.333,679.163 736.5,693.5C 736.167,693.5 735.833,693.5 735.5,693.5C 735.333,678.83 735.5,664.163 736,649.5C 736.5,649 737,648.5 737.5,648C 752.163,647.5 766.83,647.333 781.5,647.5 Z"/></g>
<g><path style="opacity:0.996" fill="#4e2e3e" d="M 781.5,650.5 C 769.678,651.495 757.678,651.828 745.5,651.5C 743.302,651.12 741.635,651.787 740.5,653.5C 739.833,666.833 739.167,680.167 738.5,693.5C 738.333,679.829 738.5,666.163 739,652.5C 739.5,652 740,651.5 740.5,651C 754.163,650.5 767.829,650.333 781.5,650.5 Z"/></g>
<g><path style="opacity:1" fill="#ff9cd0" d="M 734.5,687.5 C 733.833,675.66 733.167,663.66 732.5,651.5C 731.824,663.729 731.157,675.895 730.5,688C 533.333,688.833 336.333,688.666 139.5,687.5C 336.167,687.667 532.834,687.5 729.5,687C 730.824,676.53 730.824,666.03 729.5,655.5C 729.912,653.113 730.912,651.113 732.5,649.5C 733.086,649.709 733.586,650.043 734,650.5C 734.5,662.829 734.667,675.162 734.5,687.5 Z"/></g>
<g><path style="opacity:1" fill="#ff9fd5" d="M 134.5,613.5 C 135.5,613.5 136.5,613.5 137.5,613.5C 150.323,614.495 163.323,614.829 176.5,614.5C 176.67,615.822 176.337,616.989 175.5,618C 163.258,618.177 151.091,618.677 139,619.5C 138.17,642.337 138.337,665.004 139.5,687.5C 336.333,688.666 533.333,688.833 730.5,688C 731.157,675.895 731.824,663.729 732.5,651.5C 733.167,663.66 733.833,675.66 734.5,687.5C 734.5,689.167 734.5,690.833 734.5,692.5C 534.167,692.5 333.833,692.5 133.5,692.5C 133.176,666.092 133.51,639.759 134.5,613.5 Z"/></g>
<g><path style="opacity:0.996" fill="#422734" d="M 128.5,612.5 C 128.833,612.5 129.167,612.5 129.5,612.5C 129.169,639.672 129.502,666.672 130.5,693.5C 130.414,694.496 130.748,695.329 131.5,696C 332.833,696.5 534.166,696.667 735.5,696.5C 534,697.666 332.334,697.833 130.5,697C 130,696.5 129.5,696 129,695.5C 128.5,667.835 128.333,640.169 128.5,612.5 Z"/></g>
<g><path style="opacity:0.992" fill="#1a1015" d="M 128.5,612.5 C 128.333,640.169 128.5,667.835 129,695.5C 129.5,696 130,696.5 130.5,697C 332.334,697.833 534,697.666 735.5,696.5C 737.5,696.5 738.5,695.5 738.5,693.5C 739.167,680.167 739.833,666.833 740.5,653.5C 740.667,667.171 740.5,680.837 740,694.5C 739.5,696.333 738.333,697.5 736.5,698C 533.833,698.667 331.167,698.667 128.5,698C 127.168,669.402 127.168,640.902 128.5,612.5 Z"/></g>
<g><path style="opacity:0.996" fill="#6f4258" d="M 130.5,693.5 C 130.833,693.5 131.167,693.5 131.5,693.5C 131.611,694.117 131.944,694.617 132.5,695C 333.833,695.667 535.167,695.667 736.5,695C 737.056,694.617 737.389,694.117 737.5,693.5C 737.833,693.5 738.167,693.5 738.5,693.5C 738.5,695.5 737.5,696.5 735.5,696.5C 534.166,696.667 332.833,696.5 131.5,696C 130.748,695.329 130.414,694.496 130.5,693.5 Z"/></g>
<g><path style="opacity:0.996" fill="#af688b" d="M 131.5,693.5 C 132.167,693.5 132.833,693.5 133.5,693.5C 334.167,693.5 534.833,693.5 735.5,693.5C 735.833,693.5 736.167,693.5 736.5,693.5C 736.833,693.5 737.167,693.5 737.5,693.5C 737.389,694.117 737.056,694.617 736.5,695C 535.167,695.667 333.833,695.667 132.5,695C 131.944,694.617 131.611,694.117 131.5,693.5 Z"/></g>
<g><path style="opacity:1" fill="#ff91c9" d="M 652.5,653.5 C 666.167,653.5 679.833,653.5 693.5,653.5C 693.714,655.144 693.38,656.644 692.5,658C 679.5,658.667 666.5,658.667 653.5,658C 651.218,656.916 650.884,655.416 652.5,653.5 Z"/></g>
<g><path style="opacity:1" fill="#ff91c9" d="M 560.5,653.5 C 576.988,653.016 593.322,653.516 609.5,655C 608.833,656 608.167,657 607.5,658C 592.167,658.667 576.833,658.667 561.5,658C 559.452,656.774 559.119,655.274 560.5,653.5 Z"/></g>
<g><path style="opacity:1" fill="#ff91c9" d="M 475.5,653.5 C 491.988,653.016 508.322,653.516 524.5,655C 523.833,656 523.167,657 522.5,658C 507.167,658.667 491.833,658.667 476.5,658C 474.964,656.532 474.63,655.032 475.5,653.5 Z"/></g>
<g><path style="opacity:0.004" fill="#000000" d="M 833.5,699.5 C 834.833,699.5 836.167,699.5 837.5,699.5C 837.833,702.5 836.5,703.833 833.5,703.5C 833.5,702.167 833.5,700.833 833.5,699.5 Z"/></g>
<g><path style="opacity:0.004" fill="#000000" d="M 37.5,745.5 C 38.8333,745.5 40.1667,745.5 41.5,745.5C 41.5,746.833 41.5,748.167 41.5,749.5C 38.5,749.833 37.1667,748.5 37.5,745.5 Z"/></g>
<g><path style="opacity:0.004" fill="#000000" d="M 787.5,745.5 C 788.833,745.5 790.167,745.5 791.5,745.5C 791.833,748.5 790.5,749.833 787.5,749.5C 787.5,748.167 787.5,746.833 787.5,745.5 Z"/></g>
</svg>
