<?xml version="1.0" encoding="UTF-8"?>
<!DOCTYPE svg PUBLIC "-//W3C//DTD SVG 1.1//EN" "http://www.w3.org/Graphics/SVG/1.1/DTD/svg11.dtd">
<svg xmlns="http://www.w3.org/2000/svg" version="1.1" width="10000px" height="6520px" style="shape-rendering:geometricPrecision; text-rendering:geometricPrecision; image-rendering:optimizeQuality; fill-rule:evenodd; clip-rule:evenodd" xmlns:xlink="http://www.w3.org/1999/xlink">
<g><path style="opacity:0.992" fill="#000000" d="M 8699.5,2619.5 C 8699.5,2616.17 8699.5,2612.83 8699.5,2609.5C 8699.5,2462.83 8699.5,2316.17 8699.5,2169.5C 8696.17,2169.5 8692.83,2169.5 8689.5,2169.5C 6662.83,2169.5 4636.17,2169.5 2609.5,2169.5C 2609.5,2026.17 2609.5,1882.83 2609.5,1739.5C 4056.17,1739.5 5502.83,1739.5 6949.5,1739.5C 6952.83,1739.5 6956.17,1739.5 6959.5,1739.5C 6959.5,1596.17 6959.5,1452.83 6959.5,1309.5C 6959.5,1306.17 6959.5,1302.83 6959.5,1299.5C 6956.17,1299.5 6952.83,1299.5 6949.5,1299.5C 5936.17,1299.5 4922.83,1299.5 3909.5,1299.5C 3909.5,1156.17 3909.5,1012.83 3909.5,869.5C 3909.5,866.167 3909.5,862.833 3909.5,859.5C 3186.17,859.5 2462.83,859.5 1739.5,859.5C 1739.5,862.833 1739.5,866.167 1739.5,869.5C 1736.17,869.5 1732.83,869.5 1729.5,869.5C 1729.5,1012.83 1729.5,1156.17 1729.5,1299.5C 1589.5,1299.5 1449.5,1299.5 1309.5,1299.5C 1306.17,1299.5 1302.83,1299.5 1299.5,1299.5C 1299.5,1302.83 1299.5,1306.17 1299.5,1309.5C 1299.5,1742.83 1299.5,2176.17 1299.5,2609.5C 1299.5,2756.17 1299.5,2902.83 1299.5,3049.5C 1156.17,3049.5 1012.83,3049.5 869.5,3049.5C 869.5,3189.5 869.5,3329.5 869.5,3469.5C 869.5,3472.83 869.5,3476.17 869.5,3479.5C 866.167,3479.5 862.833,3479.5 859.5,3479.5C 859.5,3622.83 859.5,3766.17 859.5,3909.5C 862.833,3909.5 866.167,3909.5 869.5,3909.5C 1012.83,3909.5 1156.17,3909.5 1299.5,3909.5C 1302.83,3909.5 1306.17,3909.5 1309.5,3909.5C 1309.5,3766.17 1309.5,3622.83 1309.5,3479.5C 1449.5,3479.5 1589.5,3479.5 1729.5,3479.5C 1729.5,3622.83 1729.5,3766.17 1729.5,3909.5C 1732.83,3909.5 1736.17,3909.5 1739.5,3909.5C 1739.5,4052.83 1739.5,4196.17 1739.5,4339.5C 1596.17,4339.5 1452.83,4339.5 1309.5,4339.5C 1309.5,4342.83 1309.5,4346.17 1309.5,4349.5C 1306.17,4349.5 1302.83,4349.5 1299.5,4349.5C 1299.5,4636.17 1299.5,4922.83 1299.5,5209.5C 1302.83,5209.5 1306.17,5209.5 1309.5,5209.5C 1309.5,5212.83 1309.5,5216.17 1309.5,5219.5C 3336.17,5219.5 5362.83,5219.5 7389.5,5219.5C 7389.5,5216.17 7389.5,5212.83 7389.5,5209.5C 7389.5,5069.5 7389.5,4929.5 7389.5,4789.5C 7536.17,4789.5 7682.83,4789.5 7829.5,4789.5C 7829.5,4786.17 7829.5,4782.83 7829.5,4779.5C 7972.83,4779.5 8116.17,4779.5 8259.5,4779.5C 8259.5,4636.17 8259.5,4492.83 8259.5,4349.5C 8116.17,4349.5 7972.83,4349.5 7829.5,4349.5C 7829.5,4202.83 7829.5,4056.17 7829.5,3909.5C 7972.83,3909.5 8116.17,3909.5 8259.5,3909.5C 8259.5,3906.17 8259.5,3902.83 8259.5,3899.5C 8259.5,3759.5 8259.5,3619.5 8259.5,3479.5C 8259.5,3476.17 8259.5,3472.83 8259.5,3469.5C 8259.5,3326.17 8259.5,3182.83 8259.5,3039.5C 8262.83,3039.5 8266.17,3039.5 8269.5,3039.5C 8412.83,3039.5 8556.17,3039.5 8699.5,3039.5C 8699.5,3329.5 8699.5,3619.5 8699.5,3909.5C 8556.17,3909.5 8412.83,3909.5 8269.5,3909.5C 8269.5,4346.17 8269.5,4782.83 8269.5,5219.5C 8122.83,5219.5 7976.17,5219.5 7829.5,5219.5C 7829.5,5362.83 7829.5,5506.17 7829.5,5649.5C 5362.83,5649.5 2896.17,5649.5 429.5,5649.5C 429.5,4199.5 429.5,2749.5 429.5,1299.5C 572.833,1299.5 716.167,1299.5 859.5,1299.5C 859.5,1152.83 859.5,1006.17 859.5,859.5C 1006.17,859.5 1152.83,859.5 1299.5,859.5C 1299.5,716.167 1299.5,572.833 1299.5,429.5C 2316.17,429.5 3332.83,429.5 4349.5,429.5C 4349.5,572.833 4349.5,716.167 4349.5,859.5C 5362.83,859.5 6376.17,859.5 7389.5,859.5C 7389.5,1149.5 7389.5,1439.5 7389.5,1729.5C 7969.5,1729.5 8549.5,1729.5 9129.5,1729.5C 9129.5,2026.17 9129.5,2322.83 9129.5,2619.5C 8986.17,2619.5 8842.83,2619.5 8699.5,2619.5 Z"/></g>
<g><path style="opacity:1" fill="#7c007d" d="M 3909.5,869.5 C 3186.17,869.5 2462.83,869.5 1739.5,869.5C 1739.5,866.167 1739.5,862.833 1739.5,859.5C 2462.83,859.5 3186.17,859.5 3909.5,859.5C 3909.5,862.833 3909.5,866.167 3909.5,869.5 Z"/></g>
<g><path style="opacity:1" fill="#060007" d="M 1739.5,869.5 C 1739.5,1012.83 1739.5,1156.17 1739.5,1299.5C 1736.17,1299.5 1732.83,1299.5 1729.5,1299.5C 1729.5,1156.17 1729.5,1012.83 1729.5,869.5C 1732.83,869.5 1736.17,869.5 1739.5,869.5 Z"/></g>
<g><path style="opacity:1" fill="#fd00fd" d="M 1739.5,869.5 C 2462.83,869.5 3186.17,869.5 3909.5,869.5C 3909.5,1012.83 3909.5,1156.17 3909.5,1299.5C 3909.5,1302.83 3909.5,1306.17 3909.5,1309.5C 4922.83,1309.5 5936.17,1309.5 6949.5,1309.5C 6949.5,1449.5 6949.5,1589.5 6949.5,1729.5C 5499.5,1729.5 4049.5,1729.5 2599.5,1729.5C 2599.5,1732.83 2599.5,1736.17 2599.5,1739.5C 2599.5,1882.83 2599.5,2026.17 2599.5,2169.5C 2459.5,2169.5 2319.5,2169.5 2179.5,2169.5C 2176.17,2169.5 2172.83,2169.5 2169.5,2169.5C 2169.5,2312.83 2169.5,2456.17 2169.5,2599.5C 2026.17,2599.5 1882.83,2599.5 1739.5,2599.5C 1739.5,2602.83 1739.5,2606.17 1739.5,2609.5C 1736.17,2609.5 1732.83,2609.5 1729.5,2609.5C 1729.5,2896.17 1729.5,3182.83 1729.5,3469.5C 1589.5,3469.5 1449.5,3469.5 1309.5,3469.5C 1309.5,3182.83 1309.5,2896.17 1309.5,2609.5C 1309.5,2176.17 1309.5,1742.83 1309.5,1309.5C 1452.83,1309.5 1596.17,1309.5 1739.5,1309.5C 1739.5,1306.17 1739.5,1302.83 1739.5,1299.5C 1739.5,1156.17 1739.5,1012.83 1739.5,869.5 Z"/></g>
<g><path style="opacity:1" fill="#260027" d="M 1309.5,1299.5 C 1309.5,1302.83 1309.5,1306.17 1309.5,1309.5C 1306.17,1309.5 1302.83,1309.5 1299.5,1309.5C 1299.5,1306.17 1299.5,1302.83 1299.5,1299.5C 1302.83,1299.5 1306.17,1299.5 1309.5,1299.5 Z"/></g>
<g><path style="opacity:1" fill="#6c006c" d="M 1309.5,1299.5 C 1449.5,1299.5 1589.5,1299.5 1729.5,1299.5C 1732.83,1299.5 1736.17,1299.5 1739.5,1299.5C 1739.5,1302.83 1739.5,1306.17 1739.5,1309.5C 1596.17,1309.5 1452.83,1309.5 1309.5,1309.5C 1309.5,1306.17 1309.5,1302.83 1309.5,1299.5 Z"/></g>
<g><path style="opacity:1" fill="#6b006c" d="M 3909.5,1299.5 C 4922.83,1299.5 5936.17,1299.5 6949.5,1299.5C 6949.5,1302.83 6949.5,1306.17 6949.5,1309.5C 5936.17,1309.5 4922.83,1309.5 3909.5,1309.5C 3909.5,1306.17 3909.5,1302.83 3909.5,1299.5 Z"/></g>
<g><path style="opacity:1" fill="#370038" d="M 6949.5,1299.5 C 6952.83,1299.5 6956.17,1299.5 6959.5,1299.5C 6959.5,1302.83 6959.5,1306.17 6959.5,1309.5C 6956.17,1309.5 6952.83,1309.5 6949.5,1309.5C 6949.5,1306.17 6949.5,1302.83 6949.5,1299.5 Z"/></g>
<g><path style="opacity:1" fill="#5c005c" d="M 1299.5,1309.5 C 1302.83,1309.5 1306.17,1309.5 1309.5,1309.5C 1309.5,1742.83 1309.5,2176.17 1309.5,2609.5C 1306.17,2609.5 1302.83,2609.5 1299.5,2609.5C 1299.5,2176.17 1299.5,1742.83 1299.5,1309.5 Z"/></g>
<g><path style="opacity:1" fill="#820082" d="M 6949.5,1309.5 C 6952.83,1309.5 6956.17,1309.5 6959.5,1309.5C 6959.5,1452.83 6959.5,1596.17 6959.5,1739.5C 6956.17,1739.5 6952.83,1739.5 6949.5,1739.5C 6949.5,1736.17 6949.5,1732.83 6949.5,1729.5C 6949.5,1589.5 6949.5,1449.5 6949.5,1309.5 Z"/></g>
<g><path style="opacity:1" fill="#e200e2" d="M 6949.5,1729.5 C 6949.5,1732.83 6949.5,1736.17 6949.5,1739.5C 5502.83,1739.5 4056.17,1739.5 2609.5,1739.5C 2606.17,1739.5 2602.83,1739.5 2599.5,1739.5C 2599.5,1736.17 2599.5,1732.83 2599.5,1729.5C 4049.5,1729.5 5499.5,1729.5 6949.5,1729.5 Z"/></g>
<g><path style="opacity:1" fill="#670068" d="M 2599.5,1739.5 C 2602.83,1739.5 2606.17,1739.5 2609.5,1739.5C 2609.5,1882.83 2609.5,2026.17 2609.5,2169.5C 2606.17,2169.5 2602.83,2169.5 2599.5,2169.5C 2599.5,2026.17 2599.5,1882.83 2599.5,1739.5 Z"/></g>
<g><path style="opacity:1" fill="#0e000f" d="M 2179.5,2169.5 C 2179.5,2312.83 2179.5,2456.17 2179.5,2599.5C 2176.17,2599.5 2172.83,2599.5 2169.5,2599.5C 2169.5,2456.17 2169.5,2312.83 2169.5,2169.5C 2172.83,2169.5 2176.17,2169.5 2179.5,2169.5 Z"/></g>
<g><path style="opacity:1" fill="#000000" d="M 2179.5,2169.5 C 2319.5,2169.5 2459.5,2169.5 2599.5,2169.5C 2599.5,2459.5 2599.5,2749.5 2599.5,3039.5C 2456.17,3039.5 2312.83,3039.5 2169.5,3039.5C 2169.5,3042.83 2169.5,3046.17 2169.5,3049.5C 2169.5,3189.5 2169.5,3329.5 2169.5,3469.5C 2026.17,3469.5 1882.83,3469.5 1739.5,3469.5C 1739.5,3182.83 1739.5,2896.17 1739.5,2609.5C 1882.83,2609.5 2026.17,2609.5 2169.5,2609.5C 2169.5,2606.17 2169.5,2602.83 2169.5,2599.5C 2172.83,2599.5 2176.17,2599.5 2179.5,2599.5C 2179.5,2456.17 2179.5,2312.83 2179.5,2169.5 Z"/></g>
<g><path style="opacity:1" fill="#955a77" d="M 2599.5,2169.5 C 2602.83,2169.5 2606.17,2169.5 2609.5,2169.5C 2609.5,2459.5 2609.5,2749.5 2609.5,3039.5C 2606.17,3039.5 2602.83,3039.5 2599.5,3039.5C 2599.5,2749.5 2599.5,2459.5 2599.5,2169.5 Z"/></g>
<g><path style="opacity:1" fill="#fd97c9" d="M 2609.5,2169.5 C 4636.17,2169.5 6662.83,2169.5 8689.5,2169.5C 8689.5,2312.83 8689.5,2456.17 8689.5,2599.5C 8546.17,2599.5 8402.83,2599.5 8259.5,2599.5C 8259.5,2602.83 8259.5,2606.17 8259.5,2609.5C 8259.5,2752.83 8259.5,2896.17 8259.5,3039.5C 8259.5,3182.83 8259.5,3326.17 8259.5,3469.5C 8116.17,3469.5 7972.83,3469.5 7829.5,3469.5C 7829.5,3182.83 7829.5,2896.17 7829.5,2609.5C 7829.5,2606.17 7829.5,2602.83 7829.5,2599.5C 7682.83,2599.5 7536.17,2599.5 7389.5,2599.5C 7386.17,2599.5 7382.83,2599.5 7379.5,2599.5C 7379.5,2889.5 7379.5,3179.5 7379.5,3469.5C 7239.5,3469.5 7099.5,3469.5 6959.5,3469.5C 6959.5,3182.83 6959.5,2896.17 6959.5,2609.5C 6959.5,2606.17 6959.5,2602.83 6959.5,2599.5C 6956.17,2599.5 6952.83,2599.5 6949.5,2599.5C 6806.17,2599.5 6662.83,2599.5 6519.5,2599.5C 6519.5,2602.83 6519.5,2606.17 6519.5,2609.5C 6519.5,2896.17 6519.5,3182.83 6519.5,3469.5C 6376.17,3469.5 6232.83,3469.5 6089.5,3469.5C 6089.5,3182.83 6089.5,2896.17 6089.5,2609.5C 6089.5,2606.17 6089.5,2602.83 6089.5,2599.5C 5942.83,2599.5 5796.17,2599.5 5649.5,2599.5C 5649.5,2602.83 5649.5,2606.17 5649.5,2609.5C 5649.5,2896.17 5649.5,3182.83 5649.5,3469.5C 5506.17,3469.5 5362.83,3469.5 5219.5,3469.5C 5219.5,3472.83 5219.5,3476.17 5219.5,3479.5C 5216.17,3479.5 5212.83,3479.5 5209.5,3479.5C 5209.5,3766.17 5209.5,4052.83 5209.5,4339.5C 5066.17,4339.5 4922.83,4339.5 4779.5,4339.5C 4779.5,4342.83 4779.5,4346.17 4779.5,4349.5C 4779.5,4492.83 4779.5,4636.17 4779.5,4779.5C 4779.5,4782.83 4779.5,4786.17 4779.5,4789.5C 4926.17,4789.5 5072.83,4789.5 5219.5,4789.5C 5219.5,4786.17 5219.5,4782.83 5219.5,4779.5C 5219.5,4636.17 5219.5,4492.83 5219.5,4349.5C 5362.83,4349.5 5506.17,4349.5 5649.5,4349.5C 5649.5,4492.83 5649.5,4636.17 5649.5,4779.5C 5649.5,4782.83 5649.5,4786.17 5649.5,4789.5C 5796.17,4789.5 5942.83,4789.5 6089.5,4789.5C 6089.5,4786.17 6089.5,4782.83 6089.5,4779.5C 6089.5,4636.17 6089.5,4492.83 6089.5,4349.5C 6232.83,4349.5 6376.17,4349.5 6519.5,4349.5C 6519.5,4492.83 6519.5,4636.17 6519.5,4779.5C 6519.5,4782.83 6519.5,4786.17 6519.5,4789.5C 6666.17,4789.5 6812.83,4789.5 6959.5,4789.5C 6959.5,4786.17 6959.5,4782.83 6959.5,4779.5C 6959.5,4636.17 6959.5,4492.83 6959.5,4349.5C 7102.83,4349.5 7246.17,4349.5 7389.5,4349.5C 7389.5,4059.5 7389.5,3769.5 7389.5,3479.5C 7536.17,3479.5 7682.83,3479.5 7829.5,3479.5C 7829.5,3619.5 7829.5,3759.5 7829.5,3899.5C 7829.5,3902.83 7829.5,3906.17 7829.5,3909.5C 7826.17,3909.5 7822.83,3909.5 7819.5,3909.5C 7819.5,4199.5 7819.5,4489.5 7819.5,4779.5C 7676.17,4779.5 7532.83,4779.5 7389.5,4779.5C 7386.17,4779.5 7382.83,4779.5 7379.5,4779.5C 7379.5,4922.83 7379.5,5066.17 7379.5,5209.5C 5356.17,5209.5 3332.83,5209.5 1309.5,5209.5C 1309.5,4922.83 1309.5,4636.17 1309.5,4349.5C 1452.83,4349.5 1596.17,4349.5 1739.5,4349.5C 1739.5,4346.17 1739.5,4342.83 1739.5,4339.5C 1739.5,4196.17 1739.5,4052.83 1739.5,3909.5C 1739.5,3766.17 1739.5,3622.83 1739.5,3479.5C 1882.83,3479.5 2026.17,3479.5 2169.5,3479.5C 2172.83,3479.5 2176.17,3479.5 2179.5,3479.5C 2179.5,3336.17 2179.5,3192.83 2179.5,3049.5C 2319.5,3049.5 2459.5,3049.5 2599.5,3049.5C 2599.5,3046.17 2599.5,3042.83 2599.5,3039.5C 2602.83,3039.5 2606.17,3039.5 2609.5,3039.5C 2609.5,2749.5 2609.5,2459.5 2609.5,2169.5 Z"/></g>
<g><path style="opacity:1" fill="#5b3648" d="M 8689.5,2169.5 C 8692.83,2169.5 8696.17,2169.5 8699.5,2169.5C 8699.5,2316.17 8699.5,2462.83 8699.5,2609.5C 8696.17,2609.5 8692.83,2609.5 8689.5,2609.5C 8689.5,2606.17 8689.5,2602.83 8689.5,2599.5C 8689.5,2456.17 8689.5,2312.83 8689.5,2169.5 Z"/></g>
<g><path style="opacity:1" fill="#7c007d" d="M 2169.5,2599.5 C 2169.5,2602.83 2169.5,2606.17 2169.5,2609.5C 2026.17,2609.5 1882.83,2609.5 1739.5,2609.5C 1739.5,2606.17 1739.5,2602.83 1739.5,2599.5C 1882.83,2599.5 2026.17,2599.5 2169.5,2599.5 Z"/></g>
<g><path style="opacity:1" fill="#b0cbca" d="M 6089.5,2609.5 C 6086.17,2609.5 6082.83,2609.5 6079.5,2609.5C 5936.17,2609.5 5792.83,2609.5 5649.5,2609.5C 5649.5,2606.17 5649.5,2602.83 5649.5,2599.5C 5796.17,2599.5 5942.83,2599.5 6089.5,2599.5C 6089.5,2602.83 6089.5,2606.17 6089.5,2609.5 Z"/></g>
<g><path style="opacity:1" fill="#b0cbca" d="M 6949.5,2599.5 C 6949.5,2602.83 6949.5,2606.17 6949.5,2609.5C 6809.5,2609.5 6669.5,2609.5 6529.5,2609.5C 6526.17,2609.5 6522.83,2609.5 6519.5,2609.5C 6519.5,2606.17 6519.5,2602.83 6519.5,2599.5C 6662.83,2599.5 6806.17,2599.5 6949.5,2599.5 Z"/></g>
<g><path style="opacity:1" fill="#d5b3c9" d="M 6949.5,2599.5 C 6952.83,2599.5 6956.17,2599.5 6959.5,2599.5C 6959.5,2602.83 6959.5,2606.17 6959.5,2609.5C 6956.17,2609.5 6952.83,2609.5 6949.5,2609.5C 6949.5,2606.17 6949.5,2602.83 6949.5,2599.5 Z"/></g>
<g><path style="opacity:1" fill="#b0cbca" d="M 7389.5,2599.5 C 7536.17,2599.5 7682.83,2599.5 7829.5,2599.5C 7829.5,2602.83 7829.5,2606.17 7829.5,2609.5C 7826.17,2609.5 7822.83,2609.5 7819.5,2609.5C 7676.17,2609.5 7532.83,2609.5 7389.5,2609.5C 7389.5,2606.17 7389.5,2602.83 7389.5,2599.5 Z"/></g>
<g><path style="opacity:1" fill="#854b66" d="M 8689.5,2599.5 C 8689.5,2602.83 8689.5,2606.17 8689.5,2609.5C 8546.17,2609.5 8402.83,2609.5 8259.5,2609.5C 8259.5,2606.17 8259.5,2602.83 8259.5,2599.5C 8402.83,2599.5 8546.17,2599.5 8689.5,2599.5 Z"/></g>
<g><path style="opacity:1" fill="#5f005f" d="M 1299.5,2609.5 C 1302.83,2609.5 1306.17,2609.5 1309.5,2609.5C 1309.5,2896.17 1309.5,3182.83 1309.5,3469.5C 1309.5,3472.83 1309.5,3476.17 1309.5,3479.5C 1306.17,3479.5 1302.83,3479.5 1299.5,3479.5C 1299.5,3476.17 1299.5,3472.83 1299.5,3469.5C 1299.5,3329.5 1299.5,3189.5 1299.5,3049.5C 1299.5,2902.83 1299.5,2756.17 1299.5,2609.5 Z"/></g>
<g><path style="opacity:1" fill="#f600f7" d="M 1739.5,2609.5 C 1739.5,2896.17 1739.5,3182.83 1739.5,3469.5C 1736.17,3469.5 1732.83,3469.5 1729.5,3469.5C 1729.5,3182.83 1729.5,2896.17 1729.5,2609.5C 1732.83,2609.5 1736.17,2609.5 1739.5,2609.5 Z"/></g>
<g><path style="opacity:1" fill="#65fcca" d="M 5649.5,2609.5 C 5792.83,2609.5 5936.17,2609.5 6079.5,2609.5C 6079.5,2896.17 6079.5,3182.83 6079.5,3469.5C 5936.17,3469.5 5792.83,3469.5 5649.5,3469.5C 5649.5,3182.83 5649.5,2896.17 5649.5,2609.5 Z"/></g>
<g><path style="opacity:1" fill="#8ce2ca" d="M 6079.5,2609.5 C 6082.83,2609.5 6086.17,2609.5 6089.5,2609.5C 6089.5,2896.17 6089.5,3182.83 6089.5,3469.5C 6086.17,3469.5 6082.83,3469.5 6079.5,3469.5C 6079.5,3182.83 6079.5,2896.17 6079.5,2609.5 Z"/></g>
<g><path style="opacity:1" fill="#80eac9" d="M 6519.5,2609.5 C 6522.83,2609.5 6526.17,2609.5 6529.5,2609.5C 6529.5,2896.17 6529.5,3182.83 6529.5,3469.5C 6526.17,3469.5 6522.83,3469.5 6519.5,3469.5C 6519.5,3182.83 6519.5,2896.17 6519.5,2609.5 Z"/></g>
<g><path style="opacity:1" fill="#65fcca" d="M 6529.5,2609.5 C 6669.5,2609.5 6809.5,2609.5 6949.5,2609.5C 6949.5,2896.17 6949.5,3182.83 6949.5,3469.5C 6809.5,3469.5 6669.5,3469.5 6529.5,3469.5C 6529.5,3182.83 6529.5,2896.17 6529.5,2609.5 Z"/></g>
<g><path style="opacity:1" fill="#b1caca" d="M 6949.5,2609.5 C 6952.83,2609.5 6956.17,2609.5 6959.5,2609.5C 6959.5,2896.17 6959.5,3182.83 6959.5,3469.5C 6959.5,3472.83 6959.5,3476.17 6959.5,3479.5C 6959.5,3766.17 6959.5,4052.83 6959.5,4339.5C 6959.5,4342.83 6959.5,4346.17 6959.5,4349.5C 6959.5,4492.83 6959.5,4636.17 6959.5,4779.5C 6956.17,4779.5 6952.83,4779.5 6949.5,4779.5C 6949.5,4636.17 6949.5,4492.83 6949.5,4349.5C 6949.5,4346.17 6949.5,4342.83 6949.5,4339.5C 6949.5,4052.83 6949.5,3766.17 6949.5,3479.5C 6949.5,3476.17 6949.5,3472.83 6949.5,3469.5C 6949.5,3182.83 6949.5,2896.17 6949.5,2609.5 Z"/></g>
<g><path style="opacity:1" fill="#e7a6c9" d="M 7389.5,2599.5 C 7389.5,2602.83 7389.5,2606.17 7389.5,2609.5C 7389.5,2896.17 7389.5,3182.83 7389.5,3469.5C 7386.17,3469.5 7382.83,3469.5 7379.5,3469.5C 7379.5,3179.5 7379.5,2889.5 7379.5,2599.5C 7382.83,2599.5 7386.17,2599.5 7389.5,2599.5 Z"/></g>
<g><path style="opacity:1" fill="#65fcca" d="M 7389.5,2609.5 C 7532.83,2609.5 7676.17,2609.5 7819.5,2609.5C 7819.5,2896.17 7819.5,3182.83 7819.5,3469.5C 7676.17,3469.5 7532.83,3469.5 7389.5,3469.5C 7389.5,3182.83 7389.5,2896.17 7389.5,2609.5 Z"/></g>
<g><path style="opacity:1" fill="#6ef6ca" d="M 7819.5,2609.5 C 7822.83,2609.5 7826.17,2609.5 7829.5,2609.5C 7829.5,2896.17 7829.5,3182.83 7829.5,3469.5C 7826.17,3469.5 7822.83,3469.5 7819.5,3469.5C 7819.5,3182.83 7819.5,2896.17 7819.5,2609.5 Z"/></g>
<g><path style="opacity:1" fill="#120208" d="M 8259.5,2609.5 C 8402.83,2609.5 8546.17,2609.5 8689.5,2609.5C 8689.5,2612.83 8689.5,2616.17 8689.5,2619.5C 8549.5,2619.5 8409.5,2619.5 8269.5,2619.5C 8269.5,2759.5 8269.5,2899.5 8269.5,3039.5C 8266.17,3039.5 8262.83,3039.5 8259.5,3039.5C 8259.5,2896.17 8259.5,2752.83 8259.5,2609.5 Z"/></g>
<g><path style="opacity:0.985" fill="#0e0004" d="M 8689.5,2609.5 C 8692.83,2609.5 8696.17,2609.5 8699.5,2609.5C 8699.5,2612.83 8699.5,2616.17 8699.5,2619.5C 8699.5,2759.5 8699.5,2899.5 8699.5,3039.5C 8556.17,3039.5 8412.83,3039.5 8269.5,3039.5C 8269.5,2899.5 8269.5,2759.5 8269.5,2619.5C 8409.5,2619.5 8549.5,2619.5 8689.5,2619.5C 8689.5,2616.17 8689.5,2612.83 8689.5,2609.5 Z"/></g>
<g><path style="opacity:1" fill="#a66384" d="M 2599.5,3039.5 C 2599.5,3042.83 2599.5,3046.17 2599.5,3049.5C 2459.5,3049.5 2319.5,3049.5 2179.5,3049.5C 2176.17,3049.5 2172.83,3049.5 2169.5,3049.5C 2169.5,3046.17 2169.5,3042.83 2169.5,3039.5C 2312.83,3039.5 2456.17,3039.5 2599.5,3039.5 Z"/></g>
<g><path style="opacity:1" fill="#060007" d="M 1299.5,3049.5 C 1299.5,3189.5 1299.5,3329.5 1299.5,3469.5C 1156.17,3469.5 1012.83,3469.5 869.5,3469.5C 869.5,3329.5 869.5,3189.5 869.5,3049.5C 1012.83,3049.5 1156.17,3049.5 1299.5,3049.5 Z"/></g>
<g><path style="opacity:1" fill="#ef8fbe" d="M 2169.5,3049.5 C 2172.83,3049.5 2176.17,3049.5 2179.5,3049.5C 2179.5,3192.83 2179.5,3336.17 2179.5,3479.5C 2176.17,3479.5 2172.83,3479.5 2169.5,3479.5C 2169.5,3476.17 2169.5,3472.83 2169.5,3469.5C 2169.5,3329.5 2169.5,3189.5 2169.5,3049.5 Z"/></g>
<g><path style="opacity:1" fill="#0d000e" d="M 869.5,3469.5 C 1012.83,3469.5 1156.17,3469.5 1299.5,3469.5C 1299.5,3472.83 1299.5,3476.17 1299.5,3479.5C 1156.17,3479.5 1012.83,3479.5 869.5,3479.5C 869.5,3476.17 869.5,3472.83 869.5,3469.5 Z"/></g>
<g><path style="opacity:1" fill="#a800a8" d="M 1309.5,3469.5 C 1449.5,3469.5 1589.5,3469.5 1729.5,3469.5C 1732.83,3469.5 1736.17,3469.5 1739.5,3469.5C 1739.5,3472.83 1739.5,3476.17 1739.5,3479.5C 1736.17,3479.5 1732.83,3479.5 1729.5,3479.5C 1589.5,3479.5 1449.5,3479.5 1309.5,3479.5C 1309.5,3476.17 1309.5,3472.83 1309.5,3469.5 Z"/></g>
<g><path style="opacity:1" fill="#563445" d="M 1739.5,3469.5 C 1882.83,3469.5 2026.17,3469.5 2169.5,3469.5C 2169.5,3472.83 2169.5,3476.17 2169.5,3479.5C 2026.17,3479.5 1882.83,3479.5 1739.5,3479.5C 1739.5,3476.17 1739.5,3472.83 1739.5,3469.5 Z"/></g>
<g><path style="opacity:1" fill="#c8bbc9" d="M 5649.5,3469.5 C 5649.5,3472.83 5649.5,3476.17 5649.5,3479.5C 5506.17,3479.5 5362.83,3479.5 5219.5,3479.5C 5219.5,3476.17 5219.5,3472.83 5219.5,3469.5C 5362.83,3469.5 5506.17,3469.5 5649.5,3469.5 Z"/></g>
<g><path style="opacity:1" fill="#9ad9ca" d="M 5649.5,3469.5 C 5792.83,3469.5 5936.17,3469.5 6079.5,3469.5C 6082.83,3469.5 6086.17,3469.5 6089.5,3469.5C 6089.5,3472.83 6089.5,3476.17 6089.5,3479.5C 6086.17,3479.5 6082.83,3479.5 6079.5,3479.5C 5936.17,3479.5 5792.83,3479.5 5649.5,3479.5C 5649.5,3476.17 5649.5,3472.83 5649.5,3469.5 Z"/></g>
<g><path style="opacity:1" fill="#c8bbc9" d="M 6089.5,3469.5 C 6232.83,3469.5 6376.17,3469.5 6519.5,3469.5C 6519.5,3472.83 6519.5,3476.17 6519.5,3479.5C 6376.17,3479.5 6232.83,3479.5 6089.5,3479.5C 6089.5,3476.17 6089.5,3472.83 6089.5,3469.5 Z"/></g>
<g><path style="opacity:1" fill="#9ad9ca" d="M 6519.5,3469.5 C 6522.83,3469.5 6526.17,3469.5 6529.5,3469.5C 6669.5,3469.5 6809.5,3469.5 6949.5,3469.5C 6949.5,3472.83 6949.5,3476.17 6949.5,3479.5C 6809.5,3479.5 6669.5,3479.5 6529.5,3479.5C 6526.17,3479.5 6522.83,3479.5 6519.5,3479.5C 6519.5,3476.17 6519.5,3472.83 6519.5,3469.5 Z"/></g>
<g><path style="opacity:1" fill="#c8bbca" d="M 6959.5,3469.5 C 7099.5,3469.5 7239.5,3469.5 7379.5,3469.5C 7382.83,3469.5 7386.17,3469.5 7389.5,3469.5C 7389.5,3472.83 7389.5,3476.17 7389.5,3479.5C 7386.17,3479.5 7382.83,3479.5 7379.5,3479.5C 7239.5,3479.5 7099.5,3479.5 6959.5,3479.5C 6959.5,3476.17 6959.5,3472.83 6959.5,3469.5 Z"/></g>
<g><path style="opacity:1" fill="#9ad9ca" d="M 7389.5,3469.5 C 7532.83,3469.5 7676.17,3469.5 7819.5,3469.5C 7822.83,3469.5 7826.17,3469.5 7829.5,3469.5C 7829.5,3472.83 7829.5,3476.17 7829.5,3479.5C 7682.83,3479.5 7536.17,3479.5 7389.5,3479.5C 7389.5,3476.17 7389.5,3472.83 7389.5,3469.5 Z"/></g>
<g><path style="opacity:1" fill="#f498c5" d="M 7829.5,3469.5 C 7972.83,3469.5 8116.17,3469.5 8259.5,3469.5C 8259.5,3472.83 8259.5,3476.17 8259.5,3479.5C 8116.17,3479.5 7972.83,3479.5 7829.5,3479.5C 7829.5,3476.17 7829.5,3472.83 7829.5,3469.5 Z"/></g>
<g><path style="opacity:1" fill="#0c000c" d="M 869.5,3479.5 C 869.5,3622.83 869.5,3766.17 869.5,3909.5C 866.167,3909.5 862.833,3909.5 859.5,3909.5C 859.5,3766.17 859.5,3622.83 859.5,3479.5C 862.833,3479.5 866.167,3479.5 869.5,3479.5 Z"/></g>
<g><path style="opacity:1" fill="#1b001a" d="M 869.5,3479.5 C 1012.83,3479.5 1156.17,3479.5 1299.5,3479.5C 1299.5,3622.83 1299.5,3766.17 1299.5,3909.5C 1156.17,3909.5 1012.83,3909.5 869.5,3909.5C 869.5,3766.17 869.5,3622.83 869.5,3479.5 Z"/></g>
<g><path style="opacity:1" fill="#130013" d="M 1299.5,3479.5 C 1302.83,3479.5 1306.17,3479.5 1309.5,3479.5C 1309.5,3622.83 1309.5,3766.17 1309.5,3909.5C 1306.17,3909.5 1302.83,3909.5 1299.5,3909.5C 1299.5,3766.17 1299.5,3622.83 1299.5,3479.5 Z"/></g>
<g><path style="opacity:1" fill="#0c040a" d="M 1729.5,3479.5 C 1732.83,3479.5 1736.17,3479.5 1739.5,3479.5C 1739.5,3622.83 1739.5,3766.17 1739.5,3909.5C 1736.17,3909.5 1732.83,3909.5 1729.5,3909.5C 1729.5,3766.17 1729.5,3622.83 1729.5,3479.5 Z"/></g>
<g><path style="opacity:1" fill="#cabaca" d="M 5219.5,3479.5 C 5219.5,3766.17 5219.5,4052.83 5219.5,4339.5C 5219.5,4342.83 5219.5,4346.17 5219.5,4349.5C 5216.17,4349.5 5212.83,4349.5 5209.5,4349.5C 5209.5,4346.17 5209.5,4342.83 5209.5,4339.5C 5209.5,4052.83 5209.5,3766.17 5209.5,3479.5C 5212.83,3479.5 5216.17,3479.5 5219.5,3479.5 Z"/></g>
<g><path style="opacity:1" fill="#65fdc9" d="M 5219.5,3479.5 C 5362.83,3479.5 5506.17,3479.5 5649.5,3479.5C 5649.5,3766.17 5649.5,4052.83 5649.5,4339.5C 5506.17,4339.5 5362.83,4339.5 5219.5,4339.5C 5219.5,4052.83 5219.5,3766.17 5219.5,3479.5 Z"/></g>
<g><path style="opacity:1" fill="#fd98c9" d="M 5649.5,3479.5 C 5792.83,3479.5 5936.17,3479.5 6079.5,3479.5C 6079.5,3766.17 6079.5,4052.83 6079.5,4339.5C 5936.17,4339.5 5792.83,4339.5 5649.5,4339.5C 5649.5,4052.83 5649.5,3766.17 5649.5,3479.5 Z"/></g>
<g><path style="opacity:1" fill="#d6b2ca" d="M 6079.5,3479.5 C 6082.83,3479.5 6086.17,3479.5 6089.5,3479.5C 6089.5,3766.17 6089.5,4052.83 6089.5,4339.5C 6089.5,4342.83 6089.5,4346.17 6089.5,4349.5C 6086.17,4349.5 6082.83,4349.5 6079.5,4349.5C 6079.5,4346.17 6079.5,4342.83 6079.5,4339.5C 6079.5,4052.83 6079.5,3766.17 6079.5,3479.5 Z"/></g>
<g><path style="opacity:1" fill="#65fdc9" d="M 6089.5,3479.5 C 6232.83,3479.5 6376.17,3479.5 6519.5,3479.5C 6519.5,3766.17 6519.5,4052.83 6519.5,4339.5C 6376.17,4339.5 6232.83,4339.5 6089.5,4339.5C 6089.5,4052.83 6089.5,3766.17 6089.5,3479.5 Z"/></g>
<g><path style="opacity:1" fill="#e2aaca" d="M 6519.5,3479.5 C 6522.83,3479.5 6526.17,3479.5 6529.5,3479.5C 6529.5,3766.17 6529.5,4052.83 6529.5,4339.5C 6529.5,4342.83 6529.5,4346.17 6529.5,4349.5C 6526.17,4349.5 6522.83,4349.5 6519.5,4349.5C 6519.5,4346.17 6519.5,4342.83 6519.5,4339.5C 6519.5,4052.83 6519.5,3766.17 6519.5,3479.5 Z"/></g>
<g><path style="opacity:1" fill="#fd98c9" d="M 6529.5,3479.5 C 6669.5,3479.5 6809.5,3479.5 6949.5,3479.5C 6949.5,3766.17 6949.5,4052.83 6949.5,4339.5C 6809.5,4339.5 6669.5,4339.5 6529.5,4339.5C 6529.5,4052.83 6529.5,3766.17 6529.5,3479.5 Z"/></g>
<g><path style="opacity:1" fill="#65fdc9" d="M 6959.5,3479.5 C 7099.5,3479.5 7239.5,3479.5 7379.5,3479.5C 7379.5,3766.17 7379.5,4052.83 7379.5,4339.5C 7239.5,4339.5 7099.5,4339.5 6959.5,4339.5C 6959.5,4052.83 6959.5,3766.17 6959.5,3479.5 Z"/></g>
<g><path style="opacity:1" fill="#7cedca" d="M 7379.5,3479.5 C 7382.83,3479.5 7386.17,3479.5 7389.5,3479.5C 7389.5,3769.5 7389.5,4059.5 7389.5,4349.5C 7246.17,4349.5 7102.83,4349.5 6959.5,4349.5C 6959.5,4346.17 6959.5,4342.83 6959.5,4339.5C 7099.5,4339.5 7239.5,4339.5 7379.5,4339.5C 7379.5,4052.83 7379.5,3766.17 7379.5,3479.5 Z"/></g>
<g><path style="opacity:1" fill="#e497be" d="M 7829.5,3479.5 C 7972.83,3479.5 8116.17,3479.5 8259.5,3479.5C 8259.5,3619.5 8259.5,3759.5 8259.5,3899.5C 8116.17,3899.5 7972.83,3899.5 7829.5,3899.5C 7829.5,3759.5 7829.5,3619.5 7829.5,3479.5 Z"/></g>
<g><path style="opacity:1" fill="#de93b9" d="M 7829.5,3899.5 C 7972.83,3899.5 8116.17,3899.5 8259.5,3899.5C 8259.5,3902.83 8259.5,3906.17 8259.5,3909.5C 8116.17,3909.5 7972.83,3909.5 7829.5,3909.5C 7829.5,3906.17 7829.5,3902.83 7829.5,3899.5 Z"/></g>
<g><path style="opacity:1" fill="#291821" d="M 1739.5,4339.5 C 1739.5,4342.83 1739.5,4346.17 1739.5,4349.5C 1596.17,4349.5 1452.83,4349.5 1309.5,4349.5C 1309.5,4346.17 1309.5,4342.83 1309.5,4339.5C 1452.83,4339.5 1596.17,4339.5 1739.5,4339.5 Z"/></g>
<g><path style="opacity:1" fill="#e6a7c9" d="M 5209.5,4339.5 C 5209.5,4342.83 5209.5,4346.17 5209.5,4349.5C 5069.5,4349.5 4929.5,4349.5 4789.5,4349.5C 4786.17,4349.5 4782.83,4349.5 4779.5,4349.5C 4779.5,4346.17 4779.5,4342.83 4779.5,4339.5C 4922.83,4339.5 5066.17,4339.5 5209.5,4339.5 Z"/></g>
<g><path style="opacity:1" fill="#7eedc9" d="M 5219.5,4339.5 C 5362.83,4339.5 5506.17,4339.5 5649.5,4339.5C 5649.5,4342.83 5649.5,4346.17 5649.5,4349.5C 5506.17,4349.5 5362.83,4349.5 5219.5,4349.5C 5219.5,4346.17 5219.5,4342.83 5219.5,4339.5 Z"/></g>
<g><path style="opacity:1" fill="#e4a8c9" d="M 5649.5,4339.5 C 5792.83,4339.5 5936.17,4339.5 6079.5,4339.5C 6079.5,4342.83 6079.5,4346.17 6079.5,4349.5C 5936.17,4349.5 5792.83,4349.5 5649.5,4349.5C 5649.5,4346.17 5649.5,4342.83 5649.5,4339.5 Z"/></g>
<g><path style="opacity:1" fill="#7eedc9" d="M 6089.5,4339.5 C 6232.83,4339.5 6376.17,4339.5 6519.5,4339.5C 6519.5,4342.83 6519.5,4346.17 6519.5,4349.5C 6376.17,4349.5 6232.83,4349.5 6089.5,4349.5C 6089.5,4346.17 6089.5,4342.83 6089.5,4339.5 Z"/></g>
<g><path style="opacity:1" fill="#e4a8c9" d="M 6529.5,4339.5 C 6669.5,4339.5 6809.5,4339.5 6949.5,4339.5C 6949.5,4342.83 6949.5,4346.17 6949.5,4349.5C 6809.5,4349.5 6669.5,4349.5 6529.5,4349.5C 6529.5,4346.17 6529.5,4342.83 6529.5,4339.5 Z"/></g>
<g><path style="opacity:1" fill="#5b3748" d="M 1309.5,4349.5 C 1309.5,4636.17 1309.5,4922.83 1309.5,5209.5C 1306.17,5209.5 1302.83,5209.5 1299.5,5209.5C 1299.5,4922.83 1299.5,4636.17 1299.5,4349.5C 1302.83,4349.5 1306.17,4349.5 1309.5,4349.5 Z"/></g>
<g><path style="opacity:1" fill="#99dbc9" d="M 4779.5,4349.5 C 4782.83,4349.5 4786.17,4349.5 4789.5,4349.5C 4789.5,4492.83 4789.5,4636.17 4789.5,4779.5C 4786.17,4779.5 4782.83,4779.5 4779.5,4779.5C 4779.5,4636.17 4779.5,4492.83 4779.5,4349.5 Z"/></g>
<g><path style="opacity:1" fill="#68fcc9" d="M 4789.5,4349.5 C 4929.5,4349.5 5069.5,4349.5 5209.5,4349.5C 5209.5,4492.83 5209.5,4636.17 5209.5,4779.5C 5069.5,4779.5 4929.5,4779.5 4789.5,4779.5C 4789.5,4636.17 4789.5,4492.83 4789.5,4349.5 Z"/></g>
<g><path style="opacity:1" fill="#99dbc9" d="M 5209.5,4349.5 C 5212.83,4349.5 5216.17,4349.5 5219.5,4349.5C 5219.5,4492.83 5219.5,4636.17 5219.5,4779.5C 5216.17,4779.5 5212.83,4779.5 5209.5,4779.5C 5209.5,4636.17 5209.5,4492.83 5209.5,4349.5 Z"/></g>
<g><path style="opacity:1" fill="#65fdc9" d="M 5649.5,4349.5 C 5792.83,4349.5 5936.17,4349.5 6079.5,4349.5C 6079.5,4492.83 6079.5,4636.17 6079.5,4779.5C 5936.17,4779.5 5792.83,4779.5 5649.5,4779.5C 5649.5,4636.17 5649.5,4492.83 5649.5,4349.5 Z"/></g>
<g><path style="opacity:1" fill="#8ce3c9" d="M 6079.5,4349.5 C 6082.83,4349.5 6086.17,4349.5 6089.5,4349.5C 6089.5,4492.83 6089.5,4636.17 6089.5,4779.5C 6086.17,4779.5 6082.83,4779.5 6079.5,4779.5C 6079.5,4636.17 6079.5,4492.83 6079.5,4349.5 Z"/></g>
<g><path style="opacity:1" fill="#80ebc9" d="M 6519.5,4349.5 C 6522.83,4349.5 6526.17,4349.5 6529.5,4349.5C 6529.5,4492.83 6529.5,4636.17 6529.5,4779.5C 6526.17,4779.5 6522.83,4779.5 6519.5,4779.5C 6519.5,4636.17 6519.5,4492.83 6519.5,4349.5 Z"/></g>
<g><path style="opacity:1" fill="#65fdc9" d="M 6529.5,4349.5 C 6669.5,4349.5 6809.5,4349.5 6949.5,4349.5C 6949.5,4492.83 6949.5,4636.17 6949.5,4779.5C 6809.5,4779.5 6669.5,4779.5 6529.5,4779.5C 6529.5,4636.17 6529.5,4492.83 6529.5,4349.5 Z"/></g>
<g><path style="opacity:1" fill="#ef8fbe" d="M 7829.5,3909.5 C 7829.5,4056.17 7829.5,4202.83 7829.5,4349.5C 7829.5,4492.83 7829.5,4636.17 7829.5,4779.5C 7826.17,4779.5 7822.83,4779.5 7819.5,4779.5C 7819.5,4489.5 7819.5,4199.5 7819.5,3909.5C 7822.83,3909.5 7826.17,3909.5 7829.5,3909.5 Z"/></g>
<g><path style="opacity:1" fill="#0d0e0d" d="M 7829.5,4349.5 C 7972.83,4349.5 8116.17,4349.5 8259.5,4349.5C 8259.5,4492.83 8259.5,4636.17 8259.5,4779.5C 8116.17,4779.5 7972.83,4779.5 7829.5,4779.5C 7829.5,4636.17 7829.5,4492.83 7829.5,4349.5 Z"/></g>
<g><path style="opacity:1" fill="#eea2c9" d="M 4779.5,4779.5 C 4782.83,4779.5 4786.17,4779.5 4789.5,4779.5C 4929.5,4779.5 5069.5,4779.5 5209.5,4779.5C 5212.83,4779.5 5216.17,4779.5 5219.5,4779.5C 5219.5,4782.83 5219.5,4786.17 5219.5,4789.5C 5072.83,4789.5 4926.17,4789.5 4779.5,4789.5C 4779.5,4786.17 4779.5,4782.83 4779.5,4779.5 Z"/></g>
<g><path style="opacity:1" fill="#eda2c9" d="M 5649.5,4779.5 C 5792.83,4779.5 5936.17,4779.5 6079.5,4779.5C 6082.83,4779.5 6086.17,4779.5 6089.5,4779.5C 6089.5,4782.83 6089.5,4786.17 6089.5,4789.5C 5942.83,4789.5 5796.17,4789.5 5649.5,4789.5C 5649.5,4786.17 5649.5,4782.83 5649.5,4779.5 Z"/></g>
<g><path style="opacity:1" fill="#eda2c9" d="M 6519.5,4779.5 C 6522.83,4779.5 6526.17,4779.5 6529.5,4779.5C 6669.5,4779.5 6809.5,4779.5 6949.5,4779.5C 6952.83,4779.5 6956.17,4779.5 6959.5,4779.5C 6959.5,4782.83 6959.5,4786.17 6959.5,4789.5C 6812.83,4789.5 6666.17,4789.5 6519.5,4789.5C 6519.5,4786.17 6519.5,4782.83 6519.5,4779.5 Z"/></g>
<g><path style="opacity:1" fill="#1b1015" d="M 7389.5,4779.5 C 7532.83,4779.5 7676.17,4779.5 7819.5,4779.5C 7822.83,4779.5 7826.17,4779.5 7829.5,4779.5C 7829.5,4782.83 7829.5,4786.17 7829.5,4789.5C 7682.83,4789.5 7536.17,4789.5 7389.5,4789.5C 7389.5,4786.17 7389.5,4782.83 7389.5,4779.5 Z"/></g>
<g><path style="opacity:1" fill="#d881ac" d="M 7389.5,4779.5 C 7389.5,4782.83 7389.5,4786.17 7389.5,4789.5C 7389.5,4929.5 7389.5,5069.5 7389.5,5209.5C 7386.17,5209.5 7382.83,5209.5 7379.5,5209.5C 7379.5,5066.17 7379.5,4922.83 7379.5,4779.5C 7382.83,4779.5 7386.17,4779.5 7389.5,4779.5 Z"/></g>
<g><path style="opacity:1" fill="#6b4055" d="M 1309.5,5209.5 C 3332.83,5209.5 5356.17,5209.5 7379.5,5209.5C 7382.83,5209.5 7386.17,5209.5 7389.5,5209.5C 7389.5,5212.83 7389.5,5216.17 7389.5,5219.5C 5362.83,5219.5 3336.17,5219.5 1309.5,5219.5C 1309.5,5216.17 1309.5,5212.83 1309.5,5209.5 Z"/></g>
</svg>
