<?xml version="1.0" encoding="UTF-8"?>
<!DOCTYPE svg PUBLIC "-//W3C//DTD SVG 1.1//EN" "http://www.w3.org/Graphics/SVG/1.1/DTD/svg11.dtd">
<svg xmlns="http://www.w3.org/2000/svg" version="1.1" width="1000px" height="1000px" style="shape-rendering:geometricPrecision; text-rendering:geometricPrecision; image-rendering:optimizeQuality; fill-rule:evenodd; clip-rule:evenodd" xmlns:xlink="http://www.w3.org/1999/xlink">
<g><path style="opacity:0.004" fill="#000000" d="M 168.5,210.5 C 169.833,210.5 171.167,210.5 172.5,210.5C 172.5,211.833 172.5,213.167 172.5,214.5C 168.529,215.204 167.195,213.871 168.5,210.5 Z"/></g>
<g><path style="opacity:0.004" fill="#000000" d="M 441.5,211.5 C 443.983,211.73 444.483,212.397 443,213.5C 441.97,213.164 441.47,212.497 441.5,211.5 Z"/></g>
<g><path style="opacity:0.919" fill="#000000" d="M 561.5,254.5 C 560.588,269.569 560.255,284.903 560.5,300.5C 506.664,300.168 452.997,300.501 399.5,301.5C 397.379,301.675 395.379,301.341 393.5,300.5C 393.5,298.833 393.5,297.167 393.5,295.5C 394.166,289.175 394.5,282.675 394.5,276C 394.497,269.131 393.83,262.631 392.5,256.5C 391.508,256.672 390.842,256.338 390.5,255.5C 332.001,254.335 273.335,254.168 214.5,255C 212.526,269.924 211.859,285.091 212.5,300.5C 184.167,300.5 155.833,300.5 127.5,300.5C 126.24,285.151 126.24,269.818 127.5,254.5C 142.504,254.667 157.504,254.5 172.5,254C 172.595,241.278 172.595,228.445 172.5,215.5C 261.833,215.5 351.167,215.5 440.5,215.5C 440.405,228.445 440.405,241.278 440.5,254C 480.832,254.5 521.165,254.667 561.5,254.5 Z"/></g>
<g><path style="opacity:0.004" fill="#000000" d="M 123.5,249.5 C 124.5,249.5 125.5,249.5 126.5,249.5C 126.5,250.833 126.5,252.167 126.5,253.5C 125.167,253.5 123.833,253.5 122.5,253.5C 122.433,252.041 122.766,250.708 123.5,249.5 Z"/></g>
<g><path style="opacity:0.004" fill="#000000" d="M 742.5,249.5 C 747.992,251.717 747.658,253.051 741.5,253.5C 741.433,252.041 741.766,250.708 742.5,249.5 Z"/></g>
<g><path style="opacity:1" fill="#140014" d="M 390.5,255.5 C 332.166,255.333 273.832,255.5 215.5,256C 214.177,256.816 213.511,257.983 213.5,259.5C 213.829,273.344 213.496,287.01 212.5,300.5C 211.859,285.091 212.526,269.924 214.5,255C 273.335,254.168 332.001,254.335 390.5,255.5 Z"/></g>
<g><path style="opacity:0.922" fill="#0f100f" d="M 561.5,254.5 C 577.167,254.5 592.833,254.5 608.5,254.5C 606.546,267.921 605.879,281.588 606.5,295.5C 591.833,295.5 577.167,295.5 562.5,295.5C 562.5,296.833 562.5,298.167 562.5,299.5C 577.167,299.5 591.833,299.5 606.5,299.5C 606.5,299.833 606.5,300.167 606.5,300.5C 591.167,300.5 575.833,300.5 560.5,300.5C 560.255,284.903 560.588,269.569 561.5,254.5 Z"/></g>
<g><path style="opacity:0.912" fill="#020302" d="M 608.5,254.5 C 652.833,254.5 697.167,254.5 741.5,254.5C 741.768,269.529 741.434,284.529 740.5,299.5C 740.5,299.833 740.5,300.167 740.5,300.5C 695.833,300.5 651.167,300.5 606.5,300.5C 606.5,300.167 606.5,299.833 606.5,299.5C 606.5,298.167 606.5,296.833 606.5,295.5C 605.879,281.588 606.546,267.921 608.5,254.5 Z"/></g>
<g><path style="opacity:1" fill="#390039" d="M 390.5,255.5 C 390.842,256.338 391.508,256.672 392.5,256.5C 393.48,269.421 393.814,282.421 393.5,295.5C 393.5,297.167 393.5,298.833 393.5,300.5C 392.669,286.673 392.169,272.673 392,258.5C 391.329,257.748 390.496,257.414 389.5,257.5C 332.001,256.335 274.335,256.168 216.5,257C 215.619,257.708 214.953,258.542 214.5,259.5C 214.167,259.5 213.833,259.5 213.5,259.5C 213.511,257.983 214.177,256.816 215.5,256C 273.832,255.5 332.166,255.333 390.5,255.5 Z"/></g>
<g><path style="opacity:1" fill="#670068" d="M 389.5,257.5 C 332.166,257.333 274.832,257.5 217.5,258C 217,258.5 216.5,259 216,259.5C 215.831,273.339 215.331,287.006 214.5,300.5C 214.5,286.833 214.5,273.167 214.5,259.5C 214.953,258.542 215.619,257.708 216.5,257C 274.335,256.168 332.001,256.335 389.5,257.5 Z"/></g>
<g><path style="opacity:1" fill="#c300c4" d="M 218.5,259.5 C 275.331,258.501 332.331,258.168 389.5,258.5C 389.5,259.167 389.5,259.833 389.5,260.5C 332.571,259.504 275.571,259.171 218.5,259.5 Z"/></g>
<g><path style="opacity:1" fill="#fd00fe" d="M 218.5,259.5 C 275.571,259.171 332.571,259.504 389.5,260.5C 389.5,274.5 389.5,288.5 389.5,302.5C 389.33,303.822 389.663,304.989 390.5,306C 504.001,306.833 617.334,306.666 730.5,305.5C 732.167,305.5 733.833,305.5 735.5,305.5C 735.5,319.167 735.5,332.833 735.5,346.5C 549.833,346.5 364.167,346.5 178.5,346.5C 176.887,333.629 175.721,320.629 175,307.5C 188.092,306.676 201.258,306.176 214.5,306C 215.5,305.5 216.5,305 217.5,304.5C 218.747,289.824 218.747,275.157 217.5,260.5C 217.5,259.833 217.833,259.5 218.5,259.5 Z"/></g>
<g><path style="opacity:1" fill="#180018" d="M 392.5,256.5 C 393.83,262.631 394.497,269.131 394.5,276C 394.5,282.675 394.166,289.175 393.5,295.5C 393.814,282.421 393.48,269.421 392.5,256.5 Z"/></g>
<g><path style="opacity:1" fill="#9e009f" d="M 389.5,258.5 C 390.117,258.611 390.617,258.944 391,259.5C 391.5,273.496 391.667,287.496 391.5,301.5C 390.833,287.833 390.167,274.167 389.5,260.5C 389.5,259.833 389.5,259.167 389.5,258.5 Z"/></g>
<g><path style="opacity:1" fill="#6d006d" d="M 389.5,258.5 C 389.5,258.167 389.5,257.833 389.5,257.5C 390.496,257.414 391.329,257.748 392,258.5C 392.169,272.673 392.669,286.673 393.5,300.5C 393.5,301.167 393.5,301.833 393.5,302.5C 392.833,302.167 392.167,301.833 391.5,301.5C 391.667,287.496 391.5,273.496 391,259.5C 390.617,258.944 390.117,258.611 389.5,258.5 Z"/></g>
<g><path style="opacity:1" fill="#9d009e" d="M 389.5,257.5 C 389.5,257.833 389.5,258.167 389.5,258.5C 332.331,258.168 275.331,258.501 218.5,259.5C 217.833,259.5 217.5,259.833 217.5,260.5C 216.504,273.99 216.171,287.656 216.5,301.5C 215.395,302.6 214.062,303.267 212.5,303.5C 212.5,303.167 212.5,302.833 212.5,302.5C 213.5,302.167 214.167,301.5 214.5,300.5C 215.331,287.006 215.831,273.339 216,259.5C 216.5,259 217,258.5 217.5,258C 274.832,257.5 332.166,257.333 389.5,257.5 Z"/></g>
<g><path style="opacity:1" fill="#cb00cc" d="M 389.5,260.5 C 390.167,274.167 390.833,287.833 391.5,301.5C 391.5,302.167 391.5,302.833 391.5,303.5C 390.833,303.167 390.167,302.833 389.5,302.5C 389.5,288.5 389.5,274.5 389.5,260.5 Z"/></g>
<g><path style="opacity:0.004" fill="#000000" d="M 77.5,295.5 C 78.5,295.5 79.5,295.5 80.5,295.5C 80.5,296.833 80.5,298.167 80.5,299.5C 79.1667,299.5 77.8333,299.5 76.5,299.5C 76.4326,298.041 76.7659,296.708 77.5,295.5 Z"/></g>
<g><path style="opacity:1" fill="#021202" d="M 606.5,295.5 C 606.5,296.833 606.5,298.167 606.5,299.5C 591.833,299.5 577.167,299.5 562.5,299.5C 562.5,298.167 562.5,296.833 562.5,295.5C 577.167,295.5 591.833,295.5 606.5,295.5 Z"/></g>
<g><path style="opacity:0.004" fill="#000000" d="M 787.5,295.5 C 788.833,295.5 790.167,295.5 791.5,295.5C 791.5,296.833 791.5,298.167 791.5,299.5C 790.167,299.5 788.833,299.5 787.5,299.5C 787.5,298.167 787.5,296.833 787.5,295.5 Z"/></g>
<g><path style="opacity:0.947" fill="#000000" d="M 740.5,299.5 C 756.165,299.824 771.665,300.824 787,302.5C 787.832,449.54 787.665,596.54 786.5,743.5C 551.501,744.5 316.501,744.833 81.5,744.5C 81.5,596.5 81.5,448.5 81.5,300.5C 96.8333,300.5 112.167,300.5 127.5,300.5C 127.333,360.834 127.5,421.168 128,481.5C 129.011,482.337 130.178,482.67 131.5,482.5C 145.837,482.667 160.171,482.5 174.5,482C 176.426,481.578 177.426,480.411 177.5,478.5C 177.168,435.997 177.501,393.663 178.5,351.5C 364.5,351.667 550.5,351.5 736.5,351C 738.333,350.5 739.5,349.333 740,347.5C 740.5,331.837 740.667,316.17 740.5,300.5C 740.5,300.167 740.5,299.833 740.5,299.5 Z"/></g>
<g><path style="opacity:1" fill="#420042" d="M 213.5,259.5 C 213.833,259.5 214.167,259.5 214.5,259.5C 214.5,273.167 214.5,286.833 214.5,300.5C 214.167,301.5 213.5,302.167 212.5,302.5C 200.5,302.5 188.5,302.5 176.5,302.5C 176.5,302.167 176.5,301.833 176.5,301.5C 188.678,301.828 200.678,301.495 212.5,300.5C 213.496,287.01 213.829,273.344 213.5,259.5 Z"/></g>
<g><path style="opacity:1" fill="#450245" d="M 393.5,300.5 C 395.379,301.341 397.379,301.675 399.5,301.5C 512.833,301.5 626.167,301.5 739.5,301.5C 739.829,316.676 739.496,331.676 738.5,346.5C 738.5,332.833 738.5,319.167 738.5,305.5C 738.586,304.504 738.252,303.671 737.5,303C 622.834,302.5 508.167,302.333 393.5,302.5C 393.5,301.833 393.5,301.167 393.5,300.5 Z"/></g>
<g><path style="opacity:1" fill="#720272" d="M 393.5,302.5 C 508.167,302.333 622.834,302.5 737.5,303C 738.252,303.671 738.586,304.504 738.5,305.5C 738.167,305.5 737.833,305.5 737.5,305.5C 737.5,304.833 737.167,304.5 736.5,304.5C 736.167,304.5 735.833,304.5 735.5,304.5C 621.5,303.833 507.5,303.167 393.5,302.5 Z"/></g>
<g><path style="opacity:1" fill="#a101a2" d="M 391.5,301.5 C 392.167,301.833 392.833,302.167 393.5,302.5C 507.5,303.167 621.5,303.833 735.5,304.5C 621.5,304.5 507.5,304.5 393.5,304.5C 392.508,304.672 391.842,304.338 391.5,303.5C 391.5,302.833 391.5,302.167 391.5,301.5 Z"/></g>
<g><path style="opacity:0.999" fill="#1b001b" d="M 127.5,300.5 C 155.833,300.5 184.167,300.5 212.5,300.5C 200.678,301.495 188.678,301.828 176.5,301.5C 160.5,301.5 144.5,301.5 128.5,301.5C 128.5,316.5 128.5,331.5 128.5,346.5C 128.333,390.501 128.5,434.501 129,478.5C 129.236,480.119 130.069,481.119 131.5,481.5C 131.5,481.833 131.5,482.167 131.5,482.5C 130.178,482.67 129.011,482.337 128,481.5C 127.5,421.168 127.333,360.834 127.5,300.5 Z"/></g>
<g><path style="opacity:1" fill="#ca00cb" d="M 216.5,301.5 C 216.426,303.411 215.426,304.578 213.5,305C 200.838,305.5 188.171,305.667 175.5,305.5C 175.5,305.167 175.5,304.833 175.5,304.5C 188.011,304.829 200.345,304.495 212.5,303.5C 214.062,303.267 215.395,302.6 216.5,301.5 Z"/></g>
<g><path style="opacity:1" fill="#ce00cf" d="M 393.5,304.5 C 507.5,304.5 621.5,304.5 735.5,304.5C 735.833,304.5 736.167,304.5 736.5,304.5C 736.829,318.677 736.496,332.677 735.5,346.5C 735.5,332.833 735.5,319.167 735.5,305.5C 733.833,305.5 732.167,305.5 730.5,305.5C 617.999,305.833 505.665,305.5 393.5,304.5 Z"/></g>
<g><path style="opacity:1" fill="#ef00f0" d="M 389.5,302.5 C 390.167,302.833 390.833,303.167 391.5,303.5C 391.842,304.338 392.508,304.672 393.5,304.5C 505.665,305.5 617.999,305.833 730.5,305.5C 617.334,306.666 504.001,306.833 390.5,306C 389.663,304.989 389.33,303.822 389.5,302.5 Z"/></g>
<g><path style="opacity:1" fill="#6c036c" d="M 176.5,302.5 C 188.5,302.5 200.5,302.5 212.5,302.5C 212.5,302.833 212.5,303.167 212.5,303.5C 185.167,303.5 157.833,303.5 130.5,303.5C 130.5,361.5 130.5,419.5 130.5,477.5C 129.501,434.003 129.168,390.337 129.5,346.5C 129.5,331.833 129.5,317.167 129.5,302.5C 145.167,302.5 160.833,302.5 176.5,302.5 Z"/></g>
<g><path style="opacity:1" fill="#99059a" d="M 212.5,303.5 C 200.345,304.495 188.011,304.829 175.5,304.5C 160.833,304.5 146.167,304.5 131.5,304.5C 131.5,319.5 131.5,334.5 131.5,349.5C 131.5,392.167 131.5,434.833 131.5,477.5C 131.167,477.5 130.833,477.5 130.5,477.5C 130.5,419.5 130.5,361.5 130.5,303.5C 157.833,303.5 185.167,303.5 212.5,303.5 Z"/></g>
<g><path style="opacity:1" fill="#ed0dee" d="M 217.5,260.5 C 218.747,275.157 218.747,289.824 217.5,304.5C 216.5,305 215.5,305.5 214.5,306C 201.258,306.176 188.092,306.676 175,307.5C 175.721,320.629 176.887,333.629 178.5,346.5C 177.167,346.5 175.833,346.5 174.5,346.5C 174.821,334.919 174.488,323.419 173.5,312C 161.924,311.18 150.424,311.346 139,312.5C 138.333,323.833 138.333,335.167 139,346.5C 150.802,346.825 162.302,347.825 173.5,349.5C 161.855,350.555 150.189,350.721 138.5,350C 137.347,348.117 135.681,347.284 133.5,347.5C 133.5,333.833 133.5,320.167 133.5,306.5C 147.344,306.829 161.01,306.496 174.5,305.5C 174.833,305.5 175.167,305.5 175.5,305.5C 188.171,305.667 200.838,305.5 213.5,305C 215.426,304.578 216.426,303.411 216.5,301.5C 216.171,287.656 216.504,273.99 217.5,260.5 Z"/></g>
<g><path style="opacity:1" fill="#df0ce0" d="M 178.5,346.5 C 364.167,346.5 549.833,346.5 735.5,346.5C 549,347.333 362.334,347.833 175.5,348C 174.836,391.264 174.169,434.431 173.5,477.5C 173.5,434.833 173.5,392.167 173.5,349.5C 162.302,347.825 150.802,346.825 139,346.5C 138.333,335.167 138.333,323.833 139,312.5C 150.424,311.346 161.924,311.18 173.5,312C 174.488,323.419 174.821,334.919 174.5,346.5C 175.833,346.5 177.167,346.5 178.5,346.5 Z"/></g>
<g><path style="opacity:1" fill="#3c043d" d="M 176.5,301.5 C 176.5,301.833 176.5,302.167 176.5,302.5C 160.833,302.5 145.167,302.5 129.5,302.5C 129.5,317.167 129.5,331.833 129.5,346.5C 129.167,346.5 128.833,346.5 128.5,346.5C 128.5,331.5 128.5,316.5 128.5,301.5C 144.5,301.5 160.5,301.5 176.5,301.5 Z"/></g>
<g><path style="opacity:1" fill="#b90cba" d="M 175.5,304.5 C 175.5,304.833 175.5,305.167 175.5,305.5C 175.167,305.5 174.833,305.5 174.5,305.5C 160.5,305.5 146.5,305.5 132.5,305.5C 132.5,319.5 132.5,333.5 132.5,347.5C 132.5,348.167 132.5,348.833 132.5,349.5C 132.167,349.5 131.833,349.5 131.5,349.5C 131.5,334.5 131.5,319.5 131.5,304.5C 146.167,304.5 160.833,304.5 175.5,304.5 Z"/></g>
<g><path style="opacity:1" fill="#d80fd9" d="M 174.5,305.5 C 161.01,306.496 147.344,306.829 133.5,306.5C 133.5,320.167 133.5,333.833 133.5,347.5C 133.167,347.5 132.833,347.5 132.5,347.5C 132.5,333.5 132.5,319.5 132.5,305.5C 146.5,305.5 160.5,305.5 174.5,305.5 Z"/></g>
<g><path style="opacity:1" fill="#b200b2" d="M 736.5,304.5 C 737.167,304.5 737.5,304.833 737.5,305.5C 737.824,319.745 737.49,333.912 736.5,348C 549.833,348.333 363.167,348.667 176.5,349C 175.503,391.761 175.17,434.594 175.5,477.5C 175.167,478.5 174.5,479.167 173.5,479.5C 159.829,479.667 146.163,479.5 132.5,479C 131.944,478.617 131.611,478.117 131.5,477.5C 132.167,477.5 132.833,477.5 133.5,477.5C 146.833,477.5 160.167,477.5 173.5,477.5C 174.169,434.431 174.836,391.264 175.5,348C 362.334,347.833 549,347.333 735.5,346.5C 736.496,332.677 736.829,318.677 736.5,304.5 Z"/></g>
<g><path style="opacity:1" fill="#810082" d="M 737.5,305.5 C 737.833,305.5 738.167,305.5 738.5,305.5C 738.5,319.167 738.5,332.833 738.5,346.5C 738.5,348.5 737.5,349.5 735.5,349.5C 549.5,349.333 363.5,349.5 177.5,350C 176.836,392.598 176.169,435.098 175.5,477.5C 175.17,434.594 175.503,391.761 176.5,349C 363.167,348.667 549.833,348.333 736.5,348C 737.49,333.912 737.824,319.745 737.5,305.5 Z"/></g>
<g><path style="opacity:1" fill="#fd00fd" d="M 132.5,347.5 C 132.833,347.5 133.167,347.5 133.5,347.5C 135.681,347.284 137.347,348.117 138.5,350C 150.189,350.721 161.855,350.555 173.5,349.5C 173.5,392.167 173.5,434.833 173.5,477.5C 160.167,477.5 146.833,477.5 133.5,477.5C 132.506,434.906 132.172,392.239 132.5,349.5C 132.5,348.833 132.5,348.167 132.5,347.5 Z"/></g>
<g><path style="opacity:1" fill="#520052" d="M 735.5,349.5 C 549.833,350.167 364.167,350.833 178.5,351.5C 177.501,393.663 177.168,435.997 177.5,478.5C 176.395,479.6 175.062,480.267 173.5,480.5C 173.5,480.167 173.5,479.833 173.5,479.5C 174.5,479.167 175.167,478.5 175.5,477.5C 176.169,435.098 176.836,392.598 177.5,350C 363.5,349.5 549.5,349.333 735.5,349.5 Z"/></g>
<g><path style="opacity:1" fill="#250225" d="M 399.5,301.5 C 452.997,300.501 506.664,300.168 560.5,300.5C 575.833,300.5 591.167,300.5 606.5,300.5C 651.167,300.5 695.833,300.5 740.5,300.5C 740.667,316.17 740.5,331.837 740,347.5C 739.5,349.333 738.333,350.5 736.5,351C 550.5,351.5 364.5,351.667 178.5,351.5C 364.167,350.833 549.833,350.167 735.5,349.5C 737.5,349.5 738.5,348.5 738.5,346.5C 739.496,331.676 739.829,316.676 739.5,301.5C 626.167,301.5 512.833,301.5 399.5,301.5 Z"/></g>
<g><path style="opacity:1" fill="#450045" d="M 128.5,346.5 C 128.833,346.5 129.167,346.5 129.5,346.5C 129.168,390.337 129.501,434.003 130.5,477.5C 130.414,478.496 130.748,479.329 131.5,480C 145.496,480.5 159.496,480.667 173.5,480.5C 159.677,481.496 145.677,481.829 131.5,481.5C 130.069,481.119 129.236,480.119 129,478.5C 128.5,434.501 128.333,390.501 128.5,346.5 Z"/></g>
<g><path style="opacity:1" fill="#cf00d0" d="M 131.5,349.5 C 131.833,349.5 132.167,349.5 132.5,349.5C 132.172,392.239 132.506,434.906 133.5,477.5C 132.833,477.5 132.167,477.5 131.5,477.5C 131.5,434.833 131.5,392.167 131.5,349.5 Z"/></g>
<g><path style="opacity:1" fill="#1a0f14" d="M 217.5,386.5 C 391.333,385.334 565.333,385.167 739.5,386C 740.337,387.011 740.67,388.178 740.5,389.5C 740.167,389.5 739.833,389.5 739.5,389.5C 738.833,389.167 738.167,388.833 737.5,388.5C 737.389,387.883 737.056,387.383 736.5,387C 563.5,386.5 390.5,386.333 217.5,386.5 Z"/></g>
<g><path style="opacity:1" fill="#4f2f3e" d="M 217.5,386.5 C 390.5,386.333 563.5,386.5 736.5,387C 737.056,387.383 737.389,387.883 737.5,388.5C 736.833,388.5 736.167,388.5 735.5,388.5C 562.5,388.333 389.5,388.5 216.5,389C 215.944,389.383 215.611,389.883 215.5,390.5C 214.667,432.665 214.167,474.998 214,517.5C 202.247,518.488 190.414,518.821 178.5,518.5C 178.167,518.5 177.833,518.5 177.5,518.5C 189.167,517.833 200.833,517.167 212.5,516.5C 213.333,473.669 213.833,430.669 214,387.5C 215.011,386.663 216.178,386.33 217.5,386.5 Z"/></g>
<g><path style="opacity:1" fill="#a0607e" d="M 735.5,388.5 C 735.5,388.833 735.5,389.167 735.5,389.5C 562.666,389.167 389.999,389.5 217.5,390.5C 216.833,432.5 216.167,474.5 215.5,516.5C 215.5,474.5 215.5,432.5 215.5,390.5C 215.611,389.883 215.944,389.383 216.5,389C 389.5,388.5 562.5,388.333 735.5,388.5 Z"/></g>
<g><path style="opacity:1" fill="#cf7ca5" d="M 217.5,390.5 C 389.999,389.5 562.666,389.167 735.5,389.5C 736.167,389.5 736.5,389.833 736.5,390.5C 736.833,491.668 736.499,592.668 735.5,693.5C 735.5,592.5 735.5,491.5 735.5,390.5C 564.5,390.5 393.5,390.5 222.5,390.5C 220.833,390.5 219.167,390.5 217.5,390.5 Z"/></g>
<g><path style="opacity:1" fill="#ff9dd0" d="M 730.5,397.5 C 561.57,396.501 392.57,396.168 223.5,396.5C 223.667,436.835 223.5,477.168 223,517.5C 221.624,520.125 220.458,520.125 219.5,517.5C 221.586,516.852 222.586,515.352 222.5,513C 221.175,474.144 221.175,435.31 222.5,396.5C 307.167,396.167 391.833,395.833 476.5,395.5C 561.503,395.5 646.169,396.167 730.5,397.5 Z"/></g>
<g><path style="opacity:1" fill="#d17da6" d="M 217.5,390.5 C 217.5,392.833 217.5,395.167 217.5,397.5C 217.667,437.835 217.5,478.168 217,518.5C 216.097,519.701 214.931,520.535 213.5,521C 203.839,521.5 194.172,521.666 184.5,521.5C 182.5,521.5 180.5,521.5 178.5,521.5C 189.833,520.833 201.167,520.167 212.5,519.5C 214.5,519.5 215.5,518.5 215.5,516.5C 216.167,474.5 216.833,432.5 217.5,390.5 Z"/></g>
<g><path style="opacity:1" fill="#fd98c9" d="M 217.5,390.5 C 219.167,390.5 220.833,390.5 222.5,390.5C 222.5,390.833 222.5,391.167 222.5,391.5C 221.167,391.5 219.833,391.5 218.5,391.5C 219.472,433.48 219.806,475.48 219.5,517.5C 220.458,520.125 221.624,520.125 223,517.5C 223.5,477.168 223.667,436.835 223.5,396.5C 392.57,396.168 561.57,396.501 730.5,397.5C 730.831,494.207 730.498,590.874 729.5,687.5C 532.501,688.5 335.501,688.833 138.5,688.5C 138.181,678.251 138.514,668.084 139.5,658C 151.5,657.667 163.5,657.333 175.5,657C 176.833,656 176.833,655 175.5,654C 161.504,653.5 147.504,653.333 133.5,653.5C 133.5,666.5 133.5,679.5 133.5,692.5C 132.504,679.344 132.171,666.01 132.5,652.5C 146.504,652.667 160.504,652.5 174.5,652C 176.333,651.5 177.5,650.333 178,648.5C 178.5,606.168 178.667,563.835 178.5,521.5C 180.5,521.5 182.5,521.5 184.5,521.5C 194.658,522.659 204.992,522.825 215.5,522C 216.025,521.308 216.692,520.808 217.5,520.5C 218.831,479.335 218.831,438.335 217.5,397.5C 217.5,395.167 217.5,392.833 217.5,390.5 Z"/></g>
<g><path style="opacity:1" fill="#76475e" d="M 215.5,390.5 C 215.5,432.5 215.5,474.5 215.5,516.5C 215.5,518.5 214.5,519.5 212.5,519.5C 201.167,519.5 189.833,519.5 178.5,519.5C 178.5,519.167 178.5,518.833 178.5,518.5C 190.414,518.821 202.247,518.488 214,517.5C 214.167,474.998 214.667,432.665 215.5,390.5 Z"/></g>
<g><path style="opacity:1" fill="#f291c0" d="M 217.5,397.5 C 218.831,438.335 218.831,479.335 217.5,520.5C 216.692,520.808 216.025,521.308 215.5,522C 204.992,522.825 194.658,522.659 184.5,521.5C 194.172,521.666 203.839,521.5 213.5,521C 214.931,520.535 216.097,519.701 217,518.5C 217.5,478.168 217.667,437.835 217.5,397.5 Z"/></g>
<g><path style="opacity:1" fill="#ea8cb9" d="M 222.5,391.5 C 222.5,391.167 222.5,390.833 222.5,390.5C 393.5,390.5 564.5,390.5 735.5,390.5C 735.5,491.5 735.5,592.5 735.5,693.5C 534.833,694.833 334.167,694.833 133.5,693.5C 332.483,692.506 531.483,692.172 730.5,692.5C 731.833,692.5 733.167,692.5 734.5,692.5C 734.5,592.167 734.5,491.833 734.5,391.5C 563.833,391.5 393.167,391.5 222.5,391.5 Z"/></g>
<g><path style="opacity:1" fill="#523141" d="M 735.5,389.5 C 735.5,389.167 735.5,388.833 735.5,388.5C 736.167,388.5 736.833,388.5 737.5,388.5C 738.167,388.833 738.833,389.167 739.5,389.5C 739.833,491.001 739.499,592.335 738.5,693.5C 738.833,592.332 738.499,491.332 737.5,390.5C 737.167,390.5 736.833,390.5 736.5,390.5C 736.5,389.833 736.167,389.5 735.5,389.5 Z"/></g>
<g><path style="opacity:1" fill="#27181f" d="M 739.5,389.5 C 739.833,389.5 740.167,389.5 740.5,389.5C 740.667,491.167 740.5,592.834 740,694.5C 739.578,696.426 738.411,697.426 736.5,697.5C 736.167,697.5 735.833,697.5 735.5,697.5C 735.5,697.167 735.5,696.833 735.5,696.5C 737.5,696.5 738.5,695.5 738.5,693.5C 739.499,592.335 739.833,491.001 739.5,389.5 Z"/></g>
<g><path style="opacity:1" fill="#eda2c8" d="M 607.5,432.5 C 607.5,432.833 607.5,433.167 607.5,433.5C 606.833,433.5 606.167,433.5 605.5,433.5C 591.339,432.339 577.006,432.173 562.5,433C 561.619,433.708 560.953,434.542 560.5,435.5C 559.501,506.331 559.167,577.331 559.5,648.5C 559.5,649.167 559.5,649.833 559.5,650.5C 558.334,578.334 558.168,506.001 559,433.5C 566.934,432.183 575.1,431.516 583.5,431.5C 591.674,431.5 599.674,431.834 607.5,432.5 Z"/></g>
<g><path style="opacity:1" fill="#c9bac9" d="M 520.5,433.5 C 506.496,433.333 492.496,433.5 478.5,434C 478,434.5 477.5,435 477,435.5C 476.5,506.166 476.333,576.833 476.5,647.5C 475.501,577.002 475.167,506.335 475.5,435.5C 475.953,434.542 476.619,433.708 477.5,433C 492.006,432.173 506.339,432.339 520.5,433.5 Z"/></g>
<g><path style="opacity:1" fill="#c9bac9" d="M 605.5,433.5 C 591.496,433.333 577.496,433.5 563.5,434C 563,434.5 562.5,435 562,435.5C 561.5,506.166 561.333,576.833 561.5,647.5C 560.501,577.002 560.167,506.335 560.5,435.5C 560.953,434.542 561.619,433.708 562.5,433C 577.006,432.173 591.339,432.339 605.5,433.5 Z"/></g>
<g><path style="opacity:1" fill="#ff92c9" d="M 473.5,437.5 C 473.5,507.167 473.5,576.833 473.5,646.5C 472.566,647.568 472.232,648.901 472.5,650.5C 471.178,650.67 470.011,650.337 469,649.5C 468.333,577.833 468.333,506.167 469,434.5C 470.011,433.663 471.178,433.33 472.5,433.5C 472.232,435.099 472.566,436.432 473.5,437.5 Z"/></g>
<g><path style="opacity:1" fill="#ff92c9" d="M 525.5,646.5 C 525.5,576.833 525.5,507.167 525.5,437.5C 526.434,436.432 526.768,435.099 526.5,433.5C 527.822,433.33 528.989,433.663 530,434.5C 530.667,506.167 530.667,577.833 530,649.5C 528.989,650.337 527.822,650.67 526.5,650.5C 526.768,648.901 526.434,647.568 525.5,646.5 Z"/></g>
<g><path style="opacity:1" fill="#ff91c9" d="M 554.5,433.5 C 555.5,433.5 556.5,433.5 557.5,433.5C 557.5,505.833 557.5,578.167 557.5,650.5C 556.178,650.67 555.011,650.337 554,649.5C 553.17,577.43 553.337,505.43 554.5,433.5 Z"/></g>
<g><path style="opacity:1" fill="#ff92c9" d="M 610.5,647.5 C 610.5,577.167 610.5,506.833 610.5,436.5C 611.404,435.791 611.737,434.791 611.5,433.5C 613.124,433.36 614.29,434.027 615,435.5C 615.667,506.833 615.667,578.167 615,649.5C 613.989,650.337 612.822,650.67 611.5,650.5C 611.737,649.209 611.404,648.209 610.5,647.5 Z"/></g>
<g><path style="opacity:1" fill="#ff92c9" d="M 646.5,433.5 C 647.496,433.414 648.329,433.748 649,434.5C 649.667,506.167 649.667,577.833 649,649.5C 647.989,650.337 646.822,650.67 645.5,650.5C 644.343,579.195 644.176,507.862 645,436.5C 645.513,435.473 646.013,434.473 646.5,433.5 Z"/></g>
<g><path style="opacity:1" fill="#ff92c9" d="M 695.5,647.5 C 695.5,577.167 695.5,506.833 695.5,436.5C 696.404,435.791 696.737,434.791 696.5,433.5C 698.124,433.36 699.29,434.027 700,435.5C 700.667,506.5 700.667,577.5 700,648.5C 699.29,649.973 698.124,650.64 696.5,650.5C 696.737,649.209 696.404,648.209 695.5,647.5 Z"/></g>
<g><path style="opacity:1" fill="#90e0c9" d="M 479.5,435.5 C 492.99,434.504 506.656,434.171 520.5,434.5C 520.833,435.167 521.167,435.833 521.5,436.5C 521.833,507.002 521.499,577.335 520.5,647.5C 520.833,576.998 520.499,506.665 519.5,436.5C 506.344,435.504 493.01,435.171 479.5,435.5 Z"/></g>
<g><path style="opacity:1" fill="#f49ec8" d="M 692.5,433.5 C 692.5,433.167 692.5,432.833 692.5,432.5C 694.912,432.694 695.912,434.027 695.5,436.5C 695.5,506.833 695.5,577.167 695.5,647.5C 695.817,651.172 694.151,652.838 690.5,652.5C 690.5,652.167 690.5,651.833 690.5,651.5C 690.5,651.167 690.5,650.833 690.5,650.5C 691.609,650.443 692.609,650.11 693.5,649.5C 694.666,578.001 694.832,506.335 694,434.5C 693.617,433.944 693.117,433.611 692.5,433.5 Z"/></g>
<g><path style="opacity:1" fill="#ddadc8" d="M 474.5,435.5 C 474.833,435.5 475.167,435.5 475.5,435.5C 475.167,506.335 475.501,577.002 476.5,647.5C 476.5,648.167 476.5,648.833 476.5,649.5C 476.167,649.5 475.833,649.5 475.5,649.5C 474.501,578.335 474.167,507.002 474.5,435.5 Z"/></g>
<g><path style="opacity:1" fill="#ddadc9" d="M 520.5,434.5 C 520.5,434.167 520.5,433.833 520.5,433.5C 521.167,433.5 521.833,433.5 522.5,433.5C 523.117,433.611 523.617,433.944 524,434.5C 524.5,505.499 524.667,576.499 524.5,647.5C 524.167,647.5 523.833,647.5 523.5,647.5C 523.667,576.833 523.5,506.166 523,435.5C 522.329,434.748 521.496,434.414 520.5,434.5 Z"/></g>
<g><path style="opacity:1" fill="#deacc9" d="M 605.5,434.5 C 605.5,434.167 605.5,433.833 605.5,433.5C 606.167,433.5 606.833,433.5 607.5,433.5C 608.117,433.611 608.617,433.944 609,434.5C 609.5,505.833 609.667,577.166 609.5,648.5C 609.167,648.5 608.833,648.5 608.5,648.5C 608.833,577.331 608.499,506.331 607.5,435.5C 606.833,435.167 606.167,434.833 605.5,434.5 Z"/></g>
<g><path style="opacity:1" fill="#deacc9" d="M 690.5,434.5 C 690.5,434.167 690.5,433.833 690.5,433.5C 691.167,433.5 691.833,433.5 692.5,433.5C 693.117,433.611 693.617,433.944 694,434.5C 694.832,506.335 694.666,578.001 693.5,649.5C 693.667,578.166 693.5,506.833 693,435.5C 692.329,434.748 691.496,434.414 690.5,434.5 Z"/></g>
<g><path style="opacity:1" fill="#f39dc8" d="M 474.5,433.5 C 474.5,434.167 474.5,434.833 474.5,435.5C 474.167,507.002 474.501,578.335 475.5,649.5C 475.557,650.609 475.89,651.609 476.5,652.5C 474.031,651.393 473.031,649.393 473.5,646.5C 473.5,576.833 473.5,507.167 473.5,437.5C 473.232,435.901 473.566,434.568 474.5,433.5 Z"/></g>
<g><path style="opacity:1" fill="#f39dc8" d="M 522.5,433.5 C 522.5,433.167 522.5,432.833 522.5,432.5C 525.084,433.048 526.084,434.715 525.5,437.5C 525.5,507.167 525.5,576.833 525.5,646.5C 525.768,648.099 525.434,649.432 524.5,650.5C 524.5,649.5 524.5,648.5 524.5,647.5C 524.667,576.499 524.5,505.499 524,434.5C 523.617,433.944 523.117,433.611 522.5,433.5 Z"/></g>
<g><path style="opacity:1" fill="#5dfec9" d="M 655.5,436.5 C 666.344,438.742 677.344,439.076 688.5,437.5C 688.5,507.167 688.5,576.833 688.5,646.5C 679.535,645.419 670.535,645.252 661.5,646C 660.944,646.383 660.611,646.883 660.5,647.5C 659.167,647.5 657.833,647.5 656.5,647.5C 655.504,577.238 655.17,506.904 655.5,436.5 Z"/></g>
<g><path style="opacity:1" fill="#dcadc9" d="M 560.5,435.5 C 560.167,506.335 560.501,577.002 561.5,647.5C 561.5,648.167 561.5,648.833 561.5,649.5C 560.833,649.167 560.167,648.833 559.5,648.5C 559.167,577.331 559.501,506.331 560.5,435.5 Z"/></g>
<g><path style="opacity:1" fill="#e8a5c8" d="M 692.5,432.5 C 692.5,432.833 692.5,433.167 692.5,433.5C 691.833,433.5 691.167,433.5 690.5,433.5C 678.674,432.34 666.674,432.174 654.5,433C 653.667,433.833 652.833,434.667 652,435.5C 651.168,506.335 651.335,577.001 652.5,647.5C 652.33,648.822 652.663,649.989 653.5,651C 665.829,651.5 678.162,651.667 690.5,651.5C 690.5,651.833 690.5,652.167 690.5,652.5C 677.45,652.814 664.45,652.481 651.5,651.5C 650.333,578.502 650.167,505.502 651,432.5C 664.931,431.17 678.765,431.17 692.5,432.5 Z"/></g>
<g><path style="opacity:1" fill="#a7d0c9" d="M 691.5,436.5 C 692.665,506.999 692.832,577.665 692,648.5C 691.617,649.056 691.117,649.389 690.5,649.5C 690.167,649.5 689.833,649.5 689.5,649.5C 689.5,649.167 689.5,648.833 689.5,648.5C 690.117,648.389 690.617,648.056 691,647.5C 691.5,577.501 691.667,507.501 691.5,437.5C 691.5,437.167 691.5,436.833 691.5,436.5 Z"/></g>
<g><path style="opacity:1" fill="#c5bcc9" d="M 690.5,434.5 C 691.496,434.414 692.329,434.748 693,435.5C 693.5,506.833 693.667,578.166 693.5,649.5C 692.609,650.11 691.609,650.443 690.5,650.5C 690.5,650.167 690.5,649.833 690.5,649.5C 691.117,649.389 691.617,649.056 692,648.5C 692.832,577.665 692.665,506.999 691.5,436.5C 691.167,435.833 690.833,435.167 690.5,434.5 Z"/></g>
<g><path style="opacity:1" fill="#a7d0c9" d="M 520.5,433.5 C 520.5,433.833 520.5,434.167 520.5,434.5C 506.656,434.171 492.99,434.504 479.5,435.5C 478.833,435.5 478.5,435.833 478.5,436.5C 477.501,506.665 477.167,576.998 477.5,647.5C 477.167,647.5 476.833,647.5 476.5,647.5C 476.333,576.833 476.5,506.166 477,435.5C 477.5,435 478,434.5 478.5,434C 492.496,433.5 506.496,433.333 520.5,433.5 Z"/></g>
<g><path style="opacity:1" fill="#a7d0c9" d="M 521.5,436.5 C 522.499,506.665 522.833,576.998 522.5,647.5C 522.047,648.458 521.381,649.292 520.5,650C 506.327,650.827 492.327,650.661 478.5,649.5C 492.344,649.829 506.01,649.496 519.5,648.5C 520.167,648.5 520.5,648.167 520.5,647.5C 521.499,577.335 521.833,507.002 521.5,436.5 Z"/></g>
<g><path style="opacity:1" fill="#a8d0c9" d="M 605.5,434.5 C 606.167,434.833 606.833,435.167 607.5,435.5C 607.667,506.501 607.5,577.501 607,648.5C 606.283,649.044 605.783,649.711 605.5,650.5C 591.323,650.829 577.323,650.496 563.5,649.5C 577.344,649.829 591.01,649.496 604.5,648.5C 605.117,648.389 605.617,648.056 606,647.5C 606.832,576.999 606.665,506.665 605.5,436.5C 605.5,435.833 605.5,435.167 605.5,434.5 Z"/></g>
<g><path style="opacity:1" fill="#c4bdc9" d="M 607.5,435.5 C 608.499,506.331 608.833,577.331 608.5,648.5C 608.027,649.906 607.027,650.573 605.5,650.5C 605.783,649.711 606.283,649.044 607,648.5C 607.5,577.501 607.667,506.501 607.5,435.5 Z"/></g>
<g><path style="opacity:1" fill="#f49dc8" d="M 607.5,433.5 C 607.5,433.167 607.5,432.833 607.5,432.5C 609.912,432.694 610.912,434.027 610.5,436.5C 610.5,506.833 610.5,577.167 610.5,647.5C 610.737,648.791 610.404,649.791 609.5,650.5C 609.5,649.833 609.5,649.167 609.5,648.5C 609.667,577.166 609.5,505.833 609,434.5C 608.617,433.944 608.117,433.611 607.5,433.5 Z"/></g>
<g><path style="opacity:1" fill="#cfb6c9" d="M 690.5,433.5 C 678.829,433.333 667.162,433.5 655.5,434C 654.667,434.833 653.833,435.667 653,436.5C 652.5,506.833 652.333,577.166 652.5,647.5C 651.335,577.001 651.168,506.335 652,435.5C 652.833,434.667 653.667,433.833 654.5,433C 666.674,432.174 678.674,432.34 690.5,433.5 Z"/></g>
<g><path style="opacity:1" fill="#c2bfc9" d="M 520.5,434.5 C 521.496,434.414 522.329,434.748 523,435.5C 523.5,506.166 523.667,576.833 523.5,647.5C 523.167,647.5 522.833,647.5 522.5,647.5C 522.833,576.998 522.499,506.665 521.5,436.5C 521.167,435.833 520.833,435.167 520.5,434.5 Z"/></g>
<g><path style="opacity:1" fill="#a6d0c9" d="M 605.5,433.5 C 605.5,433.833 605.5,434.167 605.5,434.5C 591.656,434.171 577.99,434.504 564.5,435.5C 563.833,435.5 563.5,435.833 563.5,436.5C 562.501,506.665 562.167,576.998 562.5,647.5C 562.167,647.5 561.833,647.5 561.5,647.5C 561.333,576.833 561.5,506.166 562,435.5C 562.5,435 563,434.5 563.5,434C 577.496,433.5 591.496,433.333 605.5,433.5 Z"/></g>
<g><path style="opacity:1" fill="#7aefc9" d="M 564.5,435.5 C 578.01,435.171 591.344,435.504 604.5,436.5C 604.833,436.5 605.167,436.5 605.5,436.5C 606.665,506.665 606.832,576.999 606,647.5C 605.617,648.056 605.117,648.389 604.5,648.5C 590.921,648.823 577.421,648.49 564,647.5C 563.5,577.167 563.333,506.834 563.5,436.5C 563.5,435.833 563.833,435.5 564.5,435.5 Z"/></g>
<g><path style="opacity:1" fill="#5dfec9" d="M 604.5,436.5 C 604.5,506.833 604.5,577.167 604.5,647.5C 591.254,647.823 578.087,647.489 565,646.5C 564.5,576.501 564.333,506.501 564.5,436.5C 577.833,436.5 591.167,436.5 604.5,436.5 Z"/></g>
<g><path style="opacity:1" fill="#64fdc9" d="M 571.5,442.5 C 580.418,442.183 589.251,442.516 598,443.5C 598.831,509.404 598.664,575.237 597.5,641C 588.588,641.816 579.755,641.65 571,640.5C 570.171,574.43 570.337,508.43 571.5,442.5 Z"/></g>
<g><path style="opacity:1" fill="#a2d5c9" d="M 690.5,433.5 C 690.5,433.833 690.5,434.167 690.5,434.5C 690.833,435.167 691.167,435.833 691.5,436.5C 691.5,436.833 691.5,437.167 691.5,437.5C 690.833,437.167 690.167,436.833 689.5,436.5C 678.167,435.167 666.833,435.167 655.5,436.5C 654.501,506.665 654.167,576.998 654.5,647.5C 654.167,647.5 653.833,647.5 653.5,647.5C 653.167,647.5 652.833,647.5 652.5,647.5C 652.333,577.166 652.5,506.833 653,436.5C 653.833,435.667 654.667,434.833 655.5,434C 667.162,433.5 678.829,433.333 690.5,433.5 Z"/></g>
<g><path style="opacity:1" fill="#64fdc9" d="M 662.5,442.5 C 669.422,442.188 676.256,442.521 683,443.5C 683.831,509.404 683.664,575.237 682.5,641C 675.586,641.811 668.752,641.645 662,640.5C 661.171,574.43 661.337,508.43 662.5,442.5 Z"/></g>
<g><path style="opacity:1" fill="#7dedc9" d="M 689.5,436.5 C 690.167,436.833 690.833,437.167 691.5,437.5C 691.667,507.501 691.5,577.501 691,647.5C 690.617,648.056 690.117,648.389 689.5,648.5C 678.321,648.828 667.321,648.495 656.5,647.5C 657.833,647.5 659.167,647.5 660.5,647.5C 670.167,647.5 679.833,647.5 689.5,647.5C 689.5,577.167 689.5,506.833 689.5,436.5 Z"/></g>
<g><path style="opacity:1" fill="#74f2c9" d="M 479.5,435.5 C 493.01,435.171 506.344,435.504 519.5,436.5C 520.499,506.665 520.833,576.998 520.5,647.5C 520.5,648.167 520.167,648.5 519.5,648.5C 505.921,648.823 492.421,648.49 479,647.5C 478.5,577.167 478.333,506.834 478.5,436.5C 478.5,435.833 478.833,435.5 479.5,435.5 Z"/></g>
<g><path style="opacity:1" fill="#5efec9" d="M 519.5,436.5 C 519.5,506.833 519.5,577.167 519.5,647.5C 506.254,647.823 493.087,647.489 480,646.5C 479.5,576.501 479.333,506.501 479.5,436.5C 492.833,436.5 506.167,436.5 519.5,436.5 Z"/></g>
<g><path style="opacity:1" fill="#64fdc9" d="M 486.5,442.5 C 495.418,442.183 504.251,442.516 513,443.5C 513.831,509.404 513.664,575.237 512.5,641C 503.588,641.816 494.755,641.65 486,640.5C 485.171,574.43 485.337,508.43 486.5,442.5 Z"/></g>
<g><path style="opacity:1" fill="#7cedc9" d="M 655.5,436.5 C 655.17,506.904 655.504,577.238 656.5,647.5C 655.833,647.5 655.167,647.5 654.5,647.5C 654.167,576.998 654.501,506.665 655.5,436.5 Z"/></g>
<g><path style="opacity:1" fill="#66fbc9" d="M 655.5,436.5 C 666.833,435.167 678.167,435.167 689.5,436.5C 689.5,506.833 689.5,577.167 689.5,647.5C 679.833,647.5 670.167,647.5 660.5,647.5C 660.611,646.883 660.944,646.383 661.5,646C 670.535,645.252 679.535,645.419 688.5,646.5C 688.5,576.833 688.5,507.167 688.5,437.5C 677.344,439.076 666.344,438.742 655.5,436.5 Z"/></g>
<g><path style="opacity:1" fill="#79007a" d="M 130.5,477.5 C 130.833,477.5 131.167,477.5 131.5,477.5C 131.611,478.117 131.944,478.617 132.5,479C 146.163,479.5 159.829,479.667 173.5,479.5C 173.5,479.833 173.5,480.167 173.5,480.5C 159.496,480.667 145.496,480.5 131.5,480C 130.748,479.329 130.414,478.496 130.5,477.5 Z"/></g>
<g><path style="opacity:1" fill="#220022" d="M 177.5,478.5 C 177.426,480.411 176.426,481.578 174.5,482C 160.171,482.5 145.837,482.667 131.5,482.5C 131.5,482.167 131.5,481.833 131.5,481.5C 145.677,481.829 159.677,481.496 173.5,480.5C 175.062,480.267 176.395,479.6 177.5,478.5 Z"/></g>
<g><path style="opacity:1" fill="#21141a" d="M 212.5,516.5 C 200.833,517.167 189.167,517.833 177.5,518.5C 176.5,519.167 175.5,519.833 174.5,520.5C 174.511,518.983 175.177,517.816 176.5,517C 188.495,516.5 200.495,516.333 212.5,516.5 Z"/></g>
<g><path style="opacity:1" fill="#563445" d="M 177.5,518.5 C 177.833,518.5 178.167,518.5 178.5,518.5C 178.5,518.833 178.5,519.167 178.5,519.5C 177.5,519.833 176.833,520.5 176.5,521.5C 175.667,563.665 175.167,605.998 175,648.5C 160.735,649.159 146.569,649.825 132.5,650.5C 131.883,650.611 131.383,650.944 131,651.5C 130.5,665.496 130.333,679.496 130.5,693.5C 129.504,679.677 129.171,665.677 129.5,651.5C 129.953,650.542 130.619,649.708 131.5,649C 145.673,648.831 159.673,648.331 173.5,647.5C 174.499,605.337 174.832,563.003 174.5,520.5C 175.5,519.833 176.5,519.167 177.5,518.5 Z"/></g>
<g><path style="opacity:1" fill="#814d66" d="M 176.5,521.5 C 176.5,563.5 176.5,605.5 176.5,647.5C 176.5,649.5 175.5,650.5 173.5,650.5C 159.833,650.5 146.167,650.5 132.5,650.5C 146.569,649.825 160.735,649.159 175,648.5C 175.167,605.998 175.667,563.665 176.5,521.5 Z"/></g>
<g><path style="opacity:1" fill="#ad688a" d="M 178.5,519.5 C 189.833,519.5 201.167,519.5 212.5,519.5C 201.167,520.167 189.833,520.833 178.5,521.5C 177.833,563.5 177.167,605.5 176.5,647.5C 176.5,605.5 176.5,563.5 176.5,521.5C 176.833,520.5 177.5,519.833 178.5,519.5 Z"/></g>
<g><path style="opacity:1" fill="#ffa1d5" d="M 179.5,522.5 C 191.469,523.416 203.469,523.749 215.5,523.5C 215.5,524.5 215.5,525.5 215.5,526.5C 204.956,527.108 194.456,527.774 184,528.5C 183.179,567.189 183.345,605.856 184.5,644.5C 184.247,646.956 183.247,648.956 181.5,650.5C 180.914,650.291 180.414,649.957 180,649.5C 179.5,607.168 179.333,564.835 179.5,522.5 Z"/></g>
<g><path style="opacity:1" fill="#d982ac" d="M 178.5,521.5 C 178.667,563.835 178.5,606.168 178,648.5C 177.5,650.333 176.333,651.5 174.5,652C 160.504,652.5 146.504,652.667 132.5,652.5C 146.167,651.833 159.833,651.167 173.5,650.5C 175.5,650.5 176.5,649.5 176.5,647.5C 177.167,605.5 177.833,563.5 178.5,521.5 Z"/></g>
<g><path style="opacity:1" fill="#27171f" d="M 173.5,647.5 C 159.673,648.331 145.673,648.831 131.5,649C 130.619,649.708 129.953,650.542 129.5,651.5C 129.167,651.5 128.833,651.5 128.5,651.5C 128.511,649.983 129.177,648.816 130.5,648C 144.829,647.5 159.163,647.333 173.5,647.5 Z"/></g>
<g><path style="opacity:1" fill="#90e0c9" d="M 478.5,436.5 C 478.333,506.834 478.5,577.167 479,647.5C 492.421,648.49 505.921,648.823 519.5,648.5C 506.01,649.496 492.344,649.829 478.5,649.5C 478.167,648.833 477.833,648.167 477.5,647.5C 477.167,576.998 477.501,506.665 478.5,436.5 Z"/></g>
<g><path style="opacity:1" fill="#90e0c9" d="M 563.5,436.5 C 563.333,506.834 563.5,577.167 564,647.5C 577.421,648.49 590.921,648.823 604.5,648.5C 591.01,649.496 577.344,649.829 563.5,649.5C 563.167,648.833 562.833,648.167 562.5,647.5C 562.167,576.998 562.501,506.665 563.5,436.5 Z"/></g>
<g><path style="opacity:1" fill="#95ddc9" d="M 654.5,647.5 C 655.167,647.5 655.833,647.5 656.5,647.5C 667.321,648.495 678.321,648.828 689.5,648.5C 689.5,648.833 689.5,649.167 689.5,649.5C 678.162,649.667 666.828,649.5 655.5,649C 654.944,648.617 654.611,648.117 654.5,647.5 Z"/></g>
<g><path style="opacity:1" fill="#b2c9c9" d="M 653.5,647.5 C 653.833,647.5 654.167,647.5 654.5,647.5C 654.611,648.117 654.944,648.617 655.5,649C 666.828,649.5 678.162,649.667 689.5,649.5C 689.833,649.5 690.167,649.5 690.5,649.5C 690.5,649.833 690.5,650.167 690.5,650.5C 678.495,650.667 666.495,650.5 654.5,650C 653.748,649.329 653.414,648.496 653.5,647.5 Z"/></g>
<g><path style="opacity:1" fill="#cfb6c9" d="M 476.5,647.5 C 476.833,647.5 477.167,647.5 477.5,647.5C 477.833,648.167 478.167,648.833 478.5,649.5C 492.327,650.661 506.327,650.827 520.5,650C 521.381,649.292 522.047,648.458 522.5,647.5C 522.833,647.5 523.167,647.5 523.5,647.5C 523.489,649.017 522.823,650.184 521.5,651C 506.833,651.667 492.167,651.667 477.5,651C 476.944,650.617 476.611,650.117 476.5,649.5C 476.5,648.833 476.5,648.167 476.5,647.5 Z"/></g>
<g><path style="opacity:1" fill="#ceb6c9" d="M 561.5,647.5 C 561.833,647.5 562.167,647.5 562.5,647.5C 562.833,648.167 563.167,648.833 563.5,649.5C 577.323,650.496 591.323,650.829 605.5,650.5C 591.339,651.661 577.006,651.827 562.5,651C 561.944,650.617 561.611,650.117 561.5,649.5C 561.5,648.833 561.5,648.167 561.5,647.5 Z"/></g>
<g><path style="opacity:1" fill="#cfb6c9" d="M 652.5,647.5 C 652.833,647.5 653.167,647.5 653.5,647.5C 653.414,648.496 653.748,649.329 654.5,650C 666.495,650.5 678.495,650.667 690.5,650.5C 690.5,650.833 690.5,651.167 690.5,651.5C 678.162,651.667 665.829,651.5 653.5,651C 652.663,649.989 652.33,648.822 652.5,647.5 Z"/></g>
<g><path style="opacity:1" fill="#e8a5c8" d="M 523.5,647.5 C 523.833,647.5 524.167,647.5 524.5,647.5C 524.5,648.5 524.5,649.5 524.5,650.5C 523.711,650.783 523.044,651.283 522.5,652C 507.17,652.5 491.837,652.667 476.5,652.5C 475.89,651.609 475.557,650.609 475.5,649.5C 475.833,649.5 476.167,649.5 476.5,649.5C 476.611,650.117 476.944,650.617 477.5,651C 492.167,651.667 506.833,651.667 521.5,651C 522.823,650.184 523.489,649.017 523.5,647.5 Z"/></g>
<g><path style="opacity:1" fill="#e8a5c8" d="M 559.5,648.5 C 560.167,648.833 560.833,649.167 561.5,649.5C 561.611,650.117 561.944,650.617 562.5,651C 577.006,651.827 591.339,651.661 605.5,650.5C 607.027,650.573 608.027,649.906 608.5,648.5C 608.833,648.5 609.167,648.5 609.5,648.5C 609.5,649.167 609.5,649.833 609.5,650.5C 608.711,650.783 608.044,651.283 607.5,652C 592.167,652.667 576.833,652.667 561.5,652C 560.956,651.283 560.289,650.783 559.5,650.5C 559.5,649.833 559.5,649.167 559.5,648.5 Z"/></g>
<g><path style="opacity:1" fill="#a96586" d="M 132.5,650.5 C 146.167,650.5 159.833,650.5 173.5,650.5C 159.833,651.167 146.167,651.833 132.5,652.5C 131.504,665.99 131.171,679.656 131.5,693.5C 131.167,693.5 130.833,693.5 130.5,693.5C 130.333,679.496 130.5,665.496 131,651.5C 131.383,650.944 131.883,650.611 132.5,650.5 Z"/></g>
<g><path style="opacity:1" fill="#d27ea7" d="M 132.5,652.5 C 132.171,666.01 132.504,679.344 133.5,692.5C 133.5,692.833 133.5,693.167 133.5,693.5C 132.833,693.5 132.167,693.5 131.5,693.5C 131.171,679.656 131.504,665.99 132.5,652.5 Z"/></g>
<g><path style="opacity:1" fill="#ffa1d5" d="M 222.5,391.5 C 393.167,391.5 563.833,391.5 734.5,391.5C 734.5,491.833 734.5,592.167 734.5,692.5C 733.167,692.5 731.833,692.5 730.5,692.5C 531.646,691.171 332.646,691.171 133.5,692.5C 133.5,679.5 133.5,666.5 133.5,653.5C 147.504,653.333 161.504,653.5 175.5,654C 176.833,655 176.833,656 175.5,657C 163.5,657.333 151.5,657.667 139.5,658C 138.514,668.084 138.181,678.251 138.5,688.5C 335.501,688.833 532.501,688.5 729.5,687.5C 730.498,590.874 730.831,494.207 730.5,397.5C 646.169,396.167 561.503,395.5 476.5,395.5C 391.833,395.833 307.167,396.167 222.5,396.5C 221.175,435.31 221.175,474.144 222.5,513C 222.586,515.352 221.586,516.852 219.5,517.5C 219.806,475.48 219.472,433.48 218.5,391.5C 219.833,391.5 221.167,391.5 222.5,391.5 Z"/></g>
<g><path style="opacity:1" fill="#ff92c9" d="M 653.5,653.5 C 666.504,653.333 679.504,653.5 692.5,654C 693.646,656.557 692.646,657.89 689.5,658C 677.134,658.773 664.8,658.607 652.5,657.5C 652.433,656.041 652.766,654.708 653.5,653.5 Z"/></g>
<g><path style="opacity:1" fill="#ff92c9" d="M 561.5,653.5 C 576.837,653.333 592.17,653.5 607.5,654C 608.646,656.557 607.646,657.89 604.5,658C 591.167,658.667 577.833,658.667 564.5,658C 561.097,657.8 560.097,656.3 561.5,653.5 Z"/></g>
<g><path style="opacity:1" fill="#ff92c9" d="M 476.5,653.5 C 491.837,653.333 507.17,653.5 522.5,654C 523.646,656.557 522.646,657.89 519.5,658C 506.167,658.667 492.833,658.667 479.5,658C 476.097,657.8 475.097,656.3 476.5,653.5 Z"/></g>
<g><path style="opacity:1" fill="#95dcc9" d="M 564.5,435.5 C 577.99,434.504 591.656,434.171 605.5,434.5C 605.5,435.167 605.5,435.833 605.5,436.5C 605.167,436.5 604.833,436.5 604.5,436.5C 591.344,435.504 578.01,435.171 564.5,435.5 Z"/></g>
<g><path style="opacity:1" fill="#e9a4c8" d="M 522.5,432.5 C 522.5,432.833 522.5,433.167 522.5,433.5C 521.833,433.5 521.167,433.5 520.5,433.5C 506.339,432.339 492.006,432.173 477.5,433C 476.619,433.708 475.953,434.542 475.5,435.5C 475.167,435.5 474.833,435.5 474.5,435.5C 474.5,434.833 474.5,434.167 474.5,433.5C 482.138,432.169 490.138,431.502 498.5,431.5C 506.674,431.5 514.674,431.834 522.5,432.5 Z"/></g>
<g><path style="opacity:1" fill="#ff92c9" d="M 655.5,425.5 C 666.838,425.333 678.172,425.5 689.5,426C 692.646,426.11 693.646,427.443 692.5,430C 679.5,430.667 666.5,430.667 653.5,430C 653.043,429.586 652.709,429.086 652.5,428.5C 653.34,427.265 654.34,426.265 655.5,425.5 Z"/></g>
<g><path style="opacity:1" fill="#ff92c9" d="M 564.5,425.5 C 577.837,425.333 591.171,425.5 604.5,426C 607.646,426.11 608.646,427.443 607.5,430C 592.167,430.667 576.833,430.667 561.5,430C 560.549,429.282 560.383,428.449 561,427.5C 562.302,426.915 563.469,426.249 564.5,425.5 Z"/></g>
<g><path style="opacity:1" fill="#ff92c9" d="M 479.5,425.5 C 492.837,425.333 506.171,425.5 519.5,426C 522.646,426.11 523.646,427.443 522.5,430C 507.167,430.667 491.833,430.667 476.5,430C 475.549,429.282 475.383,428.449 476,427.5C 477.302,426.915 478.469,426.249 479.5,425.5 Z"/></g>
<g><path style="opacity:1" fill="#fe9bce" d="M 730.5,692.5 C 531.483,692.172 332.483,692.506 133.5,693.5C 133.5,693.167 133.5,692.833 133.5,692.5C 332.646,691.171 531.646,691.171 730.5,692.5 Z"/></g>
<g><path style="opacity:1" fill="#a46282" d="M 736.5,390.5 C 736.833,390.5 737.167,390.5 737.5,390.5C 737.832,492.07 737.499,593.57 736.5,695C 535.167,695.667 333.833,695.667 132.5,695C 131.944,694.617 131.611,694.117 131.5,693.5C 132.167,693.5 132.833,693.5 133.5,693.5C 334.167,694.833 534.833,694.833 735.5,693.5C 736.499,592.668 736.833,491.668 736.5,390.5 Z"/></g>
<g><path style="opacity:1" fill="#74455c" d="M 737.5,390.5 C 738.499,491.332 738.833,592.332 738.5,693.5C 738.5,695.5 737.5,696.5 735.5,696.5C 534.166,696.667 332.833,696.5 131.5,696C 130.748,695.329 130.414,694.496 130.5,693.5C 130.833,693.5 131.167,693.5 131.5,693.5C 131.611,694.117 131.944,694.617 132.5,695C 333.833,695.667 535.167,695.667 736.5,695C 737.499,593.57 737.832,492.07 737.5,390.5 Z"/></g>
<g><path style="opacity:1" fill="#422734" d="M 128.5,651.5 C 128.833,651.5 129.167,651.5 129.5,651.5C 129.171,665.677 129.504,679.677 130.5,693.5C 130.414,694.496 130.748,695.329 131.5,696C 332.833,696.5 534.166,696.667 735.5,696.5C 735.5,696.833 735.5,697.167 735.5,697.5C 533.833,697.667 332.166,697.5 130.5,697C 130,696.5 129.5,696 129,695.5C 128.5,680.837 128.333,666.17 128.5,651.5 Z"/></g>
<g><path style="opacity:1" fill="#1a1015" d="M 128.5,651.5 C 128.333,666.17 128.5,680.837 129,695.5C 129.5,696 130,696.5 130.5,697C 332.166,697.5 533.833,697.667 735.5,697.5C 735.833,697.5 736.167,697.5 736.5,697.5C 534,698.666 331.334,698.833 128.5,698C 127.17,682.402 127.17,666.902 128.5,651.5 Z"/></g>
<g><path style="opacity:0.004" fill="#000000" d="M 76.5,745.5 C 77.8333,745.5 79.1667,745.5 80.5,745.5C 80.5,746.833 80.5,748.167 80.5,749.5C 77.5,749.833 76.1667,748.5 76.5,745.5 Z"/></g>
<g><path style="opacity:0.004" fill="#000000" d="M 787.5,745.5 C 788.833,745.5 790.167,745.5 791.5,745.5C 791.833,748.5 790.5,749.833 787.5,749.5C 787.5,748.167 787.5,746.833 787.5,745.5 Z"/></g>
</svg>
