<?xml version="1.0" encoding="UTF-8"?>
<!DOCTYPE svg PUBLIC "-//W3C//DTD SVG 1.1//EN" "http://www.w3.org/Graphics/SVG/1.1/DTD/svg11.dtd">
<svg xmlns="http://www.w3.org/2000/svg" version="1.1" width="9982px" height="6510px" style="shape-rendering:geometricPrecision; text-rendering:geometricPrecision; image-rendering:optimizeQuality; fill-rule:evenodd; clip-rule:evenodd" xmlns:xlink="http://www.w3.org/1999/xlink">
<g><path style="opacity:1" fill="#000000" d="M 5640.5,866.5 C 5640.5,1011.17 5640.5,1155.83 5640.5,1300.5C 5061.83,1300.5 4483.17,1300.5 3904.5,1300.5C 3904.5,1155.83 3904.5,1011.17 3904.5,866.5C 3325.83,866.5 2747.17,866.5 2168.5,866.5C 2168.5,1011.17 2168.5,1155.83 2168.5,1300.5C 2023.83,1300.5 1879.17,1300.5 1734.5,1300.5C 1589.83,1300.5 1445.17,1300.5 1300.5,1300.5C 1300.5,1155.83 1300.5,1011.17 1300.5,866.5C 1445.17,866.5 1589.83,866.5 1734.5,866.5C 1734.5,721.833 1734.5,577.167 1734.5,432.5C 2602.5,432.5 3470.5,432.5 4338.5,432.5C 4338.5,577.167 4338.5,721.833 4338.5,866.5C 4772.5,866.5 5206.5,866.5 5640.5,866.5 Z"/></g>
<g><path style="opacity:1" fill="#fd00fe" d="M 5640.5,1300.5 C 5785.17,1300.5 5929.83,1300.5 6074.5,1300.5C 6508.5,1300.5 6942.5,1300.5 7376.5,1300.5C 7376.5,1445.17 7376.5,1589.83 7376.5,1734.5C 5495.83,1734.5 3615.17,1734.5 1734.5,1734.5C 1734.5,1589.83 1734.5,1445.17 1734.5,1300.5C 1879.17,1300.5 2023.83,1300.5 2168.5,1300.5C 2168.5,1155.83 2168.5,1011.17 2168.5,866.5C 2747.17,866.5 3325.83,866.5 3904.5,866.5C 3904.5,1011.17 3904.5,1155.83 3904.5,1300.5C 4483.17,1300.5 5061.83,1300.5 5640.5,1300.5 Z"/></g>
<g><path style="opacity:1" fill="#101110" d="M 5640.5,866.5 C 5785.17,866.5 5929.83,866.5 6074.5,866.5C 6074.5,1011.17 6074.5,1155.83 6074.5,1300.5C 5929.83,1300.5 5785.17,1300.5 5640.5,1300.5C 5640.5,1155.83 5640.5,1011.17 5640.5,866.5 Z"/></g>
<g><path style="opacity:1" fill="#030403" d="M 6074.5,866.5 C 6508.5,866.5 6942.5,866.5 7376.5,866.5C 7376.5,1011.17 7376.5,1155.83 7376.5,1300.5C 6942.5,1300.5 6508.5,1300.5 6074.5,1300.5C 6074.5,1155.83 6074.5,1011.17 6074.5,866.5 Z"/></g>
<g><path style="opacity:1" fill="#000000" d="M 1300.5,1300.5 C 1300.5,1445.17 1300.5,1589.83 1300.5,1734.5C 1300.5,2168.5 1300.5,2602.5 1300.5,3036.5C 1445.17,3036.5 1589.83,3036.5 1734.5,3036.5C 1734.5,2602.5 1734.5,2168.5 1734.5,1734.5C 3615.17,1734.5 5495.83,1734.5 7376.5,1734.5C 7376.5,1589.83 7376.5,1445.17 7376.5,1300.5C 7521.17,1300.5 7665.83,1300.5 7810.5,1300.5C 7810.5,2747.17 7810.5,4193.83 7810.5,5640.5C 5495.83,5640.5 3181.17,5640.5 866.5,5640.5C 866.5,4193.83 866.5,2747.17 866.5,1300.5C 1011.17,1300.5 1155.83,1300.5 1300.5,1300.5 Z"/></g>
<g><path style="opacity:1" fill="#e210e3" d="M 1300.5,1300.5 C 1445.17,1300.5 1589.83,1300.5 1734.5,1300.5C 1734.5,1445.17 1734.5,1589.83 1734.5,1734.5C 1589.83,1734.5 1445.17,1734.5 1300.5,1734.5C 1300.5,1589.83 1300.5,1445.17 1300.5,1300.5 Z"/></g>
<g><path style="opacity:1" fill="#fd00fe" d="M 1300.5,1734.5 C 1445.17,1734.5 1589.83,1734.5 1734.5,1734.5C 1734.5,2168.5 1734.5,2602.5 1734.5,3036.5C 1589.83,3036.5 1445.17,3036.5 1300.5,3036.5C 1300.5,2602.5 1300.5,2168.5 1300.5,1734.5 Z"/></g>
<g><path style="opacity:1" fill="#fd98c9" d="M 2168.5,2168.5 C 3904.5,2168.5 5640.5,2168.5 7376.5,2168.5C 7376.5,3181.17 7376.5,4193.83 7376.5,5206.5C 5351.17,5206.5 3325.83,5206.5 1300.5,5206.5C 1300.5,5061.83 1300.5,4917.17 1300.5,4772.5C 1445.17,4772.5 1589.83,4772.5 1734.5,4772.5C 1734.5,4338.5 1734.5,3904.5 1734.5,3470.5C 1879.17,3470.5 2023.83,3470.5 2168.5,3470.5C 2168.5,3036.5 2168.5,2602.5 2168.5,2168.5 Z"/></g>
<g><path style="opacity:1" fill="#65fdc9" d="M 4772.5,2602.5 C 4917.17,2602.5 5061.83,2602.5 5206.5,2602.5C 5206.5,3325.83 5206.5,4049.17 5206.5,4772.5C 5061.83,4772.5 4917.17,4772.5 4772.5,4772.5C 4772.5,4049.17 4772.5,3325.83 4772.5,2602.5 Z"/></g>
<g><path style="opacity:1" fill="#65fdc9" d="M 5640.5,2602.5 C 5785.17,2602.5 5929.83,2602.5 6074.5,2602.5C 6074.5,3325.83 6074.5,4049.17 6074.5,4772.5C 5929.83,4772.5 5785.17,4772.5 5640.5,4772.5C 5640.5,4049.17 5640.5,3325.83 5640.5,2602.5 Z"/></g>
<g><path style="opacity:1" fill="#65fdc9" d="M 6508.5,2602.5 C 6653.17,2602.5 6797.83,2602.5 6942.5,2602.5C 6942.5,3325.83 6942.5,4049.17 6942.5,4772.5C 6797.83,4772.5 6653.17,4772.5 6508.5,4772.5C 6508.5,4049.17 6508.5,3325.83 6508.5,2602.5 Z"/></g>
</svg>
