<?xml version="1.0" encoding="UTF-8"?>
<!DOCTYPE svg PUBLIC "-//W3C//DTD SVG 1.1//EN" "http://www.w3.org/Graphics/SVG/1.1/DTD/svg11.dtd">
<svg xmlns="http://www.w3.org/2000/svg" version="1.1" width="1000px" height="1000px" style="shape-rendering:geometricPrecision; text-rendering:geometricPrecision; image-rendering:optimizeQuality; fill-rule:evenodd; clip-rule:evenodd" xmlns:xlink="http://www.w3.org/1999/xlink">
<g><path style="opacity:1" fill="#000000" d="M 699.5,54.5 C 632.833,54.5 566.167,54.5 499.5,54.5C 499.5,45.5 499.5,36.5 499.5,27.5C 566.167,27.5 632.833,27.5 699.5,27.5C 699.5,36.5 699.5,45.5 699.5,54.5 Z"/></g>
<g><path style="opacity:0.999" fill="#000000" d="M 499.5,54.5 C 499.5,63.8333 499.5,73.1667 499.5,82.5C 477.167,82.5 454.833,82.5 432.5,82.5C 432.5,73.1667 432.5,63.8333 432.5,54.5C 454.833,54.5 477.167,54.5 499.5,54.5 Z"/></g>
<g><path style="opacity:1" fill="#a300a5" d="M 499.5,54.5 C 566.167,54.5 632.833,54.5 699.5,54.5C 699.5,63.8333 699.5,73.1667 699.5,82.5C 721.5,82.5 743.5,82.5 765.5,82.5C 765.5,91.8333 765.5,101.167 765.5,110.5C 787.833,110.5 810.167,110.5 832.5,110.5C 832.5,128.833 832.5,147.167 832.5,165.5C 843.321,166.495 854.321,166.828 865.5,166.5C 865.17,185.008 865.503,203.341 866.5,221.5C 877.5,221.5 888.5,221.5 899.5,221.5C 899.5,277.167 899.5,332.833 899.5,388.5C 888.167,388.5 876.833,388.5 865.5,388.5C 865.5,406.833 865.5,425.167 865.5,443.5C 854.5,443.5 843.5,443.5 832.5,443.5C 832.5,462.167 832.5,480.833 832.5,499.5C 810.167,499.5 787.833,499.5 765.5,499.5C 765.5,508.833 765.5,518.167 765.5,527.5C 743.5,527.5 721.5,527.5 699.5,527.5C 699.5,536.5 699.5,545.5 699.5,554.5C 632.833,554.5 566.167,554.5 499.5,554.5C 499.5,545.5 499.5,536.5 499.5,527.5C 477.167,527.5 454.833,527.5 432.5,527.5C 432.5,518.167 432.5,508.833 432.5,499.5C 410.167,499.5 387.833,499.5 365.5,499.5C 365.5,480.833 365.5,462.167 365.5,443.5C 354.5,443.5 343.5,443.5 332.5,443.5C 332.5,425.167 332.5,406.833 332.5,388.5C 321.5,388.5 310.5,388.5 299.5,388.5C 299.5,332.833 299.5,277.167 299.5,221.5C 310.5,221.5 321.5,221.5 332.5,221.5C 332.5,203.167 332.5,184.833 332.5,166.5C 343.833,166.5 355.167,166.5 366.5,166.5C 366.5,147.833 366.5,129.167 366.5,110.5C 388.5,110.5 410.5,110.5 432.5,110.5C 432.5,101.167 432.5,91.8333 432.5,82.5C 454.833,82.5 477.167,82.5 499.5,82.5C 499.5,73.1667 499.5,63.8333 499.5,54.5 Z"/></g>
<g><path style="opacity:0.993" fill="#000000" d="M 432.5,82.5 C 432.5,91.8333 432.5,101.167 432.5,110.5C 410.5,110.5 388.5,110.5 366.5,110.5C 366.167,110.5 365.833,110.5 365.5,110.5C 365.5,101.167 365.5,91.8333 365.5,82.5C 387.833,82.5 410.167,82.5 432.5,82.5 Z"/></g>
<g><path style="opacity:1" fill="#fb00fd" d="M 532.5,82.5 C 576.833,82.5 621.167,82.5 665.5,82.5C 665.5,91.8333 665.5,101.167 665.5,110.5C 687.833,110.5 710.167,110.5 732.5,110.5C 732.5,119.833 732.5,129.167 732.5,138.5C 754.833,138.5 777.167,138.5 799.5,138.5C 799.5,156.833 799.5,175.167 799.5,193.5C 810.5,193.5 821.5,193.5 832.5,193.5C 832.5,212.167 832.5,230.833 832.5,249.5C 843.5,249.5 854.5,249.5 865.5,249.5C 865.5,286.5 865.5,323.5 865.5,360.5C 854.5,360.5 843.5,360.5 832.5,360.5C 832.5,379.167 832.5,397.833 832.5,416.5C 821.5,416.5 810.5,416.5 799.5,416.5C 799.5,434.833 799.5,453.167 799.5,471.5C 777.167,471.5 754.833,471.5 732.5,471.5C 732.5,480.833 732.5,490.167 732.5,499.5C 710.167,499.5 687.833,499.5 665.5,499.5C 665.5,508.833 665.5,518.167 665.5,527.5C 621.167,527.5 576.833,527.5 532.5,527.5C 532.5,518.167 532.5,508.833 532.5,499.5C 510.167,499.5 487.833,499.5 465.5,499.5C 465.5,490.167 465.5,480.833 465.5,471.5C 443.5,471.5 421.5,471.5 399.5,471.5C 399.5,453.167 399.5,434.833 399.5,416.5C 388.167,416.5 376.833,416.5 365.5,416.5C 365.5,397.833 365.5,379.167 365.5,360.5C 354.5,360.5 343.5,360.5 332.5,360.5C 332.5,323.5 332.5,286.5 332.5,249.5C 343.5,249.5 354.5,249.5 365.5,249.5C 365.5,230.833 365.5,212.167 365.5,193.5C 376.833,193.5 388.167,193.5 399.5,193.5C 399.5,175.167 399.5,156.833 399.5,138.5C 421.5,138.5 443.5,138.5 465.5,138.5C 465.5,129.167 465.5,119.833 465.5,110.5C 487.833,110.5 510.167,110.5 532.5,110.5C 532.5,101.167 532.5,91.8333 532.5,82.5 Z"/></g>
<g><path style="opacity:1" fill="#000000" d="M 699.5,54.5 C 721.833,54.5 744.167,54.5 766.5,54.5C 766.5,63.8333 766.5,73.1667 766.5,82.5C 788.5,82.5 810.5,82.5 832.5,82.5C 832.5,91.8333 832.5,101.167 832.5,110.5C 810.167,110.5 787.833,110.5 765.5,110.5C 765.5,101.167 765.5,91.8333 765.5,82.5C 743.5,82.5 721.5,82.5 699.5,82.5C 699.5,73.1667 699.5,63.8333 699.5,54.5 Z"/></g>
<g><path style="opacity:1" fill="#000000" d="M 365.5,110.5 C 365.5,128.833 365.5,147.167 365.5,165.5C 354.5,165.5 343.5,165.5 332.5,165.5C 332.5,147.167 332.5,128.833 332.5,110.5C 343.5,110.5 354.5,110.5 365.5,110.5 Z"/></g>
<g><path style="opacity:0.78" fill="#3d013e" d="M 365.5,110.5 C 365.833,110.5 366.167,110.5 366.5,110.5C 366.5,129.167 366.5,147.833 366.5,166.5C 355.167,166.5 343.833,166.5 332.5,166.5C 332.5,166.167 332.5,165.833 332.5,165.5C 343.5,165.5 354.5,165.5 365.5,165.5C 365.5,147.167 365.5,128.833 365.5,110.5 Z"/></g>
<g><path style="opacity:0.984" fill="#000000" d="M 832.5,110.5 C 843.833,110.5 855.167,110.5 866.5,110.5C 866.5,128.833 866.5,147.167 866.5,165.5C 855.167,165.5 843.833,165.5 832.5,165.5C 832.5,147.167 832.5,128.833 832.5,110.5 Z"/></g>
<g><path style="opacity:1" fill="#a20aa6" d="M 699.5,166.5 C 632.833,166.5 566.167,166.5 499.5,166.5C 499.5,157.167 499.5,147.833 499.5,138.5C 566.167,138.5 632.833,138.5 699.5,138.5C 699.5,147.833 699.5,157.167 699.5,166.5 Z"/></g>
<g><path style="opacity:0.989" fill="#000000" d="M 332.5,165.5 C 332.5,165.833 332.5,166.167 332.5,166.5C 332.5,184.833 332.5,203.167 332.5,221.5C 321.5,221.5 310.5,221.5 299.5,221.5C 299.5,202.833 299.5,184.167 299.5,165.5C 310.5,165.5 321.5,165.5 332.5,165.5 Z"/></g>
<g><path style="opacity:0.989" fill="#000000" d="M 866.5,165.5 C 877.5,165.5 888.5,165.5 899.5,165.5C 899.5,184.167 899.5,202.833 899.5,221.5C 888.5,221.5 877.5,221.5 866.5,221.5C 866.5,202.833 866.5,184.167 866.5,165.5 Z"/></g>
<g><path style="opacity:1" fill="#a200a5" d="M 499.5,166.5 C 499.5,175.5 499.5,184.5 499.5,193.5C 488.5,193.5 477.5,193.5 466.5,193.5C 466.5,184.5 466.5,175.5 466.5,166.5C 477.5,166.5 488.5,166.5 499.5,166.5 Z"/></g>
<g><path style="opacity:1" fill="#65fdc8" d="M 499.5,166.5 C 566.167,166.5 632.833,166.5 699.5,166.5C 699.5,175.5 699.5,184.5 699.5,193.5C 710.5,193.5 721.5,193.5 732.5,193.5C 732.5,202.833 732.5,212.167 732.5,221.5C 743.5,221.5 754.5,221.5 765.5,221.5C 765.5,277.167 765.5,332.833 765.5,388.5C 754.5,388.5 743.5,388.5 732.5,388.5C 732.5,397.5 732.5,406.5 732.5,415.5C 721.321,415.172 710.321,415.505 699.5,416.5C 699.5,425.5 699.5,434.5 699.5,443.5C 632.833,443.5 566.167,443.5 499.5,443.5C 499.5,434.167 499.5,424.833 499.5,415.5C 488.5,415.5 477.5,415.5 466.5,415.5C 466.5,406.5 466.5,397.5 466.5,388.5C 455.167,388.5 443.833,388.5 432.5,388.5C 432.5,332.833 432.5,277.167 432.5,221.5C 443.833,221.5 455.167,221.5 466.5,221.5C 466.5,212.167 466.5,202.833 466.5,193.5C 477.5,193.5 488.5,193.5 499.5,193.5C 499.5,184.5 499.5,175.5 499.5,166.5 Z"/></g>
<g><path style="opacity:0.78" fill="#2b002b" d="M 832.5,165.5 C 843.833,165.5 855.167,165.5 866.5,165.5C 866.5,184.167 866.5,202.833 866.5,221.5C 865.503,203.341 865.17,185.008 865.5,166.5C 854.321,166.828 843.321,166.495 832.5,165.5 Z"/></g>
<g><path style="opacity:1" fill="#a306a5" d="M 466.5,193.5 C 466.5,202.833 466.5,212.167 466.5,221.5C 455.167,221.5 443.833,221.5 432.5,221.5C 432.5,212.167 432.5,202.833 432.5,193.5C 443.833,193.5 455.167,193.5 466.5,193.5 Z"/></g>
<g><path style="opacity:1" fill="#a200a5" d="M 732.5,193.5 C 743.5,193.5 754.5,193.5 765.5,193.5C 765.5,202.833 765.5,212.167 765.5,221.5C 754.5,221.5 743.5,221.5 732.5,221.5C 732.5,212.167 732.5,202.833 732.5,193.5 Z"/></g>
<g><path style="opacity:0.987" fill="#000000" d="M 299.5,221.5 C 299.5,277.167 299.5,332.833 299.5,388.5C 288.167,388.5 276.833,388.5 265.5,388.5C 265.5,332.833 265.5,277.167 265.5,221.5C 276.833,221.5 288.167,221.5 299.5,221.5 Z"/></g>
<g><path style="opacity:1" fill="#a200a5" d="M 432.5,221.5 C 432.5,277.167 432.5,332.833 432.5,388.5C 421.5,388.5 410.5,388.5 399.5,388.5C 399.5,332.833 399.5,277.167 399.5,221.5C 410.5,221.5 421.5,221.5 432.5,221.5 Z"/></g>
<g><path style="opacity:1" fill="#b2fee2" d="M 732.5,221.5 C 732.5,249.167 732.5,276.833 732.5,304.5C 699.167,304.5 665.833,304.5 632.5,304.5C 632.5,276.833 632.5,249.167 632.5,221.5C 665.833,221.5 699.167,221.5 732.5,221.5 Z"/></g>
<g><path style="opacity:1" fill="#a303a5" d="M 765.5,221.5 C 776.833,221.5 788.167,221.5 799.5,221.5C 799.5,277.167 799.5,332.833 799.5,388.5C 788.5,388.5 777.5,388.5 766.5,388.5C 766.5,397.833 766.5,407.167 766.5,416.5C 755.167,416.5 743.833,416.5 732.5,416.5C 721.5,416.5 710.5,416.5 699.5,416.5C 710.321,415.505 721.321,415.172 732.5,415.5C 732.5,406.5 732.5,397.5 732.5,388.5C 743.5,388.5 754.5,388.5 765.5,388.5C 765.5,332.833 765.5,277.167 765.5,221.5 Z"/></g>
<g><path style="opacity:1" fill="#000000" d="M 899.5,221.5 C 910.5,221.5 921.5,221.5 932.5,221.5C 932.5,277.167 932.5,332.833 932.5,388.5C 921.5,388.5 910.5,388.5 899.5,388.5C 899.5,332.833 899.5,277.167 899.5,221.5 Z"/></g>
<g><path style="opacity:1" fill="#000000" d="M 299.5,388.5 C 310.5,388.5 321.5,388.5 332.5,388.5C 332.5,406.833 332.5,425.167 332.5,443.5C 321.5,443.5 310.5,443.5 299.5,443.5C 299.5,425.167 299.5,406.833 299.5,388.5 Z"/></g>
<g><path style="opacity:1" fill="#020002" d="M 899.5,388.5 C 899.5,406.833 899.5,425.167 899.5,443.5C 888.5,443.5 877.5,443.5 866.5,443.5C 866.167,443.5 865.833,443.5 865.5,443.5C 865.5,425.167 865.5,406.833 865.5,388.5C 876.833,388.5 888.167,388.5 899.5,388.5 Z"/></g>
<g><path style="opacity:1" fill="#a407a7" d="M 432.5,388.5 C 443.833,388.5 455.167,388.5 466.5,388.5C 466.5,397.5 466.5,406.5 466.5,415.5C 477.5,415.5 488.5,415.5 499.5,415.5C 499.5,424.833 499.5,434.167 499.5,443.5C 488.167,443.5 476.833,443.5 465.5,443.5C 465.5,434.5 465.5,425.5 465.5,416.5C 454.5,416.5 443.5,416.5 432.5,416.5C 432.5,407.167 432.5,397.833 432.5,388.5 Z"/></g>
<g><path style="opacity:1" fill="#a200a5" d="M 699.5,416.5 C 710.5,416.5 721.5,416.5 732.5,416.5C 732.5,425.5 732.5,434.5 732.5,443.5C 721.5,443.5 710.5,443.5 699.5,443.5C 699.5,434.5 699.5,425.5 699.5,416.5 Z"/></g>
<g><path style="opacity:0.995" fill="#000000" d="M 332.5,443.5 C 343.5,443.5 354.5,443.5 365.5,443.5C 365.5,462.167 365.5,480.833 365.5,499.5C 387.833,499.5 410.167,499.5 432.5,499.5C 432.5,508.833 432.5,518.167 432.5,527.5C 454.833,527.5 477.167,527.5 499.5,527.5C 499.5,536.5 499.5,545.5 499.5,554.5C 566.167,554.5 632.833,554.5 699.5,554.5C 699.5,545.5 699.5,536.5 699.5,527.5C 721.5,527.5 743.5,527.5 765.5,527.5C 765.5,518.167 765.5,508.833 765.5,499.5C 787.833,499.5 810.167,499.5 832.5,499.5C 832.5,508.833 832.5,518.167 832.5,527.5C 810.5,527.5 788.5,527.5 766.5,527.5C 766.5,536.833 766.5,546.167 766.5,555.5C 744.167,555.5 721.833,555.5 699.5,555.5C 699.5,564.5 699.5,573.5 699.5,582.5C 632.833,582.5 566.167,582.5 499.5,582.5C 499.5,610.5 499.5,638.5 499.5,666.5C 488.5,666.5 477.5,666.5 466.5,666.5C 466.832,628.996 466.498,591.663 465.5,554.5C 443.5,554.5 421.5,554.5 399.5,554.5C 399.5,545.5 399.5,536.5 399.5,527.5C 366.167,527.5 332.833,527.5 299.5,527.5C 299.5,518.167 299.5,508.833 299.5,499.5C 310.5,499.5 321.5,499.5 332.5,499.5C 332.5,480.833 332.5,462.167 332.5,443.5 Z"/></g>
<g><path style="opacity:1" fill="#a200a5" d="M 499.5,443.5 C 566.167,443.5 632.833,443.5 699.5,443.5C 699.5,452.833 699.5,462.167 699.5,471.5C 632.833,471.5 566.167,471.5 499.5,471.5C 499.5,462.167 499.5,452.833 499.5,443.5 Z"/></g>
<g><path style="opacity:0.984" fill="#000000" d="M 865.5,443.5 C 865.833,443.5 866.167,443.5 866.5,443.5C 866.5,462.167 866.5,480.833 866.5,499.5C 855.167,499.5 843.833,499.5 832.5,499.5C 832.5,480.833 832.5,462.167 832.5,443.5C 843.5,443.5 854.5,443.5 865.5,443.5 Z"/></g>
<g><path style="opacity:0.987" fill="#000000" d="M 299.5,527.5 C 299.5,545.833 299.5,564.167 299.5,582.5C 288.167,582.5 276.833,582.5 265.5,582.5C 265.5,564.167 265.5,545.833 265.5,527.5C 276.833,527.5 288.167,527.5 299.5,527.5 Z"/></g>
<g><path style="opacity:1" fill="#820083" d="M 299.5,527.5 C 332.833,527.5 366.167,527.5 399.5,527.5C 399.5,536.5 399.5,545.5 399.5,554.5C 421.5,554.5 443.5,554.5 465.5,554.5C 465.5,591.5 465.5,628.5 465.5,665.5C 454.321,665.172 443.321,665.505 432.5,666.5C 432.5,684.833 432.5,703.167 432.5,721.5C 421.5,721.5 410.5,721.5 399.5,721.5C 399.5,730.833 399.5,740.167 399.5,749.5C 388.167,749.5 376.833,749.5 365.5,749.5C 365.5,767.833 365.5,786.167 365.5,804.5C 354.5,804.5 343.5,804.5 332.5,804.5C 332.5,823.167 332.5,841.833 332.5,860.5C 321.5,860.5 310.5,860.5 299.5,860.5C 299.5,869.833 299.5,879.167 299.5,888.5C 288.167,888.5 276.833,888.5 265.5,888.5C 265.5,906.833 265.5,925.167 265.5,943.5C 232.167,943.5 198.833,943.5 165.5,943.5C 165.5,934.5 165.5,925.5 165.5,916.5C 143.5,916.5 121.5,916.5 99.5,916.5C 99.5,879.167 99.5,841.833 99.5,804.5C 110.5,804.5 121.5,804.5 132.5,804.5C 132.5,786.167 132.5,767.833 132.5,749.5C 143.5,749.5 154.5,749.5 165.5,749.5C 165.5,740.167 165.5,730.833 165.5,721.5C 176.833,721.5 188.167,721.5 199.5,721.5C 199.5,703.167 199.5,684.833 199.5,666.5C 210.5,666.5 221.5,666.5 232.5,666.5C 232.5,647.833 232.5,629.167 232.5,610.5C 243.5,610.5 254.5,610.5 265.5,610.5C 265.5,601.167 265.5,591.833 265.5,582.5C 276.833,582.5 288.167,582.5 299.5,582.5C 299.5,564.167 299.5,545.833 299.5,527.5 Z"/></g>
<g><path style="opacity:0.78" fill="#490049" d="M 465.5,554.5 C 466.498,591.663 466.832,628.996 466.5,666.5C 455.167,666.5 443.833,666.5 432.5,666.5C 443.321,665.505 454.321,665.172 465.5,665.5C 465.5,628.5 465.5,591.5 465.5,554.5 Z"/></g>
<g><path style="opacity:1" fill="#000000" d="M 265.5,582.5 C 265.5,591.833 265.5,601.167 265.5,610.5C 254.5,610.5 243.5,610.5 232.5,610.5C 232.5,601.167 232.5,591.833 232.5,582.5C 243.5,582.5 254.5,582.5 265.5,582.5 Z"/></g>
<g><path style="opacity:0.976" fill="#000000" d="M 232.5,610.5 C 232.5,629.167 232.5,647.833 232.5,666.5C 221.5,666.5 210.5,666.5 199.5,666.5C 199.5,684.833 199.5,703.167 199.5,721.5C 188.167,721.5 176.833,721.5 165.5,721.5C 165.5,702.833 165.5,684.167 165.5,665.5C 176.833,665.5 188.167,665.5 199.5,665.5C 199.5,647.167 199.5,628.833 199.5,610.5C 210.5,610.5 221.5,610.5 232.5,610.5 Z"/></g>
<g><path style="opacity:0.984" fill="#000000" d="M 432.5,666.5 C 443.833,666.5 455.167,666.5 466.5,666.5C 466.5,684.833 466.5,703.167 466.5,721.5C 455.167,721.5 443.833,721.5 432.5,721.5C 432.5,703.167 432.5,684.833 432.5,666.5 Z"/></g>
<g><path style="opacity:1" fill="#000000" d="M 165.5,721.5 C 165.5,730.833 165.5,740.167 165.5,749.5C 154.5,749.5 143.5,749.5 132.5,749.5C 132.5,740.167 132.5,730.833 132.5,721.5C 143.5,721.5 154.5,721.5 165.5,721.5 Z"/></g>
<g><path style="opacity:1" fill="#000000" d="M 432.5,721.5 C 432.5,730.833 432.5,740.167 432.5,749.5C 421.5,749.5 410.5,749.5 399.5,749.5C 399.5,740.167 399.5,730.833 399.5,721.5C 410.5,721.5 421.5,721.5 432.5,721.5 Z"/></g>
<g><path style="opacity:1" fill="#000000" d="M 132.5,749.5 C 132.5,767.833 132.5,786.167 132.5,804.5C 121.5,804.5 110.5,804.5 99.5,804.5C 99.5,786.167 99.5,767.833 99.5,749.5C 110.5,749.5 121.5,749.5 132.5,749.5 Z"/></g>
<g><path style="opacity:0.983" fill="#000000" d="M 399.5,749.5 C 399.5,768.167 399.5,786.833 399.5,805.5C 388.5,805.5 377.5,805.5 366.5,805.5C 366.5,823.833 366.5,842.167 366.5,860.5C 355.167,860.5 343.833,860.5 332.5,860.5C 332.5,841.833 332.5,823.167 332.5,804.5C 343.5,804.5 354.5,804.5 365.5,804.5C 365.5,786.167 365.5,767.833 365.5,749.5C 376.833,749.5 388.167,749.5 399.5,749.5 Z"/></g>
<g><path style="opacity:0.983" fill="#000000" d="M 99.5,804.5 C 99.5,841.833 99.5,879.167 99.5,916.5C 88.1667,916.5 76.8333,916.5 65.5,916.5C 65.5,879.167 65.5,841.833 65.5,804.5C 76.8333,804.5 88.1667,804.5 99.5,804.5 Z"/></g>
<g><path style="opacity:1" fill="#000000" d="M 332.5,860.5 C 332.5,869.833 332.5,879.167 332.5,888.5C 321.5,888.5 310.5,888.5 299.5,888.5C 299.5,879.167 299.5,869.833 299.5,860.5C 310.5,860.5 321.5,860.5 332.5,860.5 Z"/></g>
<g><path style="opacity:1" fill="#010001" d="M 299.5,888.5 C 299.5,906.833 299.5,925.167 299.5,943.5C 288.5,943.5 277.5,943.5 266.5,943.5C 266.167,943.5 265.833,943.5 265.5,943.5C 265.5,925.167 265.5,906.833 265.5,888.5C 276.833,888.5 288.167,888.5 299.5,888.5 Z"/></g>
<g><path style="opacity:1" fill="#000000" d="M 99.5,916.5 C 121.5,916.5 143.5,916.5 165.5,916.5C 165.5,925.5 165.5,934.5 165.5,943.5C 143.5,943.5 121.5,943.5 99.5,943.5C 99.5,934.5 99.5,925.5 99.5,916.5 Z"/></g>
<g><path style="opacity:0.99" fill="#000000" d="M 165.5,943.5 C 198.833,943.5 232.167,943.5 265.5,943.5C 265.833,943.5 266.167,943.5 266.5,943.5C 266.5,952.833 266.5,962.167 266.5,971.5C 232.833,971.5 199.167,971.5 165.5,971.5C 165.5,962.167 165.5,952.833 165.5,943.5 Z"/></g>
</svg>
