<?xml version="1.0" encoding="UTF-8"?>
<!DOCTYPE svg PUBLIC "-//W3C//DTD SVG 1.1//EN" "http://www.w3.org/Graphics/SVG/1.1/DTD/svg11.dtd">
<svg xmlns="http://www.w3.org/2000/svg" version="1.1" width="8310px" height="9972px" style="shape-rendering:geometricPrecision; text-rendering:geometricPrecision; image-rendering:optimizeQuality; fill-rule:evenodd; clip-rule:evenodd" xmlns:xlink="http://www.w3.org/1999/xlink">
<g><path style="opacity:1" fill="#000000" d="M 5815.5,552.5 C 5261.5,552.5 4707.5,552.5 4153.5,552.5C 4153.5,460.167 4153.5,367.833 4153.5,275.5C 4707.5,275.5 5261.5,275.5 5815.5,275.5C 5815.5,367.833 5815.5,460.167 5815.5,552.5 Z"/></g>
<g><path style="opacity:1" fill="#000000" d="M 4153.5,552.5 C 4153.5,644.833 4153.5,737.167 4153.5,829.5C 3968.83,829.5 3784.17,829.5 3599.5,829.5C 3599.5,737.167 3599.5,644.833 3599.5,552.5C 3784.17,552.5 3968.83,552.5 4153.5,552.5 Z"/></g>
<g><path style="opacity:1" fill="#a300a5" d="M 4153.5,552.5 C 4707.5,552.5 5261.5,552.5 5815.5,552.5C 5815.5,644.833 5815.5,737.167 5815.5,829.5C 6000.17,829.5 6184.83,829.5 6369.5,829.5C 6369.5,921.833 6369.5,1014.17 6369.5,1106.5C 6554.17,1106.5 6738.83,1106.5 6923.5,1106.5C 6923.5,1291.17 6923.5,1475.83 6923.5,1660.5C 7015.83,1660.5 7108.17,1660.5 7200.5,1660.5C 7200.5,1845.17 7200.5,2029.83 7200.5,2214.5C 7292.83,2214.5 7385.17,2214.5 7477.5,2214.5C 7477.5,2768.5 7477.5,3322.5 7477.5,3876.5C 7385.17,3876.5 7292.83,3876.5 7200.5,3876.5C 7200.5,4061.17 7200.5,4245.83 7200.5,4430.5C 7108.17,4430.5 7015.83,4430.5 6923.5,4430.5C 6923.5,4615.17 6923.5,4799.83 6923.5,4984.5C 6738.83,4984.5 6554.17,4984.5 6369.5,4984.5C 6369.5,5076.83 6369.5,5169.17 6369.5,5261.5C 6184.83,5261.5 6000.17,5261.5 5815.5,5261.5C 5815.5,5353.83 5815.5,5446.17 5815.5,5538.5C 5261.5,5538.5 4707.5,5538.5 4153.5,5538.5C 4153.5,5446.17 4153.5,5353.83 4153.5,5261.5C 3968.83,5261.5 3784.17,5261.5 3599.5,5261.5C 3599.5,5169.17 3599.5,5076.83 3599.5,4984.5C 3414.83,4984.5 3230.17,4984.5 3045.5,4984.5C 3045.5,4799.83 3045.5,4615.17 3045.5,4430.5C 2953.17,4430.5 2860.83,4430.5 2768.5,4430.5C 2768.5,4245.83 2768.5,4061.17 2768.5,3876.5C 2676.17,3876.5 2583.83,3876.5 2491.5,3876.5C 2491.5,3322.5 2491.5,2768.5 2491.5,2214.5C 2583.83,2214.5 2676.17,2214.5 2768.5,2214.5C 2768.5,2029.83 2768.5,1845.17 2768.5,1660.5C 2860.83,1660.5 2953.17,1660.5 3045.5,1660.5C 3045.5,1475.83 3045.5,1291.17 3045.5,1106.5C 3230.17,1106.5 3414.83,1106.5 3599.5,1106.5C 3599.5,1014.17 3599.5,921.833 3599.5,829.5C 3784.17,829.5 3968.83,829.5 4153.5,829.5C 4153.5,737.167 4153.5,644.833 4153.5,552.5 Z"/></g>
<g><path style="opacity:1" fill="#000000" d="M 5815.5,552.5 C 6000.17,552.5 6184.83,552.5 6369.5,552.5C 6369.5,644.833 6369.5,737.167 6369.5,829.5C 6184.83,829.5 6000.17,829.5 5815.5,829.5C 5815.5,737.167 5815.5,644.833 5815.5,552.5 Z"/></g>
<g><path style="opacity:1" fill="#000000" d="M 3599.5,829.5 C 3599.5,921.833 3599.5,1014.17 3599.5,1106.5C 3414.83,1106.5 3230.17,1106.5 3045.5,1106.5C 3045.5,1014.17 3045.5,921.833 3045.5,829.5C 3230.17,829.5 3414.83,829.5 3599.5,829.5 Z"/></g>
<g><path style="opacity:1" fill="#fc00fe" d="M 4430.5,829.5 C 4799.83,829.5 5169.17,829.5 5538.5,829.5C 5538.5,921.833 5538.5,1014.17 5538.5,1106.5C 5723.17,1106.5 5907.83,1106.5 6092.5,1106.5C 6092.5,1198.83 6092.5,1291.17 6092.5,1383.5C 6277.17,1383.5 6461.83,1383.5 6646.5,1383.5C 6646.5,1568.17 6646.5,1752.83 6646.5,1937.5C 6738.83,1937.5 6831.17,1937.5 6923.5,1937.5C 6923.5,2122.17 6923.5,2306.83 6923.5,2491.5C 7015.83,2491.5 7108.17,2491.5 7200.5,2491.5C 7200.5,2860.83 7200.5,3230.17 7200.5,3599.5C 7108.17,3599.5 7015.83,3599.5 6923.5,3599.5C 6923.5,3784.17 6923.5,3968.83 6923.5,4153.5C 6831.17,4153.5 6738.83,4153.5 6646.5,4153.5C 6646.5,4338.17 6646.5,4522.83 6646.5,4707.5C 6461.83,4707.5 6277.17,4707.5 6092.5,4707.5C 6092.5,4799.83 6092.5,4892.17 6092.5,4984.5C 5907.83,4984.5 5723.17,4984.5 5538.5,4984.5C 5538.5,5076.83 5538.5,5169.17 5538.5,5261.5C 5169.17,5261.5 4799.83,5261.5 4430.5,5261.5C 4430.5,5169.17 4430.5,5076.83 4430.5,4984.5C 4245.83,4984.5 4061.17,4984.5 3876.5,4984.5C 3876.5,4892.17 3876.5,4799.83 3876.5,4707.5C 3691.83,4707.5 3507.17,4707.5 3322.5,4707.5C 3322.5,4522.83 3322.5,4338.17 3322.5,4153.5C 3230.17,4153.5 3137.83,4153.5 3045.5,4153.5C 3045.5,3968.83 3045.5,3784.17 3045.5,3599.5C 2953.17,3599.5 2860.83,3599.5 2768.5,3599.5C 2768.5,3230.17 2768.5,2860.83 2768.5,2491.5C 2860.83,2491.5 2953.17,2491.5 3045.5,2491.5C 3045.5,2306.83 3045.5,2122.17 3045.5,1937.5C 3137.83,1937.5 3230.17,1937.5 3322.5,1937.5C 3322.5,1752.83 3322.5,1568.17 3322.5,1383.5C 3507.17,1383.5 3691.83,1383.5 3876.5,1383.5C 3876.5,1291.17 3876.5,1198.83 3876.5,1106.5C 4061.17,1106.5 4245.83,1106.5 4430.5,1106.5C 4430.5,1014.17 4430.5,921.833 4430.5,829.5 Z"/></g>
<g><path style="opacity:1" fill="#000000" d="M 6369.5,829.5 C 6554.17,829.5 6738.83,829.5 6923.5,829.5C 6923.5,921.833 6923.5,1014.17 6923.5,1106.5C 6738.83,1106.5 6554.17,1106.5 6369.5,1106.5C 6369.5,1014.17 6369.5,921.833 6369.5,829.5 Z"/></g>
<g><path style="opacity:1" fill="#000000" d="M 3045.5,1106.5 C 3045.5,1291.17 3045.5,1475.83 3045.5,1660.5C 2953.17,1660.5 2860.83,1660.5 2768.5,1660.5C 2768.5,1475.83 2768.5,1291.17 2768.5,1106.5C 2860.83,1106.5 2953.17,1106.5 3045.5,1106.5 Z"/></g>
<g><path style="opacity:1" fill="#000000" d="M 6923.5,1106.5 C 7015.83,1106.5 7108.17,1106.5 7200.5,1106.5C 7200.5,1291.17 7200.5,1475.83 7200.5,1660.5C 7108.17,1660.5 7015.83,1660.5 6923.5,1660.5C 6923.5,1475.83 6923.5,1291.17 6923.5,1106.5 Z"/></g>
<g><path style="opacity:1" fill="#a300a5" d="M 5815.5,1660.5 C 5261.5,1660.5 4707.5,1660.5 4153.5,1660.5C 4153.5,1568.17 4153.5,1475.83 4153.5,1383.5C 4707.5,1383.5 5261.5,1383.5 5815.5,1383.5C 5815.5,1475.83 5815.5,1568.17 5815.5,1660.5 Z"/></g>
<g><path style="opacity:1" fill="#000000" d="M 2768.5,1660.5 C 2768.5,1845.17 2768.5,2029.83 2768.5,2214.5C 2676.17,2214.5 2583.83,2214.5 2491.5,2214.5C 2491.5,2029.83 2491.5,1845.17 2491.5,1660.5C 2583.83,1660.5 2676.17,1660.5 2768.5,1660.5 Z"/></g>
<g><path style="opacity:1" fill="#a300a5" d="M 4153.5,1660.5 C 4153.5,1752.83 4153.5,1845.17 4153.5,1937.5C 4061.17,1937.5 3968.83,1937.5 3876.5,1937.5C 3876.5,1845.17 3876.5,1752.83 3876.5,1660.5C 3968.83,1660.5 4061.17,1660.5 4153.5,1660.5 Z"/></g>
<g><path style="opacity:1" fill="#65fdc8" d="M 4153.5,1660.5 C 4707.5,1660.5 5261.5,1660.5 5815.5,1660.5C 5815.5,1752.83 5815.5,1845.17 5815.5,1937.5C 5907.83,1937.5 6000.17,1937.5 6092.5,1937.5C 6092.5,2029.83 6092.5,2122.17 6092.5,2214.5C 6184.83,2214.5 6277.17,2214.5 6369.5,2214.5C 6369.5,2768.5 6369.5,3322.5 6369.5,3876.5C 6277.17,3876.5 6184.83,3876.5 6092.5,3876.5C 6092.5,3968.83 6092.5,4061.17 6092.5,4153.5C 6000.17,4153.5 5907.83,4153.5 5815.5,4153.5C 5815.5,4245.83 5815.5,4338.17 5815.5,4430.5C 5261.5,4430.5 4707.5,4430.5 4153.5,4430.5C 4153.5,4338.17 4153.5,4245.83 4153.5,4153.5C 4061.17,4153.5 3968.83,4153.5 3876.5,4153.5C 3876.5,4061.17 3876.5,3968.83 3876.5,3876.5C 3784.17,3876.5 3691.83,3876.5 3599.5,3876.5C 3599.5,3322.5 3599.5,2768.5 3599.5,2214.5C 3691.83,2214.5 3784.17,2214.5 3876.5,2214.5C 3876.5,2122.17 3876.5,2029.83 3876.5,1937.5C 3968.83,1937.5 4061.17,1937.5 4153.5,1937.5C 4153.5,1845.17 4153.5,1752.83 4153.5,1660.5 Z"/></g>
<g><path style="opacity:1" fill="#a300a5" d="M 5815.5,1660.5 C 5907.83,1660.5 6000.17,1660.5 6092.5,1660.5C 6092.5,1752.83 6092.5,1845.17 6092.5,1937.5C 6092.5,1845.17 6092.5,1752.83 6092.5,1660.5C 6000.17,1660.5 5907.83,1660.5 5815.5,1660.5 Z"/></g>
<g><path style="opacity:1" fill="#000000" d="M 7200.5,1660.5 C 7292.83,1660.5 7385.17,1660.5 7477.5,1660.5C 7477.5,1845.17 7477.5,2029.83 7477.5,2214.5C 7385.17,2214.5 7292.83,2214.5 7200.5,2214.5C 7200.5,2029.83 7200.5,1845.17 7200.5,1660.5 Z"/></g>
<g><path style="opacity:1" fill="#a300a5" d="M 3876.5,1937.5 C 3876.5,2029.83 3876.5,2122.17 3876.5,2214.5C 3784.17,2214.5 3691.83,2214.5 3599.5,2214.5C 3599.5,2122.17 3599.5,2029.83 3599.5,1937.5C 3691.83,1937.5 3784.17,1937.5 3876.5,1937.5 Z"/></g>
<g><path style="opacity:1" fill="#a300a5" d="M 6092.5,1937.5 C 6184.83,1937.5 6277.17,1937.5 6369.5,1937.5C 6369.5,2029.83 6369.5,2122.17 6369.5,2214.5C 6277.17,2214.5 6184.83,2214.5 6092.5,2214.5C 6092.5,2122.17 6092.5,2029.83 6092.5,1937.5 Z"/></g>
<g><path style="opacity:1" fill="#000000" d="M 2491.5,2214.5 C 2491.5,2768.5 2491.5,3322.5 2491.5,3876.5C 2399.17,3876.5 2306.83,3876.5 2214.5,3876.5C 2214.5,3322.5 2214.5,2768.5 2214.5,2214.5C 2306.83,2214.5 2399.17,2214.5 2491.5,2214.5 Z"/></g>
<g><path style="opacity:1" fill="#a300a5" d="M 3599.5,2214.5 C 3599.5,2768.5 3599.5,3322.5 3599.5,3876.5C 3507.17,3876.5 3414.83,3876.5 3322.5,3876.5C 3322.5,3322.5 3322.5,2768.5 3322.5,2214.5C 3414.83,2214.5 3507.17,2214.5 3599.5,2214.5 Z"/></g>
<g><path style="opacity:1" fill="#b3fee3" d="M 6092.5,2214.5 C 6092.5,2491.5 6092.5,2768.5 6092.5,3045.5C 5815.5,3045.5 5538.5,3045.5 5261.5,3045.5C 5261.5,2768.5 5261.5,2491.5 5261.5,2214.5C 5538.5,2214.5 5815.5,2214.5 6092.5,2214.5 Z"/></g>
<g><path style="opacity:1" fill="#a300a5" d="M 6369.5,2214.5 C 6461.83,2214.5 6554.17,2214.5 6646.5,2214.5C 6646.5,2768.5 6646.5,3322.5 6646.5,3876.5C 6554.17,3876.5 6461.83,3876.5 6369.5,3876.5C 6369.5,3322.5 6369.5,2768.5 6369.5,2214.5 Z"/></g>
<g><path style="opacity:1" fill="#000000" d="M 7477.5,2214.5 C 7569.83,2214.5 7662.17,2214.5 7754.5,2214.5C 7754.5,2768.5 7754.5,3322.5 7754.5,3876.5C 7662.17,3876.5 7569.83,3876.5 7477.5,3876.5C 7477.5,3322.5 7477.5,2768.5 7477.5,2214.5 Z"/></g>
<g><path style="opacity:1" fill="#000000" d="M 2491.5,3876.5 C 2583.83,3876.5 2676.17,3876.5 2768.5,3876.5C 2768.5,4061.17 2768.5,4245.83 2768.5,4430.5C 2676.17,4430.5 2583.83,4430.5 2491.5,4430.5C 2491.5,4245.83 2491.5,4061.17 2491.5,3876.5 Z"/></g>
<g><path style="opacity:1" fill="#a300a5" d="M 3599.5,3876.5 C 3691.83,3876.5 3784.17,3876.5 3876.5,3876.5C 3876.5,3968.83 3876.5,4061.17 3876.5,4153.5C 3784.17,4153.5 3691.83,4153.5 3599.5,4153.5C 3599.5,4061.17 3599.5,3968.83 3599.5,3876.5 Z"/></g>
<g><path style="opacity:1" fill="#a300a5" d="M 6369.5,3876.5 C 6369.5,3968.83 6369.5,4061.17 6369.5,4153.5C 6277.17,4153.5 6184.83,4153.5 6092.5,4153.5C 6092.5,4061.17 6092.5,3968.83 6092.5,3876.5C 6184.83,3876.5 6277.17,3876.5 6369.5,3876.5 Z"/></g>
<g><path style="opacity:1" fill="#000000" d="M 7477.5,3876.5 C 7477.5,4061.17 7477.5,4245.83 7477.5,4430.5C 7385.17,4430.5 7292.83,4430.5 7200.5,4430.5C 7200.5,4245.83 7200.5,4061.17 7200.5,3876.5C 7292.83,3876.5 7385.17,3876.5 7477.5,3876.5 Z"/></g>
<g><path style="opacity:1" fill="#a300a5" d="M 3876.5,4153.5 C 3968.83,4153.5 4061.17,4153.5 4153.5,4153.5C 4153.5,4245.83 4153.5,4338.17 4153.5,4430.5C 4061.17,4430.5 3968.83,4430.5 3876.5,4430.5C 3876.5,4338.17 3876.5,4245.83 3876.5,4153.5 Z"/></g>
<g><path style="opacity:1" fill="#a300a5" d="M 6092.5,4153.5 C 6092.5,4245.83 6092.5,4338.17 6092.5,4430.5C 6000.17,4430.5 5907.83,4430.5 5815.5,4430.5C 5815.5,4338.17 5815.5,4245.83 5815.5,4153.5C 5907.83,4153.5 6000.17,4153.5 6092.5,4153.5 Z"/></g>
<g><path style="opacity:1" fill="#000000" d="M 2768.5,4430.5 C 2860.83,4430.5 2953.17,4430.5 3045.5,4430.5C 3045.5,4615.17 3045.5,4799.83 3045.5,4984.5C 3230.17,4984.5 3414.83,4984.5 3599.5,4984.5C 3599.5,5076.83 3599.5,5169.17 3599.5,5261.5C 3784.17,5261.5 3968.83,5261.5 4153.5,5261.5C 4153.5,5353.83 4153.5,5446.17 4153.5,5538.5C 4707.5,5538.5 5261.5,5538.5 5815.5,5538.5C 5815.5,5630.83 5815.5,5723.17 5815.5,5815.5C 5261.5,5815.5 4707.5,5815.5 4153.5,5815.5C 4153.5,6092.5 4153.5,6369.5 4153.5,6646.5C 4061.17,6646.5 3968.83,6646.5 3876.5,6646.5C 3876.5,6277.17 3876.5,5907.83 3876.5,5538.5C 3691.83,5538.5 3507.17,5538.5 3322.5,5538.5C 3322.5,5446.17 3322.5,5353.83 3322.5,5261.5C 3045.5,5261.5 2768.5,5261.5 2491.5,5261.5C 2491.5,5169.17 2491.5,5076.83 2491.5,4984.5C 2583.83,4984.5 2676.17,4984.5 2768.5,4984.5C 2768.5,4799.83 2768.5,4615.17 2768.5,4430.5 Z"/></g>
<g><path style="opacity:1" fill="#a300a5" d="M 4153.5,4430.5 C 4707.5,4430.5 5261.5,4430.5 5815.5,4430.5C 5815.5,4522.83 5815.5,4615.17 5815.5,4707.5C 5261.5,4707.5 4707.5,4707.5 4153.5,4707.5C 4153.5,4615.17 4153.5,4522.83 4153.5,4430.5 Z"/></g>
<g><path style="opacity:1" fill="#000000" d="M 7200.5,4430.5 C 7200.5,4615.17 7200.5,4799.83 7200.5,4984.5C 7108.17,4984.5 7015.83,4984.5 6923.5,4984.5C 6923.5,4799.83 6923.5,4615.17 6923.5,4430.5C 7015.83,4430.5 7108.17,4430.5 7200.5,4430.5 Z"/></g>
<g><path style="opacity:1" fill="#000000" d="M 6923.5,4984.5 C 6923.5,5076.83 6923.5,5169.17 6923.5,5261.5C 6738.83,5261.5 6554.17,5261.5 6369.5,5261.5C 6369.5,5169.17 6369.5,5076.83 6369.5,4984.5C 6554.17,4984.5 6738.83,4984.5 6923.5,4984.5 Z"/></g>
<g><path style="opacity:1" fill="#000000" d="M 2491.5,5261.5 C 2491.5,5446.17 2491.5,5630.83 2491.5,5815.5C 2399.17,5815.5 2306.83,5815.5 2214.5,5815.5C 2214.5,5630.83 2214.5,5446.17 2214.5,5261.5C 2306.83,5261.5 2399.17,5261.5 2491.5,5261.5 Z"/></g>
<g><path style="opacity:1" fill="#830084" d="M 2491.5,5261.5 C 2768.5,5261.5 3045.5,5261.5 3322.5,5261.5C 3322.5,5353.83 3322.5,5446.17 3322.5,5538.5C 3507.17,5538.5 3691.83,5538.5 3876.5,5538.5C 3876.5,5907.83 3876.5,6277.17 3876.5,6646.5C 3784.17,6646.5 3691.83,6646.5 3599.5,6646.5C 3599.5,6831.17 3599.5,7015.83 3599.5,7200.5C 3507.17,7200.5 3414.83,7200.5 3322.5,7200.5C 3322.5,7292.83 3322.5,7385.17 3322.5,7477.5C 3230.17,7477.5 3137.83,7477.5 3045.5,7477.5C 3045.5,7662.17 3045.5,7846.83 3045.5,8031.5C 2953.17,8031.5 2860.83,8031.5 2768.5,8031.5C 2768.5,8216.17 2768.5,8400.83 2768.5,8585.5C 2676.17,8585.5 2583.83,8585.5 2491.5,8585.5C 2491.5,8677.83 2491.5,8770.17 2491.5,8862.5C 2399.17,8862.5 2306.83,8862.5 2214.5,8862.5C 2214.5,9047.17 2214.5,9231.83 2214.5,9416.5C 1937.5,9416.5 1660.5,9416.5 1383.5,9416.5C 1383.5,9324.17 1383.5,9231.83 1383.5,9139.5C 1198.83,9139.5 1014.17,9139.5 829.5,9139.5C 829.5,8770.17 829.5,8400.83 829.5,8031.5C 921.833,8031.5 1014.17,8031.5 1106.5,8031.5C 1106.5,7846.83 1106.5,7662.17 1106.5,7477.5C 1198.83,7477.5 1291.17,7477.5 1383.5,7477.5C 1383.5,7385.17 1383.5,7292.83 1383.5,7200.5C 1475.83,7200.5 1568.17,7200.5 1660.5,7200.5C 1660.5,7015.83 1660.5,6831.17 1660.5,6646.5C 1752.83,6646.5 1845.17,6646.5 1937.5,6646.5C 1937.5,6461.83 1937.5,6277.17 1937.5,6092.5C 2029.83,6092.5 2122.17,6092.5 2214.5,6092.5C 2214.5,6000.17 2214.5,5907.83 2214.5,5815.5C 2306.83,5815.5 2399.17,5815.5 2491.5,5815.5C 2491.5,5630.83 2491.5,5446.17 2491.5,5261.5 Z"/></g>
<g><path style="opacity:1" fill="#000000" d="M 6369.5,5261.5 C 6369.5,5353.83 6369.5,5446.17 6369.5,5538.5C 6184.83,5538.5 6000.17,5538.5 5815.5,5538.5C 5815.5,5446.17 5815.5,5353.83 5815.5,5261.5C 6000.17,5261.5 6184.83,5261.5 6369.5,5261.5 Z"/></g>
<g><path style="opacity:1" fill="#000000" d="M 2214.5,5815.5 C 2214.5,5907.83 2214.5,6000.17 2214.5,6092.5C 2122.17,6092.5 2029.83,6092.5 1937.5,6092.5C 1937.5,6000.17 1937.5,5907.83 1937.5,5815.5C 2029.83,5815.5 2122.17,5815.5 2214.5,5815.5 Z"/></g>
<g><path style="opacity:1" fill="#000000" d="M 1937.5,6092.5 C 1937.5,6277.17 1937.5,6461.83 1937.5,6646.5C 1845.17,6646.5 1752.83,6646.5 1660.5,6646.5C 1660.5,6461.83 1660.5,6277.17 1660.5,6092.5C 1752.83,6092.5 1845.17,6092.5 1937.5,6092.5 Z"/></g>
<g><path style="opacity:1" fill="#000000" d="M 1660.5,6646.5 C 1660.5,6831.17 1660.5,7015.83 1660.5,7200.5C 1568.17,7200.5 1475.83,7200.5 1383.5,7200.5C 1383.5,7015.83 1383.5,6831.17 1383.5,6646.5C 1475.83,6646.5 1568.17,6646.5 1660.5,6646.5 Z"/></g>
<g><path style="opacity:1" fill="#000000" d="M 3876.5,6646.5 C 3876.5,6831.17 3876.5,7015.83 3876.5,7200.5C 3784.17,7200.5 3691.83,7200.5 3599.5,7200.5C 3599.5,7015.83 3599.5,6831.17 3599.5,6646.5C 3691.83,6646.5 3784.17,6646.5 3876.5,6646.5 Z"/></g>
<g><path style="opacity:1" fill="#000000" d="M 1383.5,7200.5 C 1383.5,7292.83 1383.5,7385.17 1383.5,7477.5C 1291.17,7477.5 1198.83,7477.5 1106.5,7477.5C 1106.5,7385.17 1106.5,7292.83 1106.5,7200.5C 1198.83,7200.5 1291.17,7200.5 1383.5,7200.5 Z"/></g>
<g><path style="opacity:1" fill="#000000" d="M 3599.5,7200.5 C 3599.5,7292.83 3599.5,7385.17 3599.5,7477.5C 3507.17,7477.5 3414.83,7477.5 3322.5,7477.5C 3322.5,7385.17 3322.5,7292.83 3322.5,7200.5C 3414.83,7200.5 3507.17,7200.5 3599.5,7200.5 Z"/></g>
<g><path style="opacity:1" fill="#000000" d="M 1106.5,7477.5 C 1106.5,7662.17 1106.5,7846.83 1106.5,8031.5C 1014.17,8031.5 921.833,8031.5 829.5,8031.5C 829.5,7846.83 829.5,7662.17 829.5,7477.5C 921.833,7477.5 1014.17,7477.5 1106.5,7477.5 Z"/></g>
<g><path style="opacity:1" fill="#000000" d="M 3322.5,7477.5 C 3322.5,7662.17 3322.5,7846.83 3322.5,8031.5C 3230.17,8031.5 3137.83,8031.5 3045.5,8031.5C 3045.5,7846.83 3045.5,7662.17 3045.5,7477.5C 3137.83,7477.5 3230.17,7477.5 3322.5,7477.5 Z"/></g>
<g><path style="opacity:1" fill="#000000" d="M 829.5,8031.5 C 829.5,8400.83 829.5,8770.17 829.5,9139.5C 737.167,9139.5 644.833,9139.5 552.5,9139.5C 552.5,8770.17 552.5,8400.83 552.5,8031.5C 644.833,8031.5 737.167,8031.5 829.5,8031.5 Z"/></g>
<g><path style="opacity:1" fill="#000000" d="M 3045.5,8031.5 C 3045.5,8216.17 3045.5,8400.83 3045.5,8585.5C 2953.17,8585.5 2860.83,8585.5 2768.5,8585.5C 2768.5,8400.83 2768.5,8216.17 2768.5,8031.5C 2860.83,8031.5 2953.17,8031.5 3045.5,8031.5 Z"/></g>
<g><path style="opacity:1" fill="#000000" d="M 2768.5,8585.5 C 2768.5,8677.83 2768.5,8770.17 2768.5,8862.5C 2676.17,8862.5 2583.83,8862.5 2491.5,8862.5C 2491.5,8770.17 2491.5,8677.83 2491.5,8585.5C 2583.83,8585.5 2676.17,8585.5 2768.5,8585.5 Z"/></g>
<g><path style="opacity:1" fill="#000000" d="M 2491.5,8862.5 C 2491.5,9047.17 2491.5,9231.83 2491.5,9416.5C 2399.17,9416.5 2306.83,9416.5 2214.5,9416.5C 2214.5,9231.83 2214.5,9047.17 2214.5,8862.5C 2306.83,8862.5 2399.17,8862.5 2491.5,8862.5 Z"/></g>
<g><path style="opacity:1" fill="#000000" d="M 829.5,9139.5 C 1014.17,9139.5 1198.83,9139.5 1383.5,9139.5C 1383.5,9231.83 1383.5,9324.17 1383.5,9416.5C 1198.83,9416.5 1014.17,9416.5 829.5,9416.5C 829.5,9324.17 829.5,9231.83 829.5,9139.5 Z"/></g>
<g><path style="opacity:1" fill="#000000" d="M 1383.5,9416.5 C 1660.5,9416.5 1937.5,9416.5 2214.5,9416.5C 2214.5,9508.83 2214.5,9601.17 2214.5,9693.5C 1937.5,9693.5 1660.5,9693.5 1383.5,9693.5C 1383.5,9601.17 1383.5,9508.83 1383.5,9416.5 Z"/></g>
</svg>
